<svg xmlns="http://www.w3.org/2000/svg" style="display:none">

  <!-- Hamburger icon -->
  <symbol id="icon-menu" viewBox="0 0 24 24" fill="none" stroke="currentColor" stroke-width="1.5" stroke-linecap="round" stroke-linejoin="round">
    <path d="M4 5h16"/>
    <path d="M4 12h16"/>
    <path d="M4 19h16"/>
  </symbol>

<!-- ðŸ‘¤ User Round for Personal ðŸ‘¤ -->
    <symbol id="icon-user-round" viewBox="0 0 24 24" fill="none" stroke="currentColor" stroke-width="1.5" stroke-linecap="round" stroke-linejoin="round">
      <circle cx="12" cy="8" r="5"/>
      <path d="M20 21a8 8 0 0 0-16 0"/>
    </symbol>

  <!-- Fingerprint for About -->
    <symbol id="icon-fingerprint" viewBox="0 0 24 24" fill="none" stroke="currentColor" stroke-width="1.5" stroke-linecap="round" stroke-linejoin="round">
      <path d="M12 10a2 2 0 0 0-2 2c0 1.02-.1 2.51-.26 4"/>
      <path d="M14 13.12c0 2.38 0 6.38-1 8.88"/>
      <path d="M17.29 21.02c.12-.6.43-2.3.5-3.02"/>
      <path d="M2 12a10 10 0 0 1 18-6"/>
      <path d="M2 16h.01"/>
      <path d="M21.8 16c.2-2 .131-5.354 0-6"/>
      <path d="M5 19.5C5.5 18 6 15 6 12a6 6 0 0 1 .34-2"/>
      <path d="M8.65 22c.21-.66.45-1.32.57-2"/>
      <path d="M9 6.8a6 6 0 0 1 9 5.2v2"/>
    </symbol>

  <!-- Book-open for Library -->
    <symbol id="icon-book-open" viewBox="0 0 24 24" fill="none" stroke="currentColor" stroke-width="1.5" stroke-linecap="round" stroke-linejoin="round">
      <path d="M12 7v14"/>
      <path d="M3 18a1 1 0 0 1-1-1V4a1 1 0 0 1 1-1h5a4 4 0 0 1 4 4 4 4 0 0 1 4-4h5a1 1 0 0 1 1 1v13a1 1 0 0 1-1 1h-6a3 3 0 0 0-3 3 3 3 0 0 0-3-3z"/>
    </symbol>

  <!-- Star for Obsessions -->
    <symbol id="icon-star" viewBox="0 0 24 24" fill="none" stroke="currentColor" stroke-width="1.5" stroke-linecap="round" stroke-linejoin="round">
      <path d="M11.525 2.295a.53.53 0 0 1 .95 0l2.31 4.679a2.123 2.123 0 0 0 1.595 1.16l5.166.756a.53.53 0 0 1 .294.904l-3.736 3.638a2.123 2.123 0 0 0-.611 1.878l.882 5.14a.53.53 0 0 1-.771.56l-4.618-2.428a2.122 2.122 0 0 0-1.973 0L6.396 21.01a.53.53 0 0 1-.77-.56l.881-5.139a2.122 2.122 0 0 0-.611-1.879L2.16 9.795a.53.53 0 0 1 .294-.906l5.165-.755a2.122 2.122 0 0 0 1.597-1.16z"/>
    </symbol>



<!-- ðŸ“š Library for Literary ðŸ“š -->
    <symbol id="icon-library" viewBox="0 0 24 24" fill="none" stroke="currentColor" stroke-width="1.5" stroke-linecap="round" stroke-linejoin="round">
      <rect width="8" height="18" x="3" y="3" rx="1"/>
      <path d="M7 3v18"/>
      <path d="M20.4 18.9c.2.5-.1 1.1-.6 1.3l-1.9.7c-.5.2-1.1-.1-1.3-.6L11.1 5.1c-.2-.5.1-1.1.6-1.3l1.9-.7c.5-.2 1.1.1 1.3.6Z"/>
    </symbol>

  <!-- Book-closed for Novels -->
    <symbol id="icon-book-closed" viewBox="0 0 24 24" fill="none" stroke="currentColor" stroke-width="1.5" stroke-linecap="round" stroke-linejoin="round">
      <path d="M4 19.5v-15A2.5 2.5 0 0 1 6.5 2H19a1 1 0 0 1 1 1v18a1 1 0 0 1-1 1H6.5a1 1 0 0 1 0-5H20"/>
    </symbol>

  <!-- Notebook-pen for Essays -->
    <symbol id="icon-notebook-pen" viewBox="0 0 24 24" fill="none" stroke="currentColor" stroke-width="1.5" stroke-linecap="round" stroke-linejoin="round">
      <path d="M13.4 2H6a2 2 0 0 0-2 2v16a2 2 0 0 0 2 2h12a2 2 0 0 0 2-2v-7.4"/>
      <path d="M2 6h4"/>
      <path d="M2 10h4"/>
      <path d="M2 14h4"/>
      <path d="M2 18h4"/>
      <path d="M21.378 5.626a1 1 0 1 0-3.004-3.004l-5.01 5.012a2 2 0 0 0-.506.854l-.837 2.87a.5.5 0 0 0 .62.62l2.87-.837a2 2 0 0 0 .854-.506z"/>
    </symbol>

  <!-- Pencil for Shorts -->
    <symbol id="icon-pencil" viewBox="0 0 24 24" fill="none" stroke="currentColor" stroke-width="1.5" stroke-linecap="round" stroke-linejoin="round">
      <path d="M21.174 6.812a1 1 0 0 0-3.986-3.987L3.842 16.174a2 2 0 0 0-.5.83l-1.321 4.352a.5.5 0 0 0 .623.622l4.353-1.32a2 2 0 0 0 .83-.497z"/>
      <path d="m15 5 4 4"/>
    </symbol>



<!-- ðŸ›¢ï¸ Barrel for Tavern ðŸ›¢ï¸ --> 
    <symbol id="icon-barrel" viewBox="0 0 24 24" fill="none" stroke="currentColor" stroke-width="1.5" stroke-linecap="round" stroke-linejoin="round">
      <path d="M10 3a41 41 0 0 0 0 18"/>
      <path d="M14 3a41 41 0 0 1 0 18"/>
      <path d="M17 3a2 2 0 0 1 1.68.92 15.25 15.25 0 0 1 0 16.16A2 2 0 0 1 17 21H7a2 2 0 0 1-1.68-.92 15.25 15.25 0 0 1 0-16.16A2 2 0 0 1 7 3z"/>
      <path d="M3.84 17h16.32"/>
      <path d="M3.84 7h16.32"/>
    </symbol>

  <!-- Send for Contact -->
    <symbol id="icon-send" viewBox="0 0 24 24" fill="none" stroke="currentColor" stroke-width="1.5" stroke-linecap="round" stroke-linejoin="round">
      <path d="M14.536 21.686a.5.5 0 0 0 .937-.024l6.5-19a.496.496 0 0 0-.635-.635l-19 6.5a.5.5 0 0 0-.024.937l7.93 3.18a2 2 0 0 1 1.112 1.11z"/>
      <path d="m21.854 2.147-10.94 10.939"/>
    </symbol>

  <!-- Bird for Warbler -->
    <symbol id="icon-bird" viewBox="0 0 24 24" fill="none" stroke="currentColor" stroke-width="1.5" stroke-linecap="round" stroke-linejoin="round">
      <path d="M16 7h.01"/>
      <path d="M3.4 18H12a8 8 0 0 0 8-8V7a4 4 0 0 0-7.28-2.3L2 20"/>
      <path d="m20 7 2 .5-2 .5"/>
      <path d="M10 18v3"/>
      <path d="M14 17.75V21"/>
      <path d="M7 18a6 6 0 0 0 3.84-10.61"/>
    </symbol>

  <!-- Sparkels for Patronage -->
    <symbol id="icon-sparkles" viewBox="0 0 24 24" fill="none" stroke="currentColor" stroke-width="1.5" stroke-linecap="round" stroke-linejoin="round">
      <path d="M11.017 2.814a1 1 0 0 1 1.966 0l1.051 5.558a2 2 0 0 0 1.594 1.594l5.558 1.051a1 1 0 0 1 0 1.966l-5.558 1.051a2 2 0 0 0-1.594 1.594l-1.051 5.558a1 1 0 0 1-1.966 0l-1.051-5.558a2 2 0 0 0-1.594-1.594l-5.558-1.051a1 1 0 0 1 0-1.966l5.558-1.051a2 2 0 0 0 1.594-1.594z"/>
      <path d="M20 2v4"/>
      <path d="M22 4h-4"/>
      <circle cx="4" cy="20" r="2"/>
    </symbol>



<!-- ðŸŒ™ Moon-star for Beyond ðŸŒ™ -->
    <symbol id="icon-moon" viewBox="0 0 24 24" fill="none" stroke="currentColor" stroke-width="1.5" stroke-linecap="round" stroke-linejoin="round">
      <path d="M20.985 12.486a9 9 0 1 1-9.473-9.472c.405-.022.617.46.402.803a6 6 0 0 0 8.268 8.268c.344-.215.825-.004.803.401"/>
    </symbol>

<!-- Palette for Other Works -->
    <symbol id="icon-palette" viewBox="0 0 24 24" fill="none" stroke="currentColor" stroke-width="1.5" stroke-linecap="round" stroke-linejoin="round">
      <path d="M12 22a1 1 0 0 1 0-20 10 9 0 0 1 10 9 5 5 0 0 1-5 5h-2.25a1.75 1.75 0 0 0-1.4 2.8l.3.4a1.75 1.75 0 0 1-1.4 2.8z"/>
      <circle cx="13.5" cy="6.5" r=".5" fill="currentColor"/>
      <circle cx="17.5" cy="10.5" r=".5" fill="currentColor"/>
      <circle cx="6.5" cy="12.5" r=".5" fill="currentColor"/>
      <circle cx="8.5" cy="7.5" r=".5" fill="currentColor"/>
    </symbol>

  <!-- Lock for Secret -->
    <symbol id="icon-lock" viewBox="0 0 24 24" fill="none" stroke="currentColor" stroke-width="1.5" stroke-linecap="round" stroke-linejoin="round">
      <rect width="18" height="11" x="3" y="11" rx="2" ry="2"/>
      <path d="M7 11V7a5 5 0 0 1 10 0v4"/>
    </symbol>

  <!-- Scroll-text for Colophon-->
  <symbol id="icon-scroll-text" viewBox="0 0 24 24" fill="none" stroke="currentColor" stroke-width="1.5" stroke-linecap="round" stroke-linejoin="round">
    <path d="M15 12h-5"/>
    <path d="M15 8h-5"/>
    <path d="M19 17V5a2 2 0 0 0-2-2H4"/>
    <path d="M8 21h12a2 2 0 0 0 2-2v-1a1 1 0 0 0-1-1H11a1 1 0 0 0-1 1v1a2 2 0 1 1-4 0V5a2 2 0 1 0-4 0v2a1 1 0 0 0 1 1h3"/>
  </symbol>

</svg>