<?xml version="1.0" encoding="UTF-8"?>
<svg version="1.1" xmlns="http://www.w3.org/2000/svg" width="1100" height="900">
<g>
  <path d="M0 0 C1.22734863 0.00829834 2.45469727 0.01659668 3.71923828 0.02514648 C23.05377639 0.38300482 39.50553064 5.60664873 54.3125 18.4375 C55.06015625 19.04207031 55.8078125 19.64664063 56.578125 20.26953125 C70.7801168 32.12867746 81.08638285 50.98314338 83.3125 69.4375 C84.4120746 82.94410496 83.68075545 95.57621017 79.3125 108.4375 C78.95027344 109.51257813 78.58804688 110.58765625 78.21484375 111.6953125 C70.87884748 131.14191955 54.2548226 146.03915904 35.71484375 154.6171875 C30.86424223 156.78162337 25.9667801 158.83013479 21.06298828 160.87060547 C16.81196141 162.64164058 12.57589431 164.44740344 8.33984375 166.25390625 C1.56958114 169.14034621 -5.2040528 172.0186617 -11.98046875 174.890625 C-18.31960883 177.57787871 -24.6538012 180.27627052 -30.98170471 182.98988342 C-34.59700736 184.5400879 -38.21376955 186.08687128 -41.83059692 187.6335144 C-43.54540989 188.36793525 -45.25952233 189.1039943 -46.97286987 189.84182739 C-74.34944185 201.62870399 -74.34944185 201.62870399 -84.18359375 201.33203125 C-97.34805332 201.05804349 -106.60140312 206.33537529 -117.81152344 212.78662109 C-121.31546857 214.79796888 -124.85821807 216.73071514 -128.40942383 218.65698242 C-130.15633676 219.60477035 -131.90092405 220.55685576 -133.64331055 221.51293945 C-142.27568317 226.24760307 -150.98039647 230.84236896 -159.6875 235.4375 C-182.84074211 247.65729168 -182.84074211 247.65729168 -205.6875 260.4375 C-205.47134033 261.04932129 -205.25518066 261.66114258 -205.0324707 262.29150391 C-198.24017743 281.67073747 -192.24528465 300.78687279 -191.6875 321.4375 C-190.89577393 321.51266846 -190.10404785 321.58783691 -189.28833008 321.6652832 C-185.69084966 322.01408984 -182.0955488 322.38183632 -178.5 322.75 C-177.25412109 322.86794922 -176.00824219 322.98589844 -174.72460938 323.10742188 C-172.9215332 323.29594727 -172.9215332 323.29594727 -171.08203125 323.48828125 C-169.97706299 323.59825439 -168.87209473 323.70822754 -167.73364258 323.8215332 C-163.35349276 324.70725237 -160.59207048 326.20986864 -157.9375 329.8125 C-155.02164019 338.26849346 -155.6376276 347.58459541 -155.6875 356.4375 C-154.70753052 356.45151855 -154.70753052 356.45151855 -153.70776367 356.46582031 C-119.5090348 357.0629735 -85.34231444 360.31938553 -51.6875 366.4375 C-50.8001416 366.59154297 -49.9127832 366.74558594 -48.99853516 366.90429688 C-21.50491667 371.78954986 1.80861022 389.05443481 17.8125 411.625 C19.35528036 413.87214812 20.8356465 416.14491153 22.3125 418.4375 C23.00601563 419.50484375 23.69953125 420.5721875 24.4140625 421.671875 C31.53848055 432.94991129 37.70070826 444.4974178 42.8125 456.8125 C43.163125 457.63242432 43.51375 458.45234863 43.875 459.29711914 C46.01832451 464.63760538 47.49564166 469.67968181 46.3125 475.4375 C42.85248246 481.12683778 37.56114915 484.28237712 32.0625 487.875 C30.4302989 488.9540229 28.80008353 490.03605559 27.171875 491.12109375 C26.09631348 491.82576782 26.09631348 491.82576782 24.99902344 492.54467773 C24.1124707 493.16930908 23.22591797 493.79394043 22.3125 494.4375 C21.1875563 495.13289131 21.1875563 495.13289131 20.03988647 495.84233093 C15.29303558 498.96394815 15.29303558 498.96394815 12.50878906 503.73262024 C12.22443755 506.43268549 12.22117985 509.00166872 12.3203125 511.71484375 C12.31923492 512.70591125 12.31815735 513.69697876 12.31704712 514.71807861 C12.31859624 516.83806115 12.33974086 518.95810472 12.37878418 521.07772827 C12.47784067 526.64038849 12.42587315 532.20241267 12.3984375 537.765625 C12.39718872 538.8659758 12.39593994 539.9663266 12.39465332 541.10002136 C12.25622499 591.70150232 0.76641969 644.93186827 -21.6875 690.4375 C-22.36122582 691.83697555 -23.03441119 693.23671141 -23.70703125 694.63671875 C-25.63381353 698.60593765 -27.63692588 702.53093899 -29.6875 706.4375 C-30.02716797 707.08638184 -30.36683594 707.73526367 -30.71679688 708.40380859 C-41.06605459 727.97007283 -54.44039547 745.43641778 -69.6875 761.4375 C-70.25919922 762.03788086 -70.83089844 762.63826172 -71.41992188 763.25683594 C-79.95370716 772.15346786 -88.80510683 780.07586956 -98.6875 787.4375 C-99.43515625 788.01886719 -100.1828125 788.60023438 -100.953125 789.19921875 C-102.83591648 790.65723411 -104.75530616 792.04570481 -106.6875 793.4375 C-107.45246556 794.02131309 -108.21743111 794.60512618 -109.00557745 795.20663058 C-116.34907298 800.42363125 -121.89757406 801.44017035 -130.78579712 801.31000805 C-132.0682276 801.31928335 -133.35065809 801.32855864 -134.6719501 801.33811501 C-138.21790318 801.3627745 -141.76248103 801.34414036 -145.30837533 801.3181688 C-149.17107451 801.29764234 -153.03360054 801.31789226 -156.89629555 801.3328746 C-163.66159704 801.35351359 -170.42648995 801.34820454 -177.19178009 801.32577133 C-187.25196217 801.29250452 -197.31183951 801.29937529 -207.3720513 801.31423053 C-225.34007701 801.33947269 -243.30790692 801.32514129 -261.27591449 801.29455353 C-276.99997696 801.26797755 -292.72397408 801.25567148 -308.44805908 801.25739479 C-309.49101205 801.25749411 -310.53396501 801.25759343 -311.60852261 801.25769576 C-315.84219279 801.25812983 -320.07586294 801.25864506 -324.3095331 801.25927297 C-364.02585371 801.26505035 -403.74205821 801.23244176 -443.45834151 801.18088707 C-478.74503604 801.13526984 -514.03163633 801.11698224 -549.31835938 801.1237793 C-551.58410207 801.12420655 -553.84984477 801.12463337 -556.11558747 801.12505975 C-557.23572683 801.12527144 -558.35586619 801.12548314 -559.50994917 801.12570125 C-565.14857003 801.12675638 -570.78719089 801.12776133 -576.42581177 801.12871075 C-578.09442783 801.12899651 -578.09442783 801.12899651 -579.7967533 801.12928804 C-609.28085909 801.1340083 -638.76495423 801.11945551 -668.24905205 801.09854633 C-669.29788198 801.09780591 -670.34671191 801.0970655 -671.42732457 801.09630265 C-672.47424193 801.09556282 -673.52115929 801.094823 -674.59980142 801.09406075 C-676.16730603 801.09295347 -676.16730603 801.09295347 -677.76647739 801.09182382 C-679.87101808 801.09032876 -681.97555876 801.08881695 -684.08009942 801.08728829 C-698.75309794 801.07674753 -713.42608352 801.07315039 -728.09908551 801.07417081 C-747.00797988 801.07541925 -765.91678849 801.06336034 -784.8256526 801.02809789 C-794.82591188 801.00981833 -804.82603713 801.00239763 -814.82631046 801.01073261 C-821.50587901 801.01517845 -828.18532326 801.00506732 -834.86485689 800.98309642 C-838.67076554 800.97097297 -842.47639722 800.96508676 -846.28231359 800.97678419 C-850.38486013 800.98922686 -854.48669385 800.97071803 -858.58920288 800.9492445 C-859.76683787 800.95775162 -860.94447286 800.96625874 -862.15779376 800.97502366 C-875.73550094 800.84225388 -889.07302104 795.22236213 -898.6875 785.4375 C-914.34473464 768.35135268 -924.11439497 748.05024043 -928.6875 725.4375 C-928.91308594 724.3546875 -929.13867188 723.271875 -929.37109375 722.15625 C-932.69378684 702.5409032 -932.2310651 680.81920387 -927.6875 661.4375 C-927.52121094 660.71852539 -927.35492187 659.99955078 -927.18359375 659.25878906 C-924.24869597 647.07896326 -919.80972267 634.53654188 -911.76171875 624.7578125 C-902.75607369 613.67315826 -902.62397641 604.54609014 -902.74169922 590.55419922 C-902.65761848 585.71917781 -902.01176757 581.01909412 -901.25 576.25 C-901.12689453 575.44336914 -901.00378906 574.63673828 -900.87695312 573.80566406 C-899.50441449 565.39437363 -897.29519553 560.45460745 -891.3125 554.375 C-890.15804856 553.17655676 -889.00443886 551.97730226 -887.8515625 550.77734375 C-887.19945801 550.10388916 -886.54735352 549.43043457 -885.87548828 548.73657227 C-883.86851292 546.62770293 -881.90488876 544.48445261 -879.94805908 542.3291626 C-871.37801841 532.91884223 -862.37375645 523.9376638 -853.375 514.93969727 C-851.00149109 512.56433406 -848.63314168 510.18406017 -846.26722527 507.80115032 C-843.99250632 505.51271806 -841.71067731 503.23139798 -839.4296875 500.94921875 C-838.58082977 500.09317551 -837.73197205 499.23713226 -836.85739136 498.35514832 C-836.07542389 497.57625748 -835.29345642 496.79736664 -834.48779297 495.99487305 C-833.80006805 495.30572311 -833.11234314 494.61657318 -832.40377808 493.90653992 C-830.6875 492.4375 -830.6875 492.4375 -828.6875 492.4375 C-828.6875 491.7775 -828.6875 491.1175 -828.6875 490.4375 C-827.18359375 488.95703125 -827.18359375 488.95703125 -825.125 487.25 C-822.3621132 484.90470242 -819.72070243 482.52920595 -817.1875 479.9375 C-814.26619212 476.97034199 -811.20758327 474.23691029 -808.0546875 471.51953125 C-805.05027981 468.87704066 -802.12002231 466.15923941 -799.1875 463.4375 C-795.63836059 460.14693063 -792.08567603 456.86870949 -788.4375 453.6875 C-787.83292969 453.14609375 -787.22835937 452.6046875 -786.60546875 452.046875 C-784.6875 450.4375 -784.6875 450.4375 -782.23828125 448.765625 C-778.68155724 446.15252164 -776.03317151 444.09152737 -775.1027832 439.63964844 C-775.04610474 437.98497559 -775.04610474 437.98497559 -774.98828125 436.296875 C-774.96108002 435.65872864 -774.93387878 435.02058228 -774.90585327 434.36309814 C-774.81338501 432.05488549 -774.75109232 429.74668375 -774.6875 427.4375 C-774.62030759 425.511669 -774.55160857 423.58589018 -774.48168945 421.66015625 C-774.32528094 417.23838855 -774.17989985 412.81641793 -774.04174805 408.39404297 C-773.20177919 381.68674204 -771.99270235 355.06003093 -769.6875 328.4375 C-769.60242188 327.43585815 -769.51734375 326.43421631 -769.4296875 325.40222168 C-768.88519368 319.02439393 -768.30341171 312.65149953 -767.6756897 306.28131104 C-767.47744206 304.24153133 -767.2872902 302.20094627 -767.10580444 300.15960693 C-766.85038873 297.32708167 -766.56073784 294.5000866 -766.26171875 291.671875 C-766.15839233 290.42179153 -766.15839233 290.42179153 -766.05297852 289.14645386 C-765.22722861 281.96444231 -761.89307835 278.31856016 -756.65209961 273.6081543 C-755.75503296 272.9416687 -755.75503296 272.9416687 -754.83984375 272.26171875 C-754.15913818 271.74923584 -753.47843262 271.23675293 -752.77709961 270.70874023 C-751.7118103 269.92478882 -751.7118103 269.92478882 -750.625 269.125 C-749.10399011 267.98461045 -747.58315832 266.84398331 -746.0625 265.703125 C-745.31742188 265.14818359 -744.57234375 264.59324219 -743.8046875 264.02148438 C-740.88607795 261.8379121 -738.00610039 259.6078528 -735.125 257.375 C-732.98076502 255.72701742 -730.83552949 254.08051672 -728.6875 252.4375 C-727.80191406 251.76001709 -727.80191406 251.76001709 -726.8984375 251.06884766 C-711.12246157 239.03471539 -694.78763725 227.81410884 -678.37255859 216.67456055 C-677.51484863 216.09230713 -676.65713867 215.51005371 -675.7734375 214.91015625 C-674.9390918 214.34441895 -674.10474609 213.77868164 -673.24511719 213.19580078 C-669.69527543 210.75536929 -666.19770758 208.24263801 -662.70556641 205.72045898 C-660.6875 204.4375 -660.6875 204.4375 -658.6875 204.4375 C-659.26757812 203.43783203 -659.26757812 203.43783203 -659.859375 202.41796875 C-669.13369975 186.00425045 -670.91038656 172.12217136 -667.6875 153.5 C-667.57524078 152.83174194 -667.46298157 152.16348389 -667.34732056 151.47497559 C-665.19903558 138.77249898 -662.05175931 126.56368196 -657.6875 114.4375 C-657.3687793 113.52887207 -657.05005859 112.62024414 -656.72167969 111.68408203 C-655.77105331 109.02223339 -654.7731275 106.38473706 -653.75 103.75 C-653.46278076 102.9652832 -653.17556152 102.18056641 -652.87963867 101.37207031 C-650.90327888 96.58624724 -648.92504499 94.27859851 -644.12475586 92.2722168 C-639.11011601 90.55479181 -634.05252671 89.07492867 -628.9375 87.6875 C-627.81472656 87.37167969 -626.69195313 87.05585938 -625.53515625 86.73046875 C-617.22686688 84.4375 -617.22686688 84.4375 -612.6875 84.4375 C-613.0175 82.4575 -613.3475 80.4775 -613.6875 78.4375 C-614.409375 78.39625 -615.13125 78.355 -615.875 78.3125 C-618.98397247 77.34526412 -620.61316803 76.10179594 -622.63793945 73.55957031 C-624.95191488 68.88102311 -624.31134326 63.47227595 -624.1875 58.375 C-624.19007813 57.20388672 -624.19265625 56.03277344 -624.1953125 54.82617188 C-624.08378037 45.0503808 -624.08378037 45.0503808 -620.6875 40.4375 C-617.6875 38.4375 -617.6875 38.4375 -614.6875 38.4375 C-614.61273437 37.83164063 -614.53796875 37.22578125 -614.4609375 36.6015625 C-612.88227648 26.54146779 -607.88728252 17.63659621 -599.6875 11.4375 C-587.08088976 3.90831071 -574.50324718 1.48270587 -560.078125 4.08984375 C-552.66585073 6.11690937 -547.29533793 9.23570905 -541.6875 14.4375 C-541.03910156 15.00726563 -540.39070313 15.57703125 -539.72265625 16.1640625 C-535.99503408 19.61585639 -533.72015452 22.74412857 -532 27.54296875 C-529.89776471 30.57744528 -526.93355728 31.74308815 -523.6875 33.4375 C-523.78289062 34.62988281 -523.87828125 35.82226562 -523.9765625 37.05078125 C-524.08911568 38.61714636 -524.20106334 40.18355506 -524.3125 41.75 C-524.37695312 42.53568359 -524.44140625 43.32136719 -524.5078125 44.13085938 C-524.559375 44.88818359 -524.6109375 45.64550781 -524.6640625 46.42578125 C-524.71643066 47.12227783 -524.76879883 47.81877441 -524.82275391 48.53637695 C-524.82105856 50.77260548 -524.82105856 50.77260548 -522.6875 53.4375 C-521.72797575 59.55602477 -522.93620271 65.84000924 -524 71.875 C-524.11754639 72.57326904 -524.23509277 73.27153809 -524.35620117 73.9909668 C-524.87877151 76.73337589 -525.38070255 79.00104411 -527 81.3046875 C-529.0590426 82.68691517 -531.00397655 83.40338417 -533.375 84.125 C-534.18324219 84.37636719 -534.99148438 84.62773437 -535.82421875 84.88671875 C-536.43910156 85.06847656 -537.05398438 85.25023437 -537.6875 85.4375 C-537.6875 87.4175 -537.6875 89.3975 -537.6875 91.4375 C-537.19459473 91.70377197 -536.70168945 91.97004395 -536.19384766 92.24438477 C-509.57529655 106.67803786 -509.57529655 106.67803786 -503.6875 118.4375 C-503.12417969 119.49066406 -502.56085938 120.54382813 -501.98046875 121.62890625 C-498.69207818 127.92628165 -495.90892759 134.23540554 -493.46875 140.8984375 C-493.06317871 141.99321411 -493.06317871 141.99321411 -492.64941406 143.11010742 C-491.9924443 144.88479785 -491.33953774 146.66099158 -490.6875 148.4375 C-459.59183482 153.23552146 -428.48295509 157.93286809 -397.35203552 162.49633026 C-392.25049769 163.24420823 -387.14921263 163.99380019 -382.04797363 164.74371338 C-378.61401654 165.24843257 -375.18005496 165.75312132 -371.74609375 166.2578125 C-370.89452037 166.38297981 -370.04294699 166.50814712 -369.16556835 166.63710737 C-359.51036203 168.05608437 -349.85464351 169.47142737 -340.19775391 170.87890625 C-332.34633336 172.02327643 -324.49594191 173.17443814 -316.64667773 174.33350956 C-312.54171792 174.93940083 -308.43632848 175.54190248 -304.32962799 176.13589096 C-300.51589348 176.68753865 -296.70357977 177.2481169 -292.89216805 177.81558418 C-291.50230396 178.02089436 -290.111952 178.22293392 -288.72109032 178.42137337 C-279.15500617 179.78870134 -271.86447214 181.1980389 -264.4609375 187.64453125 C-262.61940688 188.70684886 -262.61940688 188.70684886 -260.34326172 187.66430664 C-257.80875619 186.49351327 -255.69404046 185.21539326 -253.421875 183.6015625 C-252.62330078 183.03824219 -251.82472656 182.47492188 -251.00195312 181.89453125 C-250.15568359 181.28996094 -249.30941406 180.68539062 -248.4375 180.0625 C-247.54998047 179.43472656 -246.66246094 178.80695313 -245.74804688 178.16015625 C-243.92622422 176.87094651 -242.10590957 175.5796031 -240.28710938 174.28613281 C-237.27236451 172.14228908 -234.25058625 170.00857623 -231.22753906 167.87646484 C-229.85922945 166.91131203 -228.49139625 165.94548346 -227.12402344 164.97900391 C-220.8069142 160.51457929 -214.46828162 156.08116104 -208.12890625 151.6484375 C-202.11795779 147.44355214 -196.12035505 143.22025538 -190.13208008 138.9831543 C-185.43161981 135.66002538 -180.7144242 132.36176759 -175.98901367 129.07421875 C-173.42359363 127.28391161 -170.86745242 125.4809841 -168.3125 123.67578125 C-165.57349488 121.74252987 -162.81886624 119.85745659 -160 118.04296875 C-152.88759809 113.25098796 -149.98040765 108.76193762 -146.4921875 100.984375 C-140.35011772 88.91294782 -128.14140437 80.57802499 -117.6875 72.4375 C-116.4956173 71.50190874 -115.3041901 70.56573681 -114.11328125 69.62890625 C-112.40288113 68.28431004 -110.69171166 66.94079057 -108.97729492 65.60131836 C-103.81911578 61.56590895 -98.74376724 57.43223084 -93.67041016 53.29101562 C-88.61983521 49.17582338 -83.51977016 45.1287161 -78.37890625 41.12695312 C-75.67060702 39.01500689 -73.01541263 36.8659695 -70.4140625 34.625 C-67.6875 32.4375 -67.6875 32.4375 -65.6875 32.4375 C-65.6875 31.7775 -65.6875 31.1175 -65.6875 30.4375 C-63.64099438 28.66648552 -61.5881511 27.01141346 -59.4375 25.375 C-58.80070313 24.88547852 -58.16390625 24.39595703 -57.5078125 23.89160156 C-56.196595 22.88533355 -54.88342759 21.88160146 -53.56835938 20.88037109 C-51.88951031 19.59246897 -50.232224 18.27657002 -48.578125 16.95703125 C-33.68177865 5.26138635 -18.99557955 -0.16639803 0 0 Z " fill="#000000" transform="translate(973.6875,49.5625)"/>
  <path d="M0 0 C11.34747216 -0.1373561 22.58730751 0.26465378 33.91015625 0.98828125 C35.60987745 1.09354236 37.30962071 1.1984477 39.00938416 1.30302429 C42.56366661 1.52274884 46.11772012 1.74578018 49.67163086 1.97143555 C54.09634768 2.25226525 58.52144562 2.52638463 62.94672585 2.7981739 C87.31862187 4.29760941 111.65727565 6.07894723 136 8 C136 21.53 136 35.06 136 49 C130.34875 48.690625 124.6975 48.38125 118.875 48.0625 C117.10237793 47.96718994 115.32975586 47.87187988 113.50341797 47.77368164 C112.08299315 47.69443556 110.66258203 47.61494333 109.2421875 47.53515625 C108.51717041 47.49708862 107.79215332 47.459021 107.04516602 47.4197998 C102.96876726 47.18731877 99.01321265 46.75351242 95 46 C94.8061789 48.97888126 94.61964898 51.95790246 94.4375 54.9375 C94.38142578 55.78763672 94.32535156 56.63777344 94.26757812 57.51367188 C94.21923828 58.32255859 94.17089844 59.13144531 94.12109375 59.96484375 C94.0739624 60.7137085 94.02683105 61.46257324 93.97827148 62.23413086 C93.7947746 64.02755899 93.7947746 64.02755899 95 65 C97.95199591 65.30329116 100.8883938 65.54820466 103.84765625 65.75390625 C104.7340831 65.81907944 105.62050995 65.88425262 106.53379822 65.95140076 C109.37640494 66.15940171 112.21942472 66.36101468 115.0625 66.5625 C116.98505652 66.70205474 118.90758305 66.84202321 120.83007812 66.98242188 C125.55305034 67.32642367 130.27640268 67.66469556 135 68 C135.14256575 78.87747906 135.04997517 89.50580104 133.625 100.3125 C133.42136841 101.96161377 133.42136841 101.96161377 133.21362305 103.64404297 C132.2395956 111.44202264 131.20029248 119.23340158 130 127 C120.59258033 127.09502444 111.30481149 127.06879494 101.92578125 126.22265625 C97.61416942 125.89453626 93.3208251 125.912218 89 126 C86.9398681 132.04305356 85.87628419 136.56677796 86 143 C89.26904686 144.63452343 92.90741188 144.36591609 96.5078125 144.53515625 C97.34843231 144.57813339 98.18905212 144.62111053 99.05514526 144.66539001 C101.74490549 144.80194073 104.43492615 144.93228872 107.125 145.0625 C108.94663509 145.15388908 110.76825002 145.24568084 112.58984375 145.33789062 C117.05967522 145.5632701 121.52975002 145.78308647 126 146 C122.45792301 166.20593919 116.48041823 185.5587453 110 205 C95.48 205 80.96 205 66 205 C59.7018576 215.36021682 59.7018576 215.36021682 60 221 C63.37864884 222.68932442 67.22145734 222.36896964 70.9453125 222.53515625 C71.8303244 222.57813339 72.7153363 222.62111053 73.62716675 222.66539001 C76.45959511 222.80196541 79.29227206 222.93230098 82.125 223.0625 C84.04298834 223.15388669 85.96095742 223.2456784 87.87890625 223.33789062 C92.58572681 223.56329754 97.29277969 223.78310796 102 224 C91.88995776 245.91907035 91.88995776 245.91907035 85.74804688 256.27587891 C83.94209999 259.32869365 82.28016119 262.41140068 80.68139648 265.57666016 C74.49789469 276.86374816 74.49789469 276.86374816 68.55343628 278.79473877 C61.66769621 279.73167142 54.7528192 278.95276416 47.875 278.25 C35.0904382 276.30400438 35.0904382 276.30400438 23.03674316 279.19848633 C19.33136765 282.56623186 16.9529626 286.42125748 15 291 C15 292.32 15 293.64 15 295 C34.305 295.495 34.305 295.495 54 296 C49.88079502 300.80573914 46.34113398 304.67807051 41.4375 308.4375 C40.83252686 308.90631592 40.22755371 309.37513184 39.60424805 309.8581543 C33.67681978 314.37520761 27.47949489 318.31326345 21 322 C20.25805736 322.48803919 19.51611471 322.97607838 18.75168896 323.47890663 C11.08145889 328.21781475 4.8823945 328.83334372 -4.00854492 328.68115234 C-5.37960739 328.67945581 -6.75067529 328.68041787 -8.12173462 328.68380737 C-11.80947163 328.68551474 -15.49601526 328.65047366 -19.18347716 328.60836363 C-23.04977067 328.570616 -26.91609765 328.56731249 -30.782547 328.56021118 C-38.08875591 328.54163231 -45.3944201 328.49249101 -52.70039016 328.43211424 C-61.02447249 328.36483086 -69.34858212 328.33200553 -77.67286909 328.30194163 C-94.78222673 328.23938458 -111.8910556 328.13398688 -129 328 C-125.56867146 324.51142865 -122.13773298 321.51541438 -118.1875 318.625 C-112.70723476 314.5112009 -107.62520917 310.05820816 -102.625 305.375 C-101.97168701 304.7660791 -101.31837402 304.1571582 -100.64526367 303.52978516 C-96.13639337 299.25556659 -92.00657773 294.74575918 -88 290 C-87.51176758 289.42330566 -87.02353516 288.84661133 -86.52050781 288.25244141 C-69.51916042 267.92987313 -55.27365577 244.95853071 -44 221 C-43.61634277 220.19933105 -43.23268555 219.39866211 -42.83740234 218.57373047 C-35.89162076 204.04072175 -30.19107488 189.240311 -25 174 C-24.65727051 173.01757324 -24.31454102 172.03514648 -23.96142578 171.02294922 C-10.02568291 130.95018356 -3.89048282 89.26167526 -2 47 C-1.95723938 46.05926636 -1.91447876 45.11853271 -1.87042236 44.14929199 C-1.20242537 29.43464846 -0.58470354 14.71817262 0 0 Z " fill="#FFA500" transform="translate(470,505)"/>
  <path d="M0 0 C11.38179173 -0.3253305 22.57160465 0.68883664 33.89453125 1.71484375 C35.89698827 1.8922659 37.89948647 2.06922391 39.90202332 2.2457428 C44.07521477 2.61473777 48.24805785 2.98737438 52.4206543 3.36303711 C57.75391441 3.84317543 63.08770293 4.31709117 68.42172718 4.78865719 C73.53784375 5.24117857 78.65370292 5.69657704 83.76953125 6.15234375 C85.21945937 6.28122136 85.21945937 6.28122136 86.69867897 6.41270256 C89.44745585 6.65760135 92.19604361 6.90451891 94.94458008 7.15209961 C95.74631149 7.22331024 96.54804291 7.29452087 97.37406921 7.3678894 C111.66287601 8.66287601 111.66287601 8.66287601 113 10 C114.05640273 19.63804468 114.13429776 29.31563909 114 39 C113.18402344 38.93941406 112.36804688 38.87882813 111.52734375 38.81640625 C103.23150838 38.22964967 94.93235577 37.76671638 86.625 37.375 C85.08187134 37.2968103 85.08187134 37.2968103 83.50756836 37.21704102 C82.54858643 37.17377686 81.58960449 37.1305127 80.6015625 37.0859375 C79.73869629 37.0451709 78.87583008 37.0044043 77.98681641 36.96240234 C75.99853041 36.77026905 75.99853041 36.77026905 75 38 C74.73647641 40.50640219 74.53178929 42.9867599 74.375 45.5 C74.3234375 46.20253906 74.271875 46.90507813 74.21875 47.62890625 C74.10161599 49.41692241 74.04603699 51.20874268 74 53 C76.10086124 55.10086124 80.50148881 54.54101379 83.41015625 54.75390625 C84.67320839 54.85166603 84.67320839 54.85166603 85.96177673 54.95140076 C88.66170982 55.15938149 91.36207592 55.36100442 94.0625 55.5625 C95.88870381 55.70205671 97.7148762 55.84202522 99.54101562 55.98242188 C104.02699258 56.32640111 108.51336798 56.66467765 113 57 C113.07583521 64.85385968 113.08543466 72.62323241 112.25 80.4375 C112.16637207 81.25444336 112.08274414 82.07138672 111.99658203 82.91308594 C110.84894236 93.35366429 108.92966934 103.68034183 107 114 C92.30797153 114.15760221 77.67584006 113.67582558 63 113 C62.65772487 114.5188459 62.32668786 116.04022533 62 117.5625 C61.814375 118.40941406 61.62875 119.25632812 61.4375 120.12890625 C60.82425096 123.66931381 60.82425096 123.66931381 61 130 C74.53 130.99 88.06 131.98 102 133 C100.78192368 139.0903816 99.70862989 144.38241337 97.79296875 150.15234375 C97.58569656 150.77798721 97.37842438 151.40363068 97.16487122 152.04823303 C96.7299631 153.35564773 96.29209945 154.6620829 95.85131836 155.9675293 C95.19071587 157.92795646 94.54301409 159.89231506 93.89648438 161.85742188 C93.46691458 163.1434862 93.03659979 164.42930197 92.60546875 165.71484375 C92.22543701 166.85042725 91.84540527 167.98601074 91.45385742 169.15600586 C89.54517563 174.2025541 87.23264675 179.08817714 85 184 C70.15 184 55.3 184 40 184 C33.7018576 194.36021682 33.7018576 194.36021682 34 200 C47.86 200.99 61.72 201.98 76 203 C74.02 206.63 72.04 210.26 70 214 C69.36835937 215.16789063 68.73671875 216.33578125 68.0859375 217.5390625 C62.74760564 227.1675606 56.60263857 236.19159273 50 245 C49.24879883 246.34408936 49.24879883 246.34408936 48.48242188 247.71533203 C45.13501642 250.79607753 42.95738059 250.51203681 38.53338623 250.41401672 C37.54783752 250.36633652 36.56228882 250.31865631 35.546875 250.26953125 C34.53151672 250.24026047 33.51615845 250.21098969 32.47003174 250.18083191 C29.22872578 250.0819044 25.98997774 249.94765912 22.75 249.8125 C20.5521598 249.7392063 18.35424154 249.66821474 16.15625 249.59960938 C10.76964267 249.42643767 5.38470921 249.22425935 0 249 C-0.28987793 249.60900146 -0.57975586 250.21800293 -0.87841797 250.84545898 C-2.79442481 254.52607726 -5.65225171 257.50310923 -8.3203125 260.66015625 C-10.29158044 262.92612571 -10.29158044 262.92612571 -10 266 C9.305 266.495 9.305 266.495 29 267 C20.5885253 277.09376964 7.93789583 288.03105208 -4 294 C-5.46984187 294.09208771 -6.94381162 294.12193188 -8.41653442 294.12025452 C-9.80899384 294.12231651 -9.80899384 294.12231651 -11.22958374 294.12442017 C-12.25097443 294.12082489 -13.27236511 294.11722961 -14.32470703 294.11352539 C-15.93448425 294.11374443 -15.93448425 294.11374443 -17.57678223 294.1139679 C-21.13714595 294.11326917 -24.69745787 294.10547861 -28.2578125 294.09765625 C-30.72118094 294.09579193 -33.18454976 294.09436809 -35.6479187 294.09336853 C-42.14167295 294.08954446 -48.63540495 294.07971511 -55.12915039 294.06866455 C-61.75146178 294.05844806 -68.37377676 294.0538704 -74.99609375 294.04882812 C-87.99740534 294.03809276 -100.99870149 294.021209 -114 294 C-111.20686116 290.61133006 -108.60119873 287.45518782 -105.21484375 284.640625 C-94.16923448 275.20329788 -83.74816733 264.59953246 -75 253 C-74.49436523 252.34370605 -73.98873047 251.68741211 -73.46777344 251.01123047 C-46.62986816 216.12195361 -28.4299802 175.41640166 -17 133 C-16.78891602 132.21898926 -16.57783203 131.43797852 -16.36035156 130.63330078 C-15.09063986 125.91150212 -13.8380107 121.18545509 -12.62792969 116.44799805 C-12.1788459 114.69723478 -11.72006196 112.94894823 -11.25488281 111.20239258 C-9.36326747 103.95100266 -8.04686873 96.72996803 -7 89.3125 C-6.83266357 88.15057129 -6.66532715 86.98864258 -6.49291992 85.79150391 C-2.42535514 57.15383249 -0.79457549 28.87809253 0 0 Z " fill="#FFA500" transform="translate(855,539)"/>
  <path d="M0 0 C9.77787784 -0.27310533 19.3423678 0.58565851 29.046875 1.609375 C30.69332296 1.77838086 32.33982919 1.94681984 33.98638916 2.11473083 C38.34553636 2.56076974 42.70389506 3.01407482 47.06207275 3.46947861 C54.23509849 4.21808041 61.40909891 4.95734322 68.582901 5.69846153 C71.22326098 5.97150692 73.86352251 6.24549131 76.50378418 6.51948547 C85.85702237 7.48763895 95.2117427 8.41249931 104.578125 9.24609375 C106.41960491 9.41364293 108.26107679 9.58128043 110.10253906 9.74902344 C113.22309192 10.03243465 116.34432635 10.2947889 119.46777344 10.54394531 C131.72587231 11.60998746 143.10813094 15.02562323 154.0625 20.6875 C154.71895508 21.02362305 155.37541016 21.35974609 156.05175781 21.70605469 C173.46644245 30.89504413 187.31263162 43.22560223 196 61 C196.41894531 61.85207031 196.83789062 62.70414062 197.26953125 63.58203125 C204.27058785 79.39340626 203.33986419 96.10280723 203 113 C190.12048664 112.42108502 177.32204874 111.47198701 164.4921875 110.21484375 C162.63128125 110.03579887 160.77033324 109.85718747 158.90934753 109.67897034 C154.9523118 109.29944453 150.99549615 108.917734 147.03884888 108.53417969 C136.48131712 107.51115546 125.92232705 106.50335112 115.36328125 105.49609375 C113.7413086 105.34120798 113.7413086 105.34120798 112.08656883 105.18319321 C84.85188341 102.58456441 57.60314044 100.14490122 30.35193539 97.72662258 C26.7214448 97.40428983 23.0910342 97.08106127 19.4606266 96.75779533 C16.99039163 96.5383769 14.52000898 96.32068576 12.04960632 96.10316467 C10.55658363 95.97053817 9.06356672 95.83784658 7.57055664 95.70507812 C6.29378555 95.59232544 5.01701447 95.47957275 3.70155334 95.36340332 C-0.21123336 94.97926198 -4.10105099 94.50403702 -8 94 C-9.36730727 82.13312335 -9.36730727 82.13312335 -6.27734375 77.3125 C-3.96045849 75.02343326 -1.57212246 72.99651446 1 71 C2.31889426 69.86153251 3.63176316 68.71603439 4.9375 67.5625 C5.89462891 66.72912109 5.89462891 66.72912109 6.87109375 65.87890625 C9.4406532 63.61109323 11.99322825 61.33753821 14.5 59 C15.3559375 58.21625 16.211875 57.4325 17.09375 56.625 C19.6141277 53.15431595 19.43843556 51.21994231 19 47 C16.20800344 31.49707176 9.51745517 16.37857731 1.25 3.0546875 C0 1 0 1 0 0 Z " fill="#FFA500" transform="translate(626,429)"/>
  <path d="M0 0 C13.93682045 11.14945636 22.73467 26.19346554 25.34375 43.875 C26.93749336 61.77545898 22.23480225 78.69032634 10.63598633 92.59106445 C0.41458353 104.1645144 -13.82436226 112.77308637 -29.37988281 114.10888672 C-49.52828239 115.0694738 -65.34773816 112.05408762 -80.90625 98.4375 C-94.11281241 86.05634774 -102.02350738 71.83263721 -103.21875 53.5625 C-103.30253906 52.30824219 -103.38632812 51.05398437 -103.47265625 49.76171875 C-103.53324219 48.80910156 -103.59382812 47.85648438 -103.65625 46.875 C-106.02061533 52.56047384 -107.8062111 57.22870098 -107.53125 63.4375 C-107.81452093 67.16723393 -108.28527214 68.49959066 -110.9453125 71.19140625 C-113.96427752 73.36197599 -117.02374527 75.36029257 -120.18457031 77.31396484 C-124.11724211 79.79771667 -127.93421175 82.44777207 -131.77026367 85.07739258 C-135.03105532 87.31236656 -138.30112386 89.53309129 -141.57421875 91.75 C-146.50525747 95.09276693 -151.43181812 98.44171141 -156.34375 101.8125 C-156.96378906 102.23756836 -157.58382812 102.66263672 -158.22265625 103.10058594 C-161.39762148 105.28676659 -164.54478069 107.50600862 -167.66796875 109.765625 C-168.31741455 110.23492432 -168.96686035 110.70422363 -169.63598633 111.18774414 C-170.8670682 112.0807265 -172.09497179 112.978113 -173.3190918 113.88061523 C-177.43797859 116.875 -177.43797859 116.875 -179.65625 116.875 C-183.00728761 106.82188717 -181.39054451 94.06218776 -177.15234375 84.61328125 C-175.00712784 80.68692002 -172.56235544 77.26421759 -169.65625 73.875 C-169.04136719 73.06546875 -168.42648437 72.2559375 -167.79296875 71.421875 C-165.56343941 68.76437385 -163.25414509 66.76838681 -160.53125 64.625 C-156.80320303 61.63860694 -153.18257476 58.597137 -149.65625 55.375 C-145.40973314 51.50966655 -141.0261189 47.86101754 -136.5625 44.25 C-133.45231968 41.70834727 -130.39732786 39.1089534 -127.34375 36.5 C-122.35476896 32.25078483 -117.26365461 28.15786324 -112.08959961 24.13671875 C-108.30776561 21.19212422 -104.58634073 18.18531461 -100.89013672 15.1340332 C-94.46602504 9.84279773 -87.93231616 4.73233326 -81.21875 -0.1875 C-80.4978418 -0.72358887 -79.77693359 -1.25967773 -79.03417969 -1.81201172 C-55.41382965 -18.8892533 -23.10929123 -16.96631508 0 0 Z " fill="#FFA500" transform="translate(1015.65625,79.125)"/>
  <path d="M0 0 C0.70590271 0.04656738 1.41180542 0.09313477 2.13909912 0.14111328 C11.41137958 0.75753102 20.67527386 1.4634732 29.9375 2.21484375 C36.16375061 2.71947068 42.38742028 3.16614802 48.625 3.50390625 C63.39743293 4.31082303 77.76229799 5.71779454 92.30053711 8.50463867 C95.1982223 9.03637452 98.10368465 9.47920755 101.015625 9.92578125 C106.71657608 10.87050766 112.09341542 12.3370733 117.5625 14.1875 C118.93027588 14.64987061 118.93027588 14.64987061 120.32568359 15.12158203 C127.24732676 17.55411233 133.18095561 20.48145982 139 25 C140.32451172 25.98226563 140.32451172 25.98226563 141.67578125 26.984375 C162.43174397 43.07244794 179.62000392 68.05272723 185 94 C179.07015589 94.06130248 173.26548475 93.8747256 167.36157227 93.3449707 C166.54527879 93.2748773 165.72898531 93.2047839 164.88795567 93.13256645 C162.19711076 92.90060156 159.50677552 92.66319375 156.81640625 92.42578125 C154.90032905 92.25960783 152.98422113 92.09378822 151.06808472 91.92829895 C145.95418065 91.48566275 140.84069689 91.03834618 135.72730637 90.58982086 C130.44932359 90.12732978 125.1710664 89.66799317 119.89282227 89.20849609 C117.77854852 89.02442178 115.66427545 88.84033976 113.55000305 88.65625 C112.50610224 88.56536102 111.46220142 88.47447205 110.38666725 88.38082886 C107.2276038 88.10555949 104.068594 87.8296808 100.90959167 87.55371094 C89.35277962 86.54514692 77.79466505 85.55619104 66.23314857 84.60305595 C64.12851742 84.42929667 62.02398045 84.25444403 59.91947937 84.07911682 C58.92133571 83.99596615 58.92133571 83.99596615 57.90302753 83.91113567 C57.25238929 83.85691354 56.60175104 83.8026914 55.93139648 83.74682617 C52.21543397 83.43719489 48.49937385 83.12996935 44.78250122 82.83145142 C41.45722286 82.56410812 38.13288717 82.28709398 34.80859375 82.0078125 C33.85580536 81.9341597 32.90301697 81.8605069 31.9213562 81.78462219 C31.05713043 81.71019394 30.19290466 81.63576569 29.30249023 81.55908203 C28.56151596 81.49882843 27.82054169 81.43857483 27.05711365 81.37649536 C24.68720632 80.94275213 23.02653758 80.30697716 21 79 C19.93791224 76.45996477 19.09826417 74.06116801 18.3125 71.4375 C14.07425597 58.46004962 7.97435772 46.36027119 -1 36 C-1.41636719 35.4534375 -1.83273437 34.906875 -2.26171875 34.34375 C-6.86513421 28.34860429 -13.04456427 24.43402612 -19.4375 20.5625 C-20.28183594 20.04816406 -21.12617188 19.53382813 -21.99609375 19.00390625 C-29.08811462 16.63375103 -36.73741094 19.54817821 -43.625 21.6875 C-44.50615479 21.95804199 -45.38730957 22.22858398 -46.29516602 22.50732422 C-53.21423641 24.67256109 -59.92912716 27.17745199 -66.60839844 30.00097656 C-69.50270844 31.20999213 -72.4112232 32.38168136 -75.3203125 33.5546875 C-111.93516825 48.39506731 -147.31805348 65.85013593 -181.7421875 85.23046875 C-182.66725098 85.74786621 -183.59231445 86.26526367 -184.54541016 86.79833984 C-186.31220279 87.78747578 -188.0751017 88.78360797 -189.83349609 89.78759766 C-190.61547363 90.22507324 -191.39745117 90.66254883 -192.203125 91.11328125 C-192.89051758 91.50298096 -193.57791016 91.89268066 -194.28613281 92.29418945 C-194.85170898 92.52710693 -195.41728516 92.76002441 -196 93 C-196.66 92.67 -197.32 92.34 -198 92 C-179.67051006 78.4302278 -160.64808267 65.96344688 -141.08251953 54.25 C-139.06840452 53.04105875 -137.06317679 51.81841166 -135.05859375 50.59375 C-122.06633936 42.72732096 -108.55539227 35.83611601 -95 29 C-94.00661621 28.49791016 -93.01323242 27.99582031 -91.98974609 27.47851562 C-77.42719517 20.17107094 -62.5301096 13.93909373 -47.27099609 8.23388672 C-44.28676687 7.10817434 -41.32528834 5.93647682 -38.36328125 4.75390625 C-25.31111152 -0.27429892 -13.86820834 -0.92810742 0 0 Z " fill="#FFA500" transform="translate(443,381)"/>
  <path d="M0 0 C1.55464307 0.22529577 3.10942111 0.44966185 4.6643219 0.673172 C8.80255348 1.27069581 12.93876976 1.88120323 17.07471466 2.49432755 C21.44954127 3.14041584 25.82620004 3.77386306 30.20263672 4.40893555 C44.86864981 6.54100157 59.52879714 8.71282013 74.1875 10.89453125 C75.19864365 11.0449588 76.20978729 11.19538635 77.25157166 11.35037231 C82.2432429 12.09366828 87.2342248 12.84122172 92.22436523 13.59472656 C106.92680317 15.80216654 121.64719018 17.85674631 136.37685013 19.87343407 C143.21126682 20.8108386 150.04450167 21.75683804 156.8778286 22.70214939 C163.7338529 23.64924826 170.59175995 24.58095879 177.45131302 25.50212955 C181.75995725 26.08430329 186.06658257 26.68047503 190.37280273 27.2802906 C192.40638296 27.56050526 194.44079482 27.83475405 196.47601318 28.10281181 C199.28799198 28.47395556 202.0963458 28.86577842 204.90478516 29.26269531 C205.73141977 29.36667539 206.55805439 29.47065546 207.40973854 29.57778645 C212.04910476 30.25945292 214.69187462 31.09791125 217.58984375 34.875 C216.39463479 35.74102833 215.19929267 36.60687288 214.00390625 37.47265625 C213.24287598 38.02421387 212.4818457 38.57577148 211.69775391 39.14404297 C210.03648528 40.34401144 208.37206364 41.53962631 206.70458984 42.73095703 C203.26099776 45.19394592 199.86641512 47.64848517 196.58984375 50.33203125 C191.03592246 54.81718808 191.03592246 54.81718808 187.01773071 54.97782898 C186.08713837 54.87130508 185.15654602 54.76478119 184.19775391 54.6550293 C183.13743958 54.53920502 182.07712524 54.42338074 180.98468018 54.30404663 C179.86438416 54.16246124 178.74408813 54.02087585 177.58984375 53.875 C176.4787323 53.74042389 175.36762085 53.60584778 174.22283936 53.4671936 C170.5580011 53.00721632 166.8982164 52.5169814 163.23828125 52.01953125 C161.86651047 51.83516006 160.49470891 51.65101773 159.12287903 51.46708679 C155.48515122 50.97844658 151.84797538 50.4858141 148.21093369 49.99209595 C145.95662927 49.68638602 143.70217326 49.38181987 141.44766235 49.07763672 C80.05725368 40.79371122 80.05725368 40.79371122 65.28198242 38.3215332 C57.39862224 37.01395492 51.35051572 37.45575341 44.58984375 41.875 C43.72359375 42.390625 42.85734375 42.90625 41.96484375 43.4375 C39.4951963 47.81551139 41.41719356 52.21183561 42.58984375 56.875 C43.24040592 59.1811249 43.8914794 61.48710561 44.54296875 63.79296875 C46.6608807 71.57273793 47.87989864 79.36822988 48.83984375 87.375 C48.96691711 88.39968384 48.96691711 88.39968384 49.09655762 89.44506836 C50.63213547 101.94625632 51.04324689 114.28046838 50.58984375 126.875 C44.76170353 126.98380524 39.18732833 126.59393256 33.41015625 125.8515625 C32.55735077 125.74532562 31.70454529 125.63908875 30.82589722 125.52963257 C29.03223219 125.3050118 27.23886824 125.07797489 25.44580078 124.84863281 C22.73026552 124.50196874 20.01370537 124.16447106 17.296875 123.828125 C-6.42927231 120.85588394 -6.42927231 120.85588394 -8.41015625 118.875 C-8.63886842 117.09663455 -8.80791949 115.3105604 -8.953125 113.5234375 C-11.97081189 79.20871633 -18.73111272 45.20700131 -32.02294922 13.29052734 C-33.76582512 9.03998053 -35.12663506 5.55645866 -34.41015625 0.875 C-29.14555635 -6.93224263 -7.92417547 -1.18930606 0 0 Z " fill="#FFA500" transform="translate(480.41015625,216.125)"/>
  <path d="M0 0 C10.53482584 12.88182502 15.9609841 32.89212909 19 49 C19.17515137 49.92151855 19.35030273 50.84303711 19.53076172 51.79248047 C21.04702677 60.5695045 21.40101783 69.2407265 21.375 78.125 C21.37412384 78.86133667 21.37324768 79.59767334 21.37234497 80.35632324 C21.20719717 122.81930739 8.18868757 163.9270029 -21.5625 194.9375 C-35.63784495 208.4138941 -52.12700997 215.55053655 -71.515625 215.41967773 C-87.62830121 214.94942226 -101.95460603 207.66986854 -113 196 C-123.76427728 183.59545189 -131.73712734 169.55979742 -137 154 C-137.31211426 153.13793945 -137.62422852 152.27587891 -137.94580078 151.38769531 C-142.00689672 139.85954477 -143.52294526 128.08847651 -145 116 C-145.11520996 115.13536133 -145.23041992 114.27072266 -145.34912109 113.37988281 C-145.91773116 108.75184099 -146.23839758 104.56133769 -145 100 C-141.80533303 96.341507 -138.40718054 94.01168601 -134 92 C-133.34 92 -132.68 92 -132 92 C-131.67 99.92 -131.34 107.84 -131 116 C-122.42 116 -113.84 116 -105 116 C-104.34 118.578125 -103.68 121.15625 -103 123.8125 C-102.79117188 124.62050049 -102.58234375 125.42850098 -102.3671875 126.26098633 C-101.61157242 129.24858939 -101 131.90670398 -101 135 C-109.58 135 -118.16 135 -127 135 C-126.34 138.3 -125.68 141.6 -125 145 C-115.76 145 -106.52 145 -97 145 C-95.535625 147.743125 -94.07125 150.48625 -92.5625 153.3125 C-85.85274248 165.50737466 -78.70918407 174.18158418 -67 182 C-65.6599405 182.99096837 -64.32401732 183.98769771 -63 185 C-72.12174629 187.86172432 -81.63749095 187.74186215 -91 186 C-89.58521865 186.64995297 -88.16808513 187.29478722 -86.75 187.9375 C-85.96109375 188.29714844 -85.1721875 188.65679688 -84.359375 189.02734375 C-73.00185989 193.70949816 -59.84490183 191.30798552 -48.81005859 186.83007812 C-43.97037992 184.61064091 -39.97582981 181.49391105 -36 178 C-35.22269531 177.32066406 -34.44539063 176.64132812 -33.64453125 175.94140625 C-11.56236149 155.22749486 0.24540477 121.21230988 1.30859375 91.53125 C1.84905068 61.65452729 -2.89323576 36.90692308 -18 11 C-15.5687312 9.15785783 -13.13068302 7.32621761 -10.6875 5.5 C-9.99720703 4.97535156 -9.30691406 4.45070313 -8.59570312 3.91015625 C-7.92861328 3.41386719 -7.26152344 2.91757812 -6.57421875 2.40625 C-5.65515747 1.71499023 -5.65515747 1.71499023 -4.7175293 1.00976562 C-3 0 -3 0 0 0 Z " fill="#FFA500" transform="translate(420,477)"/>
  <path d="M0 0 C23.37229908 1.79242657 46.59339408 4.70100008 69.8125 7.875 C87.19662347 10.2459973 104.63197196 12.17963575 122.06271362 14.17163086 C123.16865875 14.29803955 124.27460388 14.42444824 125.4140625 14.5546875 C126.50897003 14.67980713 127.60387756 14.80492676 128.73196411 14.93383789 C141.55200474 16.4019063 154.36037279 17.9595389 167.16796875 19.53222656 C171.20501179 20.02502565 175.2429672 20.50968254 179.28125 20.9921875 C192.13818764 22.53104948 204.98330692 24.11614448 217.8125 25.875 C231.78967979 27.78194022 245.79772632 29.39639451 259.8125 31 C260.93959381 31.12900696 262.06668762 31.25801392 263.22793579 31.39093018 C267.69753713 31.9023725 272.16715484 32.41367158 276.63679504 32.92477417 C285.40943706 33.92920974 294.18008494 34.94900796 302.9468689 36.00341797 C304.9159252 36.23990258 306.88532393 36.47353071 308.85473633 36.70703125 C316.27814308 37.60542787 323.63257491 38.71968527 331 40 C331 44.29 331 48.58 331 53 C329.34871094 53.02578125 327.69742187 53.0515625 325.99609375 53.078125 C323.80987001 53.13442261 321.62367311 53.19176956 319.4375 53.25 C317.80844727 53.27126953 317.80844727 53.27126953 316.14648438 53.29296875 C308.86717575 53.51422433 303.77246763 54.02116105 298.54956055 59.52978516 C297.16135683 61.20247891 295.88435869 62.91615905 294.625 64.6875 C293.76318586 65.85819442 292.90121492 67.02877343 292.0390625 68.19921875 C291.36617187 69.12347656 290.69328125 70.04773438 290 71 C289.67 71.33 289.34 71.66 289 72 C286.60425451 71.99266325 284.25665836 71.90522504 281.8671875 71.76171875 C281.07964081 71.71569016 280.29209412 71.66966156 279.48068237 71.62223816 C266.32743278 70.77373857 253.22696191 69.22615001 240.125 67.8125 C234.16439141 67.1700826 228.20351195 66.53027326 222.2421875 65.89453125 C221.48890167 65.81400639 220.73561584 65.73348152 219.95950317 65.65051651 C209.5264892 64.53851861 199.08886794 63.53565895 188.63563156 62.63403893 C184.48667086 62.27366447 180.33905696 61.89798508 176.19134712 61.52352238 C172.91092441 61.22939359 169.63020743 60.9512557 166.34674072 60.69302368 C162.71250593 60.40651028 159.08342896 60.08216215 155.453125 59.75 C154.38949738 59.67710251 153.32586975 59.60420502 152.23001099 59.52909851 C145.94334806 58.90957986 142.60887069 57.66396646 138.50701904 52.7653656 C135.82113411 49.61904247 132.37933787 47.41003586 129 45.0625 C128.2587085 44.54671387 127.51741699 44.03092773 126.75366211 43.49951172 C108.70643809 31.15232294 90.05175412 24.98521741 68.55566406 21.42480469 C66.20760058 21.03450755 63.86592296 20.61752283 61.5234375 20.1953125 C46.15306263 17.55392238 30.56608151 16.65151123 15.03103638 15.47956848 C10.00429832 15.09435354 5.00385319 14.61177444 0 14 C0 9.38 0 4.76 0 0 Z " fill="#FFA500" transform="translate(468,352)"/>
  <path d="M0 0 C40.66508069 -0.89922783 95.82274281 -1.04190422 133 17 C133.8971875 17.40476562 134.794375 17.80953125 135.71875 18.2265625 C159.07219678 29.70196307 173.64425704 52.92179653 185.75 74.9375 C186.5385437 76.36787598 186.5385437 76.36787598 187.34301758 77.82714844 C187.82279053 78.71821289 188.30256348 79.60927734 188.796875 80.52734375 C189.22323242 81.31874756 189.64958984 82.11015137 190.08886719 82.92553711 C191 85 191 85 191 88 C180.51230799 87.02660206 170.02466879 86.05263707 159.53708839 85.07803726 C154.66195623 84.62501242 149.78680911 84.17215005 144.91162109 83.71972656 C134.49604502 82.7530468 124.08071245 81.78382917 113.66585159 80.80947113 C108.75834067 80.35048395 103.85068757 79.89311436 98.94274902 79.4387207 C94.00970407 78.98198243 89.07698672 78.52184962 84.14448166 78.05931854 C82.28463571 77.88552581 80.42467397 77.71296747 78.56459427 77.54169464 C76.00156458 77.30549837 73.43898337 77.06491201 70.87646484 76.82324219 C70.11820782 76.75441078 69.35995079 76.68557938 68.57871628 76.61466217 C65.54955073 76.3250847 62.89895032 75.96631677 60 75 C59.1424482 72.13644365 58.44905809 69.35077204 57.8125 66.4375 C52.36158986 43.75571676 38.80867257 23.62153939 19 11 C12.79999205 7.41567854 6.41991923 4.16970135 0 1 C0 0.67 0 0.34 0 0 Z " fill="#FFA500" transform="translate(808,423)"/>
  <path d="M0 0 C11.2494176 6.56064581 17.29611882 19.07507191 20.5625 31.3125 C24.79992494 52.99969349 19.85070731 77.64764027 7.625 96 C-0.02807534 105.6397969 -8.41972952 114.92684775 -21.15625 116.453125 C-28.64160216 116.89726183 -34.99013172 116.39056418 -41.265625 111.89453125 C-51.75705513 102.47167271 -57.67137242 89.28455474 -58.54345703 75.29833984 C-59.0152856 63.27362089 -59.00152988 51.56687556 -55.375 40 C-55.0346875 38.90816406 -54.694375 37.81632813 -54.34375 36.69140625 C-49.34158709 22.34398629 -40.17541489 8.84909119 -26.8671875 1.19140625 C-18.31650248 -2.89630367 -8.81403198 -4.00270259 0 0 Z " fill="#FFA500" transform="translate(325.375,715)"/>
  <path d="M0 0 C0.08636719 1.13695312 0.17273438 2.27390625 0.26171875 3.4453125 C1.06767094 12.68964444 2.47701427 20.62961618 5.9765625 29.27734375 C7 32 7 32 7 35 C4.67355255 36.58947886 2.39786811 37.95691016 -0.0625 39.3125 C-1.63523858 40.20766351 -3.20679193 41.10491163 -4.77734375 42.00390625 C-5.62409668 42.48617676 -6.47084961 42.96844727 -7.34326172 43.46533203 C-11.98559704 46.14698245 -16.55231428 48.95177773 -21.125 51.75 C-23.08981566 52.94926478 -25.05465976 54.14848295 -27.01953125 55.34765625 C-28.00518066 55.94980957 -28.99083008 56.55196289 -30.00634766 57.17236328 C-34.93817068 60.18326095 -39.87575687 63.18467915 -44.8125 66.1875 C-52.27048408 70.72605527 -59.72365448 75.27236932 -67.17114258 79.828125 C-71.21501094 82.3009458 -75.26194721 84.76861018 -79.3125 87.23046875 C-89.62357461 93.49758058 -99.9174866 99.79078206 -110.1875 106.125 C-118.62265308 111.32563468 -127.08380493 116.47742041 -135.59008789 121.56079102 C-141.95323995 125.36503819 -148.29317768 129.2063481 -154.625 133.0625 C-156.06238525 133.93696777 -156.06238525 133.93696777 -157.52880859 134.82910156 C-162.15779929 137.64798259 -166.77932294 140.47797487 -171.38671875 143.33203125 C-172.22058105 143.84693115 -173.05444336 144.36183105 -173.91357422 144.89233398 C-175.47615372 145.85809272 -177.03649846 146.82747967 -178.59423828 147.80102539 C-183.77654068 151 -183.77654068 151 -186 151 C-187.79710961 144.93107246 -188.28943047 137.57918145 -186.12890625 131.58203125 C-181.1113731 123.07690129 -172.01479389 117.77150042 -164.0625 112.3125 C-163.03833984 111.60480469 -162.01417969 110.89710938 -160.95898438 110.16796875 C-157.97550087 108.10781065 -154.98847145 106.05291372 -152 104 C-150.58202915 103.02474264 -149.16406012 102.04948263 -147.74609375 101.07421875 C-145.87549983 99.78833551 -144.00448895 98.50307772 -142.13232422 97.21948242 C-136.29778015 93.2160944 -130.49289793 89.17049383 -124.6875 85.125 C-117.64591296 80.21890079 -110.59008038 75.33575967 -103.5 70.5 C-93.61209652 63.75410589 -83.78990499 56.91497974 -73.97021484 50.0703125 C-49.5691952 33.06220412 -49.5691952 33.06220412 -38.15478516 25.23461914 C-32.06610305 21.05480847 -26.00083119 16.84147638 -19.9375 12.625 C-18.96103516 11.94630859 -17.98457031 11.26761719 -16.97851562 10.56835938 C-16.04587891 9.91931641 -15.11324219 9.27027344 -14.15234375 8.6015625 C-12.82372314 7.67778809 -12.82372314 7.67778809 -11.46826172 6.73535156 C-9.27175666 5.19106294 -7.10496113 3.61328444 -4.94140625 2.0234375 C-2 0 -2 0 0 0 Z " fill="#FFA500" transform="translate(826,180)"/>
  <path d="M0 0 C2.46875 1.71875 2.46875 1.71875 4.46875 4.71875 C2.58072917 4.19791667 0.69270833 3.67708333 -1.1953125 3.15625 C-4.15039303 2.6027901 -6.52780935 2.37428322 -9.53125 2.71875 C-12.13500733 4.63337719 -12.13500733 4.63337719 -14.40625 7.28125 C-17.90506694 11.07452183 -21.51988351 14.50818511 -25.42089844 17.87329102 C-28.94418678 20.95433412 -32.32393404 24.1851425 -35.71875 27.40625 C-37.21050762 28.81555934 -38.70269958 30.22440905 -40.1953125 31.6328125 C-40.9265332 32.3227832 -41.65775391 33.01275391 -42.41113281 33.72363281 C-45.45827587 36.59111935 -48.52218411 39.43997143 -51.59375 42.28125 C-52.11686768 42.76964355 -52.63998535 43.25803711 -53.17895508 43.76123047 C-56.14659216 46.51488504 -59.21722253 49.0417156 -62.40625 51.53125 C-65.19935815 53.97595776 -65.48971516 54.26186675 -65.84375 58.15625 C-64.26577529 62.43932421 -62.15010187 65.99824089 -59.53125 69.71875 C-55.72564766 69.13808397 -53.004673 68.05453266 -49.70703125 66.0859375 C-48.7742334 65.53478271 -47.84143555 64.98362793 -46.88037109 64.41577148 C-45.87828613 63.81450439 -44.87620117 63.2132373 -43.84375 62.59375 C-41.67622916 61.31044109 -39.50824435 60.02791558 -37.33984375 58.74609375 C-35.65737549 57.74811768 -35.65737549 57.74811768 -33.94091797 56.72998047 C-27.37922584 52.85949359 -20.76416691 49.08118337 -14.1550293 45.29248047 C-8.77993153 42.20209352 -3.43644771 39.07229999 1.859375 35.84765625 C3.37313721 34.93125366 3.37313721 34.93125366 4.91748047 33.99633789 C6.82404097 32.83818112 8.72447829 31.66986451 10.61767578 30.48999023 C11.46313965 29.97766846 12.30860352 29.46534668 13.1796875 28.9375 C14.28256104 28.2559082 14.28256104 28.2559082 15.40771484 27.56054688 C17.46875 26.71875 17.46875 26.71875 19.62744141 26.88867188 C22.20598028 28.0510999 22.84531227 29.93704235 23.953125 32.44140625 C24.73279416 35.88494503 24.54214037 39.19234269 24.46875 42.71875 C3.9642825 53.1122856 -16.78677564 63.00124885 -37.68261719 72.58081055 C-38.79797852 73.09426025 -39.91333984 73.60770996 -41.0625 74.13671875 C-42.54073242 74.81383911 -42.54073242 74.81383911 -44.04882812 75.50463867 C-46.68785311 76.72728901 -46.68785311 76.72728901 -49.53125 78.71875 C-44.32290875 82.05743029 -40.39001119 81.79634821 -34.53125 80.71875 C-30.51170639 79.72869727 -26.56081271 78.54643207 -22.6015625 77.33984375 C-21.48941376 77.00831802 -20.37726501 76.6767923 -19.23141479 76.33522034 C-15.70414053 75.28281443 -12.18003503 74.22027505 -8.65625 73.15625 C-5.11068244 72.08993737 -1.56448301 71.02587272 1.98318481 69.96656799 C4.18475527 69.30879013 6.38506147 68.64676296 8.58395386 67.98008728 C9.57573639 67.68300369 10.56751892 67.3859201 11.58935547 67.07983398 C12.46155731 66.8163768 13.33375916 66.55291962 14.23239136 66.28147888 C16.46875 65.71875 16.46875 65.71875 19.46875 65.71875 C14.69893704 78.81280385 3.28928281 86.68118586 -8.76953125 92.58984375 C-18.8184699 96.69754286 -34.61133164 96.62537871 -44.78125 93.09375 C-46.38988727 92.35485441 -47.97577048 91.56383225 -49.53125 90.71875 C-50.36269531 90.30625 -51.19414063 89.89375 -52.05078125 89.46875 C-62.46293376 83.83883036 -70.29242575 75.2618838 -75.53125 64.71875 C-75.94375 63.97109375 -76.35625 63.2234375 -76.78125 62.453125 C-81.58476167 52.11223182 -81.18741164 37.85636699 -78.6484375 26.9140625 C-77.49296792 23.96799768 -76.19802187 21.40573739 -74.53125 18.71875 C-73.98855469 17.831875 -73.44585938 16.945 -72.88671875 16.03125 C-64.75969442 3.7031228 -54.78123303 -3.83816555 -40.38671875 -7.58984375 C-25.25314296 -10.30376768 -13.1833467 -7.74691507 0 0 Z " fill="#030303" transform="translate(1008.53125,84.28125)"/>
  <path d="M0 0 C11.40920571 11.40920571 13.33427087 24.39234398 13.38720703 39.72265625 C13.16896484 57.4959081 7.66289458 71.79028147 -4.6640625 84.79296875 C-10.42962445 90.24036424 -15.06659758 92.28402335 -23.0625 92.625 C-29.33825982 92.37505047 -33.37389237 91.25775245 -38 87 C-38.54011719 86.50371094 -39.08023438 86.00742187 -39.63671875 85.49609375 C-44.16225342 80.76537111 -46.63093561 75.03424733 -49 69 C-49.36996094 68.13632812 -49.73992187 67.27265625 -50.12109375 66.3828125 C-54.44475545 49.74151902 -51.03839767 30.36322074 -43.15234375 15.44140625 C-37.49880834 5.94722682 -30.13013841 -1.28995386 -19.5625 -4.8125 C-12.46985861 -5.33147376 -5.81095725 -4.28988869 0 0 Z " fill="#FFA500" transform="translate(233,740)"/>
  <path d="M0 0 C5.95914362 -0.10329329 11.56626785 0.192747 17.44921875 1.1015625 C18.2447113 1.21851471 19.04020386 1.33546692 19.85980225 1.45596313 C22.46986764 1.84022887 25.07862948 2.23271186 27.6875 2.625 C31.43159849 3.17925864 35.17653747 3.72761816 38.921875 4.2734375 C39.89277573 4.41515381 40.86367645 4.55687012 41.86399841 4.70288086 C49.19731249 5.7633082 56.5398307 6.73312726 63.890625 7.6640625 C64.94389481 7.79797394 65.99716461 7.93188538 67.08235168 8.06985474 C71.22402376 8.59506264 75.36581589 9.11856654 79.50961304 9.62677002 C82.38097177 9.97898036 85.25105215 10.34036346 88.12109375 10.703125 C89.40726593 10.85595444 89.40726593 10.85595444 90.71942139 11.01187134 C94.46666503 11.49211375 96.80903816 11.87269211 100 14 C97.77252265 15.60655674 95.54310558 17.21029679 93.3125 18.8125 C92.37374023 19.49022461 92.37374023 19.49022461 91.41601562 20.18164062 C88.72348227 22.11293418 86.14485255 23.92279948 83.21484375 25.484375 C70.42054992 34.23955314 66.31130404 67.92915293 62 82 C58.59240367 82.8039636 55.78007404 83.05863194 52.30493164 82.67041016 C51.40372086 82.57345856 50.50251007 82.47650696 49.57398987 82.37661743 C48.61242477 82.2652243 47.65085968 82.15383118 46.66015625 82.0390625 C45.66044296 81.929039 44.66072968 81.8190155 43.63072205 81.70565796 C40.44047383 81.35257065 37.25155146 80.98872074 34.0625 80.625 C31.91999533 80.38735762 29.7774178 80.15037119 27.63476562 79.9140625 C10.70960577 78.0305461 10.70960577 78.0305461 5 77 C5.4125 75.783125 5.825 74.56625 6.25 73.3125 C7.57562774 69.32299175 8.86476921 65.32316151 10.125 61.3125 C10.45757813 60.25675781 10.79015625 59.20101562 11.1328125 58.11328125 C15.56288242 42.20893114 13.8720083 26.03937561 6.14453125 11.51171875 C4.9478078 9.45138044 3.72089115 7.40802679 2.453125 5.390625 C1 3 1 3 0 0 Z " fill="#FFA500" transform="translate(551,270)"/>
  <path d="M0 0 C14.64695132 8.57382516 21.60280583 25.30701962 26 41 C32.51804912 68.07017531 28.0046913 99.66427389 14.0703125 123.6953125 C5.59201487 137.22859514 -5.17643352 148.91318146 -21 153 C-32.29098532 154.63749655 -42.49209521 153.64067725 -52 147 C-52.721875 146.51660156 -53.44375 146.03320312 -54.1875 145.53515625 C-60.81388836 140.44888549 -64.81957454 133.0834987 -69 126 C-69.4228125 125.31164062 -69.845625 124.62328125 -70.28125 123.9140625 C-79.83804073 106.88139515 -79.43720423 86.86266724 -79 68 C-78.97244629 66.77337646 -78.97244629 66.77337646 -78.94433594 65.52197266 C-78.58471164 55.60499132 -78.58471164 55.60499132 -74.86328125 51.8359375 C-72.62779148 50.29881894 -70.48635213 49.07434969 -68 48 C-66.53125909 51.91015792 -67.5059364 54.89204806 -68.4375 58.875 C-70.65301746 69.18544138 -70.26030254 79.51077178 -70 90 C-64.39 90 -58.78 90 -53 90 C-52.01 93.96 -51.02 97.92 -50 102 C-58.415 102.495 -58.415 102.495 -67 103 C-66.67 104.32 -66.34 105.64 -66 107 C-64.68644531 107.02835938 -63.37289062 107.05671875 -62.01953125 107.0859375 C-48.32071319 107.71186607 -48.32071319 107.71186607 -44.94140625 111.0078125 C-43.875 113.5 -43.875 113.5 -43.01953125 116.1953125 C-40.34629515 123.54927235 -33.49789682 129.00129427 -27 133 C-27 133.66 -27 134.32 -27 135 C-33.435 135.99 -33.435 135.99 -40 137 C-30.19862682 139.4503433 -21.44628908 138.14208985 -12.75 133.125 C-9.88689948 130.91260415 -7.46772652 128.64829187 -5 126 C-4.47664063 125.49339844 -3.95328125 124.98679687 -3.4140625 124.46484375 C13.34210749 107.21584523 15.53258495 82.48958718 15.2734375 59.73828125 C14.80122406 42.88119668 8.93501385 27.26282264 -2.84375 15 C-5.42692607 12.6040106 -7.93547195 10.72870813 -11 9 C-7.56638098 5.36440339 -4.2026393 2.63886654 0 0 Z " fill="#FFA500" transform="translate(140,672)"/>
  <path d="M0 0 C1.21759291 1.47531674 2.43336212 2.95237117 3.625 4.44873047 C11.50656233 13.34067774 25.87981471 19.67805187 37.390625 20.47265625 C39.34319084 20.54166823 41.29648752 20.59236569 43.25 20.625 C44.63445312 20.65992554 44.63445312 20.65992554 46.046875 20.69555664 C52.72429279 20.61820509 57.6605083 19.08726569 63 15 C65.02294281 12.68227639 65.02294281 12.68227639 66.0625 10.1875 C66.44535156 9.39730469 66.82820313 8.60710937 67.22265625 7.79296875 C67.47917969 7.20128906 67.73570312 6.60960937 68 6 C69.41805831 6.28482368 70.83440379 6.57818144 72.25 6.875 C73.43335938 7.11863281 73.43335938 7.11863281 74.640625 7.3671875 C76.96831144 7.99150075 78.89031952 8.84838542 81 10 C81.04898438 11.05316406 81.09796875 12.10632813 81.1484375 13.19140625 C81.63789807 22.8867949 82.56036014 32.39774187 84 42 C82.82566406 42.02578125 81.65132813 42.0515625 80.44140625 42.078125 C54.8266032 42.86189556 34.57620352 52.48630334 12.11328125 64.03515625 C10.82527774 64.69352418 9.53727319 65.35189009 8.24926758 66.01025391 C5.78326978 67.27193831 3.33138323 68.55675494 0.88549805 69.85693359 C-0.22140381 70.42879395 -1.32830566 71.0006543 -2.46875 71.58984375 C-3.44263672 72.10409912 -4.41652344 72.61835449 -5.41992188 73.14819336 C-8 74 -8 74 -10.17089844 73.40234375 C-12.28997148 71.77768337 -13.4117256 70.25409372 -14.796875 67.97265625 C-15.28027344 67.18052734 -15.76367188 66.38839844 -16.26171875 65.57226562 C-16.75285156 64.74404297 -17.24398438 63.91582031 -17.75 63.0625 C-18.25660156 62.23814453 -18.76320313 61.41378906 -19.28515625 60.56445312 C-23 54.4014172 -23 54.4014172 -23 51 C-19.37 53.31 -15.74 55.62 -12 58 C-11.70356651 46.64769521 -11.77156731 35.51898404 -13.3125 24.25 C-13.48906128 22.93201416 -13.48906128 22.93201416 -13.66918945 21.58740234 C-14.46021199 16.2562242 -15.72781337 11.3093932 -17.50073242 6.21777344 C-18.05379088 3.76105803 -17.80360864 2.35868723 -17 0 C-14.91957837 -0.39083065 -12.83547661 -0.7621087 -10.75 -1.125 C-9.00976562 -1.43824219 -9.00976562 -1.43824219 -7.234375 -1.7578125 C-3.78945614 -2.01576536 -2.70786943 -2.04768639 0 0 Z " fill="#FFA500" transform="translate(371,153)"/>
  <path d="M0 0 C6.97822347 6.09184405 10.98825665 14.89430981 12 24 C13.02255497 41.74863274 10.3304647 58.13461894 -0.80859375 72.61328125 C-5.44044889 77.65795771 -11.07034079 81.78474478 -18.06640625 82.16796875 C-19.22011719 82.17441406 -20.37382812 82.18085937 -21.5625 82.1875 C-22.71878906 82.20167969 -23.87507813 82.21585938 -25.06640625 82.23046875 C-28 82 -28 82 -30 80 C-25.05 79.505 -25.05 79.505 -20 79 C-21.0725 78.01 -22.145 77.02 -23.25 76 C-26.01464175 73.31747632 -27.42660718 71.24435036 -28.6875 67.625 C-29.45497444 65.54462583 -29.45497444 65.54462583 -31 64 C-35.01421089 62.99779433 -38.87687576 62.8962736 -43 63 C-43 61.68 -43 60.36 -43 59 C-39.37 59 -35.74 59 -32 59 C-32.33 58.34 -32.66 57.68 -33 57 C-33 55.02 -33 53.04 -33 51 C-36.96 51 -40.92 51 -45 51 C-45.62625591 33.88233841 -41.84216403 18.48062669 -30.375 5.3125 C-22.3185067 -3.34023197 -10.61340896 -6.32765608 0 0 Z " fill="#020202" transform="translate(321,732)"/>
  <path d="M0 0 C0.0501123 0.61407715 0.10022461 1.2281543 0.15185547 1.86083984 C0.38693811 4.69942277 0.63092534 7.53717666 0.875 10.375 C0.95363281 11.34050781 1.03226562 12.30601562 1.11328125 13.30078125 C1.60220159 18.90456058 2.36297448 24.26508684 3.69970703 29.73291016 C4.06010188 32.45374477 3.81615388 34.38128108 3 37 C0.73097877 38.88782566 -1.40112657 40.42940723 -3.875 42 C-5.36096344 42.98133737 -6.84662916 43.96312566 -8.33203125 44.9453125 C-9.10756348 45.45094727 -9.8830957 45.95658203 -10.68212891 46.47753906 C-14.34859254 48.88580399 -17.95103832 51.38537969 -21.5625 53.875 C-29.72761629 59.46537308 -37.91216907 65.02734309 -46.10055542 70.58355713 C-47.47842774 71.51874124 -48.85597752 72.45440077 -50.23318481 73.39056396 C-57.08328159 78.04597359 -63.92708326 82.68614989 -71 87 C-71.94359375 85.71416016 -71.94359375 85.71416016 -72.90625 84.40234375 C-77.30055943 78.50129073 -81.5407124 73.01520879 -87.30859375 68.3671875 C-88.99316899 67.0055216 -90.48076813 65.54131141 -92 64 C-82.73206997 57.24806704 -73.43374082 50.55616024 -63.96386719 44.08984375 C-58.48277516 40.34402606 -53.05470871 36.52717422 -47.63647461 32.69116211 C-42.10396905 28.77541598 -36.55525092 24.88340116 -31 21 C-23.74904856 15.9307259 -16.51201277 10.84233024 -9.29101562 5.73046875 C-8.63681641 5.26769531 -7.98261719 4.80492187 -7.30859375 4.328125 C-6.45479126 3.72339355 -6.45479126 3.72339355 -5.58374023 3.10644531 C-1.13724625 0 -1.13724625 0 0 0 Z " fill="#FFA500" transform="translate(252,594)"/>
  <path d="M0 0 C5.8140641 2.47636064 9.15876488 7.49724644 12 13 C15.97741935 24.03936798 15.62538597 38.53337014 11.265625 49.38671875 C7.32296333 57.52758497 3.69808883 63.67611485 -4.25 68.3125 C-8.43583771 69.35895943 -12.7135222 69.51589467 -17 69 C-17.66 68.34 -18.32 67.68 -19 67 C-15.535 66.505 -15.535 66.505 -12 66 C-12.40992188 65.56429687 -12.81984375 65.12859375 -13.2421875 64.6796875 C-16.61090002 60.95637366 -18.78240479 57.99214035 -20 53 C-23.3 53 -26.6 53 -30 53 C-30 52.01 -30 51.02 -30 50 C-27.36 50 -24.72 50 -22 50 C-22.33 48.02 -22.66 46.04 -23 44 C-25.97 43.67 -28.94 43.34 -32 43 C-32.38742799 29.2463065 -29.4418448 16.46509892 -20 6 C-13.58081057 -0.11496244 -8.74562772 -0.78044972 0 0 Z " fill="#020202" transform="translate(221,749)"/>
  <path d="M0 0 C3.10596506 1.96130984 3.74322336 5.36463251 4.8125 8.70703125 C5.06741211 9.47063965 5.32232422 10.23424805 5.58496094 11.02099609 C10.36991397 25.66246966 14.0494033 40.64710679 13.8125 56.14453125 C2.125489 54.9504236 -9.53562905 53.64425005 -21.1875 52.14453125 C-20.9702124 51.31010498 -20.7529248 50.47567871 -20.52905273 49.6159668 C-18.03483008 39.22493295 -18.00514751 29.69550592 -18.39257812 19.03320312 C-18.41900391 17.79763672 -18.44542969 16.56207031 -18.47265625 15.2890625 C-18.51269775 14.17893799 -18.55273926 13.06881348 -18.59399414 11.92504883 C-18.1875 9.14453125 -18.1875 9.14453125 -16.34936523 7.36303711 C-15.27924194 6.75987671 -15.27924194 6.75987671 -14.1875 6.14453125 C-13.23875 5.603125 -12.29 5.06171875 -11.3125 4.50390625 C-10.28125 3.9728125 -9.25 3.44171875 -8.1875 2.89453125 C-7.15625 2.353125 -6.125 1.81171875 -5.0625 1.25390625 C-2.1875 0.14453125 -2.1875 0.14453125 0 0 Z " fill="#FFA500" transform="translate(751.1875,316.85546875)"/>
  <path d="M0 0 C0.70141113 0.00082581 1.40282227 0.00165161 2.12548828 0.00250244 C12.79646696 0.03157284 22.99476997 0.64399747 33.375 3.3125 C34.65375 3.63476562 35.9325 3.95703125 37.25 4.2890625 C38.28125 4.62679687 39.3125 4.96453125 40.375 5.3125 C42.71805079 9.99860158 41.99786874 16.92966493 40.703125 21.8828125 C40.00372611 23.72368316 39.20023223 25.52449682 38.375 27.3125 C36.065 27.3125 33.755 27.3125 31.375 27.3125 C31.14425781 26.67441406 30.91351563 26.03632812 30.67578125 25.37890625 C28.96816325 20.43038131 28.96816325 20.43038131 25.1875 17.25 C24.259375 17.270625 23.33125 17.29125 22.375 17.3125 C21.22644531 17.29703125 21.22644531 17.29703125 20.0546875 17.28125 C17.82577434 17.25330125 15.60348499 17.26880422 13.375 17.3125 C13.1275 18.075625 12.88 18.83875 12.625 19.625 C11.14690137 22.80291206 10.4603124 23.65965407 7.375 25.3125 C4.20096354 25.70602891 1.06809018 25.63955798 -2.125 25.5625 C-2.97964844 25.55734375 -3.83429688 25.5521875 -4.71484375 25.546875 C-12.4544232 25.45028118 -12.4544232 25.45028118 -15.625 24.3125 C-17.87140587 19.66279643 -17.96064559 15.11749775 -17.9375 10.0625 C-17.95361328 9.34320313 -17.96972656 8.62390625 -17.98632812 7.8828125 C-17.98828125 5.796875 -17.98828125 5.796875 -17.625 2.3125 C-12.44335865 -1.14192757 -6.07896591 -0.02959626 0 0 Z " fill="#FFA500" transform="translate(401.625,80.6875)"/>
  <path d="M0 0 C1.36001686 11.22932836 0.78389616 21.28694378 -3 32 C-10.92873053 32.32879248 -18.62378273 31.43816145 -26.46191406 30.34594727 C-28.52309084 30.05928864 -30.58555149 29.78382641 -32.6484375 29.50976562 C-42.72374575 28.13812713 -42.72374575 28.13812713 -45 27 C-44.76074219 25.16430664 -44.76074219 25.16430664 -44 23 C-42.20019531 21.61889648 -42.20019531 21.61889648 -39.828125 20.37109375 C-38.94535889 19.89833008 -38.06259277 19.42556641 -37.15307617 18.93847656 C-35.71605347 18.19549316 -35.71605347 18.19549316 -34.25 17.4375 C-33.27458252 16.92026367 -32.29916504 16.40302734 -31.29418945 15.87011719 C-29.24378176 14.78539175 -27.1900614 13.7069081 -25.13330078 12.63427734 C-22.04926612 11.02569639 -18.97482188 9.40005932 -15.90234375 7.76953125 C-12.24430109 5.83459982 -8.58567361 3.90093893 -4.91796875 1.984375 C-4.18344482 1.59991211 -3.4489209 1.21544922 -2.69213867 0.81933594 C-1 0 -1 0 0 0 Z " fill="#FFA500" transform="translate(718,334)"/>
  <path d="M0 0 C1.98 0 3.96 0 6 0 C6.23074219 0.55429688 6.46148437 1.10859375 6.69921875 1.6796875 C8.74567884 6.43231515 8.74567884 6.43231515 12.75 9.5 C13.4925 9.665 14.235 9.83 15 10 C14.71086248 16.24537049 13.90591259 21.92707694 10 27 C4.65546133 30.42050475 -0.75453516 30.86048627 -7 30 C-11.46440866 28.6700433 -15.66948135 27.33051865 -19 24 C-20.88944236 18.751549 -21.07971114 14.47729418 -21 9 C-19.89140625 8.82984375 -18.7828125 8.6596875 -17.640625 8.484375 C-16.17694232 8.24042789 -14.71340804 7.99558924 -13.25 7.75 C-12.52039063 7.64042969 -11.79078125 7.53085938 -11.0390625 7.41796875 C-6.50772835 6.63528376 -3.92267722 5.80833698 -1 2 C-0.67 1.34 -0.34 0.68 0 0 Z " fill="#FFA500" transform="translate(419,106)"/>
  <path d="M0 0 C2.89884686 2.73319846 5.38658173 5.41715612 7.67578125 8.68359375 C8.11446533 9.3067749 8.55314941 9.92995605 9.00512695 10.57202148 C9.33343506 11.04325439 9.66174316 11.5144873 10 12 C8.47632813 12.76183594 8.47632813 12.76183594 6.921875 13.5390625 C6.26074707 13.86970703 5.59961914 14.20035156 4.91845703 14.54101562 C3.46656859 15.26679638 2.01441774 15.99205243 0.56201172 16.71679688 C-2.85290987 18.42161746 -6.26501457 20.13090178 -9.6640625 21.8671875 C-10.72367188 22.40601563 -11.78328125 22.94484375 -12.875 23.5 C-13.82117188 23.9846875 -14.76734375 24.469375 -15.7421875 24.96875 C-18 26 -18 26 -20 26 C-20.66 22.04 -21.32 18.08 -22 14 C-14.89007326 8.87667044 -7.62786118 4.31196963 0 0 Z " fill="#FFA500" transform="translate(237,676)"/>
  <path d="M0 0 C3.38121991 2.44598887 4.76936783 3.89296559 5.625 8 C4.77618008 12.0743356 3.32274404 13.54405875 0 16 C-3 16.625 -3 16.625 -6 16 C-8.875 13.9375 -8.875 13.9375 -11 11 C-11.63007693 7.00951279 -11.63021887 4.98314143 -9.4375 1.5625 C-6.01685857 -0.63021887 -3.99048721 -0.63007693 0 0 Z " fill="#070707" transform="translate(704,505)"/>
  <path d="M0 0 C3 2.0625 3 2.0625 5 5 C5.07003547 8.99202191 4.58571574 11.15396616 2.3125 14.4375 C-0.75578596 16.51066619 -2.35973134 16.59432958 -6 16 C-8.875 14.5 -8.875 14.5 -11 12 C-11.66017005 9.19858274 -11.60984064 6.80756825 -11 4 C-8.16650967 -0.53358453 -5.10426635 -0.80593679 0 0 Z " fill="#080808" transform="translate(809,516)"/>
  <path d="M0 0 C2.5 1.625 2.5 1.625 4 4 C4.48858462 7.90867693 4.20156781 10.69764829 2 14 C-1.17540944 15.58770472 -4.54190559 15.41100302 -8 15 C-10.17476401 13.45661909 -10.81832637 12.36334727 -12 10 C-12.38080215 6.49662019 -12.40245078 4.63721374 -10.5 1.625 C-6.99359333 -0.65416433 -4.07099353 -0.81753559 0 0 Z " fill="#050505" transform="translate(760,511)"/>
  <path d="M0 0 C2.5 1.625 2.5 1.625 4 4 C4.63656938 7.73984509 4.25584708 9.50962644 2.5 12.875 C-0.52915683 15.44978331 -2.20650771 15.74545844 -6.09375 15.484375 C-8 15 -8 15 -10.5 12.875 C-12.25584708 9.50962644 -12.63656938 7.73984509 -12 4 C-9.04906701 -0.67231057 -5.10537385 -1.0252595 0 0 Z " fill="#050505" transform="translate(650,500)"/>
  <path d="M0 0 C2.86795763 2.56606735 3.86671285 4.20027709 4.5 8 C3.86097012 11.83417929 2.93307135 13.44296344 0 16 C-3.5625 16.5625 -3.5625 16.5625 -7 16 C-8.9375 14.5625 -8.9375 14.5625 -10 12 C-10.44559506 8.91425418 -10.51910078 6.07960912 -10 3 C-7.27412614 -0.45976298 -4.22399484 -0.70399914 0 0 Z " fill="#0A0A0A" transform="translate(503,316)"/>
  <path d="M0 0 C2.375 1.5 2.375 1.5 4 4 C4.81753559 8.07099353 4.65416433 10.99359333 2.375 14.5 C-0.74326051 16.46942769 -2.37720527 16.67927401 -6 16 C-9.16196359 13.25408425 -9.91691332 11.59199258 -10.5 7.4375 C-10 4 -10 4 -8.375 1.5625 C-5.28314769 -0.47161336 -3.63632575 -0.60605429 0 0 Z " fill="#080808" transform="translate(485,229)"/>
  <path d="M0 0 C1.875 0.37890625 1.875 0.37890625 3.875 1.94140625 C5.28462258 5.3773613 5.3918609 7.69627232 4.875 11.37890625 C2.75 14.37890625 2.75 14.37890625 -0.125 16.37890625 C-3.33231148 16.37890625 -5.2255035 15.88862093 -8 14.31640625 C-9.84224273 11.14365489 -9.62073695 7.89863858 -9.125 4.37890625 C-7.31942762 -0.13502469 -4.45623098 -0.25393963 0 0 Z " fill="#080808" transform="translate(496.125,270.62109375)"/>
  <path d="M0 0 C0.66 0.33 1.32 0.66 2 1 C2 1.99 2 2.98 2 4 C-0.45334555 5.36396462 -2.91191234 6.71634169 -5.375 8.0625 C-6.07367188 8.45244141 -6.77234375 8.84238281 -7.4921875 9.24414062 C-9.29610184 10.22415178 -11.14583482 11.11875071 -13 12 C-13.66 11.67 -14.32 11.34 -15 11 C-10.05 7.37 -5.1 3.74 0 0 Z " fill="#FFA500" transform="translate(260,462)"/>
  <path d="M0 0 C0.99 0.33 1.98 0.66 3 1 C0.12050853 3.23960447 -2.76742026 5.29864224 -6 7 C-6.66 6.67 -7.32 6.34 -8 6 C-6.7391988 4.96680187 -5.46596742 3.94875621 -4.1875 2.9375 C-3.47980469 2.36902344 -2.77210938 1.80054688 -2.04296875 1.21484375 C-1.36878906 0.81394531 -0.69460937 0.41304688 0 0 Z " fill="#FFA500" transform="translate(253,467)"/>
</g>
</svg>
