<?xml version="1.0" encoding="UTF-8"?>
<!-- Generator: Blender, SVG Export for Grease Pencil - v2.0 -->
<!DOCTYPE svg PUBLIC "-//W3C//DTD SVG 1.1//EN" "http://www.w3.org/Graphics/SVG/1.1/DTD/svg11.dtd">
<svg version="1.1" x="0px" y="0px" xmlns="http://www.w3.org/2000/svg" width="1920.000000px" height="1080.000000px" viewBox="50 50 1000 1020">
	<g id="blender_frame.2">
		<g id="blender_object.Stroke.2.uuid_0x0">
			<g id="layer.Lines.uuid_0x1">
				<path d="M152.17053,341.7044L152.63734,341.84058L153.12167,341.88306L153.60495,341.8302L154.06877,341.68414L154.49501,341.45038L154.86757,341.13788L155.17198,340.7588L155.39651,340.32758L155.5327,339.86078L155.57515,339.37646L155.5223,338.89313L155.3762,338.42938L155.14246,338.00305L154.82991,337.6305L154.45084,337.3261L154.01962,337.10156L147.10504,334.58386L141.50122,331.11194L136.4483,326.92096L132.30606,323.56775L127.36273,317.7179L124.29502,314.73907L120.9347,311.62445L117.17566,308.19867L113.29931,304.93597L110.06888,302.266L107.481255,299.50366L105.71297,297.4572L105.92657,295.54138L106.40757,295.14667L110.76966,293.284L121.52,289.586L139.206,282.92615L151.59285,279.02563L163.52744,276.36542L175.12138,272.16284L187.90907,267.61963L201.46289,261.4021L216.74304,255.9801L228.50562,253.16327L241.6535,250.16034L252.836,246.37836L265.45126,242.35345L279.84506,238.49005L292.46954,233.83887L302.97668,229.76624L315.08188,226.38599L326.30167,223.33075L336.6513,220.06305L349.4416,217.38605L363.7734,214.26385L377.08838,211.66571L389.0271,207.96423L402.7659,204.93378L417.88147,203.4342L431.4613,200.29114L444.0124,196.4419L455.5199,192.61835L468.1116,190.48749L480.03687,189.6546L491.50348,188.33423L502.19064,185.21423L514.4395,181.85095L527.5391,178.03613L540.2098,177.37872L552.87976,176.85107L564.5326,175.98352L576.8564,173.1673L590.4901,170.40082L603.3469,169.46674L616.0765,168.60791L627.85895,166.57538L640.54596,164.65607L654.32544,162.75641L667.0204,160.55817L678.96783,158.44647L691.00696,158.13464L704.3897,158.22656L718.21924,157.97565L730.88403,155.73291L743.29645,154.37927L755.05634,154.51599L767.98175,154.38763L781.84,153.16235L794.5846,152.1897L806.8002,152.25275L818.4402,152.24951L831.53894,151.81091L845.485,151.61084L858.23834,150.92499L870.8963,150.92572L882.3752,149.72717L894.41345,148.16803L907.6526,147.94489L919.5483,147.8274L930.235,147.74219L940.92456,148.26501L954.20087,148.38843L967.5898,147.466L979.62646,147.73468L991.0022,149.245L1001.48413,150.5628L1015.478,150.76355L1031.2863,150.8479L1043.7734,151.77887L1055.8741,152.01251L1070.8622,153.03137L1086.1558,155.80328L1097.7969,156.49792L1109.2518,156.57281L1124.6718,158.00006L1140.2784,160.25201L1151.395,160.85278L1162.2677,162.28674L1177.2328,164.229L1191.3423,165.7016L1200.4772,167.5155L1209.7029,168.49042L1224.8851,169.69885L1235.403,170.73041L1243.268,172.52832L1257.9417,175.28699L1268.5581,176.96338L1287.7643,178.6659L1287.9807,178.68005L1288.1958,178.65173L1288.4012,178.58197L1288.589,178.47345L1288.7521,178.33026L1288.8843,178.15814L1288.9801,177.96362L1289.0361,177.75403L1289.0504,177.5376L1289.022,177.32245L1288.9523,177.11694L1288.8436,176.92914L1288.7006,176.76617L1288.5283,176.63403L1288.3339,176.53809L1288.1244,176.482L1269.3986,171.93134L1258.8038,170.04968L1243.9373,168.22253L1235.9034,167.54755L1225.5701,165.28705L1210.6461,162.05737L1201.4996,160.38177L1192.234,159.60968L1178.2546,156.91669L1163.0594,155.41351L1152.1415,154.32928L1141.1395,152.4751L1125.393,151.27802L1109.9307,149.64453L1098.631,147.56555L1087.0754,146.18378L1071.4883,145.94073L1056.3066,145.13629L1044.2678,143.83173L1031.7064,143.31934L1015.9108,141.81158L1001.88873,140.82874L991.3052,141.31372L979.815,142.04102L967.76086,141.59338L954.4025,139.93884L941.03845,139.70605L930.328,139.94733L919.60535,139.68445L907.6702,139.49133L894.38086,139.29895L882.2376,138.0105L870.68994,137.12012L857.9632,137.61859L845.1273,137.5434L831.0988,138.18494L817.9101,138.76941L806.2747,139.70905L794.0483,140.89734L781.19763,141.25232L767.21545,141.70142L754.34766,143.15063L742.6559,144.83234L730.12964,145.24335L717.227,144.92706L703.4543,146.8324L690.18,149.43152L678.2785,151.46124L666.12085,151.79224L653.1974,152.3219L639.2794,153.55109L626.444,154.62604L614.45825,155.48529L601.8465,157.87653L589.1489,160.34198L575.2089,161.27686L562.43933,162.26276L551.0116,164.98639L538.75385,168.52289L526.52423,172.06073L512.86505,172.8988L500.1518,174.07587L489.0043,175.02844L477.7961,178.05566L466.39487,181.83038L453.90942,184.73114L441.7578,185.9895L428.69888,187.73285L414.99875,190.7207L400.69653,196.06836L387.01602,199.49213L374.6477,201.70605L361.61618,205.6977L347.50653,209.88312L335.0095,213.80042L324.3724,216.1222L313.12134,219.16852L300.93564,222.3941L289.77197,224.64227L276.59912,227.68433L262.44238,232.58344L249.73189,236.43732L238.3612,239.77612L225.87564,245.0014L214.68063,249.66638L199.12347,254.38776L184.53764,257.9449L171.68861,262.41986L160.01799,266.4532L149.03389,271.90973L137.07843,277.16357L119.46333,283.45343L108.57788,286.78656L102.8746,288.55243L101.2642,289.71423L99.57681,291.91333L98.98939,292.94147L98.756386,294.1023L98.9209,298.53363L98.994774,299.3731L99.2743,300.16815L99.74218,300.86908L102.29388,303.8114L104.56999,306.9897L107.57486,310.638L110.95116,314.53503L114.632774,318.3155L118.2763,321.28284L121.42868,324.14032L128.06918,328.52075L132.63503,331.94208L138.56804,335.53845L145.09918,338.5893z" fill="#aaa" stroke="none" fill-opacity="1" />
				<path d="M398.8457,219.96057L398.99237,219.72919L399.091,219.47363L399.13794,219.2038L399.13132,218.92987L399.07144,218.66254L398.96045,218.41211L398.8028,218.18811L398.60446,217.99908L398.3731,217.85248L398.11752,217.75385L397.84763,217.70685L397.57382,217.71356L397.3065,217.77344L397.05603,217.8844L396.832,218.04199L396.643,218.24036L388.3361,228.8269L382.11182,236.37079L374.05048,244.90656L364.23425,255.7486L354.6369,266.89386L345.85,278.49945L334.52426,292.74988L322.94208,307.68756L311.7691,324.60992L303.52182,334.5053L295.77988,343.3625L288.65485,353.43207L281.56488,364.56598L276.0125,375.1526L268.68216,385.5797L259.96948,394.82574L251.28523,405.42163L244.26836,415.76678L236.59247,426.59985L228.68288,437.2602L220.18874,449.1595L211.55754,459.2705L202.52776,470.14417L194.06776,479.34814L185.09772,488.46094L175.5883,497.2177L166.6761,507.25488L158.70554,515.9327L149.87085,524.19147L132.64774,538.10254L118.175354,550.623L105.43607,562.20703L94.15025,571.26215L84.79889,578.09283L79.25348,582.37744L74.98186,584.7549L74.84144,584.83826L75.44695,582.0232L76.868416,575.6466L82.21442,562.7194L90.38504,545.41003L100.92813,526.5248L108.10272,513.5092L115.85912,503.96277L124.64521,492.59344L133.66516,481.5274L143.87398,470.2948L154.50829,459.4201L163.09747,450.24823L171.34758,442.16132L179.5479,435.13666L189.68417,427.5177L199.52087,419.9254L208.4681,412.59027L219.34988,404.8944L230.6717,398.45306L240.1708,390.98853L251.305,382.90533L263.06744,376.85425L273.17072,370.07263L284.73907,361.7694L296.21103,354.12286L306.24463,347.8286L317.15997,341.28912L329.16235,333.8006L339.24362,327.25543L349.6296,321.67987L360.35654,315.9839L369.20972,310.63727L383.01605,302.57367L397.9647,294.25995L411.04297,288.05304L424.43222,281.8584L436.10214,277.38477L447.27197,271.8772L457.57834,265.4591L468.3921,259.53375L483.73306,252.33234L501.16898,245.01642L516.3542,238.81464L524.6522,232.07074L531.5429,226.69177L531.5777,226.66614L531.6067,226.63416L531.6289,226.59717L531.64355,226.55658L531.6499,226.51385L531.6479,226.4707L531.63745,226.4289L531.619,226.3899L531.5934,226.3551L531.56146,226.32611L531.5245,226.3039L531.4839,226.2893L531.4412,226.2829L531.398,226.28491L531.35614,226.29535L531.31714,226.31378L523.3534,229.8081L513.6867,233.22192L499.07138,240.38678L482.20734,249.08185L466.93765,256.48724L455.5254,261.1872L444.09647,265.378L432.8856,270.83972L422.2327,277.4261L409.21637,284.39832L396.42694,291.2105L380.86356,298.36957L366.34134,305.2292L356.9646,309.7483L346.3687,315.82855L336.23047,322.0008L325.48428,327.4624L313.07574,334.4206L302.14673,341.05627L291.91382,347.14404L280.0111,354.22742L267.47134,361.01093L256.98526,367.37476L246.59427,375.74866L234.85886,383.20996L224.4464,389.5321L214.52356,398.26392L204.11545,406.95758L194.77095,413.90973L185.23705,422.11328L175.94719,430.91425L167.83018,438.17725L158.86374,445.66736L149.4012,454.27032L138.55447,465.14575L128.13034,476.55225L118.34587,487.27966L109.13629,498.7401L102.04188,509.15045L92.8113,521.4433L81.81152,540.7978L73.50746,558.83704L68.42177,572.7401L66.63568,580.834L67.46367,587.70905L67.72041,588.7677L68.24678,589.72156L69.00542,590.5032L69.94326,591.0576L73.43187,592.4066L74.45852,592.68726L75.52282,592.6861L76.5489,592.40314L82.943344,589.8872L90.02318,585.33264L99.35332,577.9829L110.688225,568.4839L123.90925,557.0342L137.74063,543.64484L152.9238,527.4375L161.47224,518.7556L170.20912,510.78217L180.14626,501.6524L188.40294,491.55493L196.75552,481.79718L204.95985,472.30078L214.55727,461.85522L222.92009,451.40076L232.74942,440.50165L241.17961,430.14514L249.58507,419.7995L257.63495,410.2182L265.44962,398.9115L271.5585,387.6515L279.03528,377.30957L287.24493,368.617L295.44662,358.25317L302.55655,348.14453L308.3107,337.8783L314.77872,326.7575L327.20575,310.81592L338.0121,295.45892L349.17508,281.22974L358.9616,270.50812L368.2298,259.11414L377.24173,247.64978L384.53873,238.42798L390.57388,230.6023z" fill="#aaa" stroke="none" fill-opacity="1" />
				<path d="M364.0888,354.203L364.06592,354.2204L364.04688,354.24188L364.03238,354.26666L364.023,354.29382L364.01904,354.3224L364.02078,354.351L364.02805,354.37885L364.04062,354.40472L364.05804,354.42755L364.07953,354.44666L364.1043,354.46112L364.1315,354.47052L364.15994,354.4745L364.1886,354.47272L364.2164,354.46545L364.24228,354.45288L379.34293,345.1718L387.47443,340.85095L394.91946,336.91376L401.96234,333.07L409.11954,328.70984L416.05734,324.3944L421.309,320.89325L426.89496,317.2566L431.55185,314.59766L435.23328,312.58826L439.3669,310.24292L439.68723,310.00366L439.94266,309.69623L440.11935,309.3376L440.2074,308.9477L440.20197,308.54797L440.10345,308.16052L439.91705,307.80682L439.3571,307.1562L439.11124,306.8753L438.80716,306.6587L438.46133,306.51807L438.09244,306.46094L437.72034,306.49048L437.365,306.60504L433.54745,308.2683L425.78598,312.73804L415.39417,318.07385L404.07758,323.67377L391.8548,330.58435L380.13876,338.21838L370.73706,345.47235L361.69553,351.7854L351.544,357.76068L341.9795,363.25507L335.91058,367.12256L331.52637,370.53815L328.34818,374.4483L327.9749,375.06525L327.74368,375.74823L327.6654,376.46497L327.74384,377.18176L327.97525,377.8647L328.34866,378.48145L328.84656,379.0031L330.272,380.22925L331.30698,380.82214L332.48422,381.01337L335.00516,380.90704L341.5715,377.78857L351.7628,372.12042L363.81586,365.43018L378.12024,357.61707L390.2738,350.0915L403.77026,343.06293L417.6522,336.32843L428.1773,329.59418L437.53613,323.43884L448.15045,317.93652L457.04047,313.93933L465.17297,309.30048L471.16888,305.7068L474.87885,302.7138L477.501,300.83496L479.93033,299.26465L482.8016,296.7306L482.91254,296.66046L483.00763,296.57007L483.08337,296.46295L483.13657,296.34302L483.16556,296.21503L483.16888,296.08386L483.14655,295.95447L483.09943,295.8321L483.0294,295.72113L482.93896,295.62604L482.8317,295.55035L482.71188,295.49707L482.58383,295.4682L482.45267,295.46484L482.32336,295.48712L482.20096,295.53418L478.4533,296.3235L475.73718,297.33942L472.58423,298.4088L468.32825,300.19934L461.78976,302.72223L453.5999,307.80762L445.49258,313.14923L435.3551,319.52954L425.15195,324.193L414.12616,329.9912L400.98364,338.06946L388.18298,346.51233L375.6812,353.35406L361.70935,361.61908L349.63705,368.13727L339.62668,373.1371L334.31802,374.41022L333.53754,374.52893L334.28278,376.10352L335.8021,375.61127L339.9344,372.85352L345.66284,368.5265L353.96692,361.3139L363.3116,354.18225L372.445,348.13306L383.00845,342.82068L394.92532,335.7663L406.86545,328.59003L417.51968,321.8462L427.43927,315.63824L435.0146,311.2921L437.604,309.61713L436.85812,308.39612L433.55,309.71863L430.02795,312.13068L425.59146,315.19354L419.9758,318.72278L414.4623,321.74402L407.3771,325.84888L400.3826,330.4771L393.6972,334.88025L386.73026,339.6217L379.19708,344.93433z" fill="#aaa" stroke="none" fill-opacity="1" />
				<path d="M455.01016,327.39526L455.2026,327.21118L455.35556,326.99298L455.4629,326.7492L455.5207,326.4892L455.52664,326.2229L455.48053,325.9605L455.38406,325.71222L455.241,325.48743L455.05692,325.29492L454.8388,325.1421L454.59503,325.03473L454.335,324.97687L454.06866,324.97095L453.80624,325.01715L453.558,325.1136L453.33328,325.25653L443.68927,332.33026L438.0078,336.90863L433.7493,340.32098L428.46045,344.3172L423.93607,347.3462L420.37598,349.4876L417.59195,351.23688L417.20325,351.62415L416.9099,352.08777L416.7266,352.6048L416.6622,353.14972L416.72,353.6953L416.89716,354.2146L417.18484,354.6817L417.56882,355.07367L418.18283,356.54034L418.89417,356.97986L419.6948,357.22083L420.53052,357.24707L421.34457,357.05676L425.0832,355.80286L431.10107,352.1167L439.82706,347.3114L450.98322,341.71954L461.98727,335.92053L472.32773,330.0822L482.30737,325.27448L491.9648,320.75928L500.71085,315.76428L507.93286,311.68622L516.83594,307.28583L524.5936,304.03864L532.4311,301.32086L538.1288,299.26483L538.00995,297.41748L537.04895,293.66608L536.8259,294.19684L533.7162,297.87762L527.78046,301.6187L518.4731,306.84705L508.777,311.9178L498.37552,316.69318L489.92252,321.02325L482.9662,324.938L475.55942,328.84448L471.31653,331.0702L467.11285,333.92383L466.54993,334.41345L466.09778,335.00677L465.77505,335.67938L465.59515,336.4035L465.56546,337.14893L465.6873,337.88495L465.9555,338.58112L466.35916,339.2085L466.8814,339.74127L467.50067,340.15735L468.56375,340.7879L469.54178,341.1443L470.58032,341.216L471.59805,340.9975L474.66376,339.56274L480.8789,336.56653L488.47873,333.05896L501.25452,327.9095L514.31445,322.8675L527.3189,317.2155L538.63043,312.50055L551.25024,308.6203L563.9791,304.0346L576.0497,297.9972L587.4799,292.56195L598.30756,287.6305L607.7714,285.51263L613.56616,284.82465L614.36786,284.41425L613.0812,281.94574L612.571,282.34937L610.75415,285.03925L604.33136,289.20056L595.0441,294.3199L584.3339,300.51532L573.20044,305.76324L564.85266,308.9688L557.9752,311.588L552.07166,315.43L551.2229,316.13647L550.56104,317.02063L550.1223,318.03424L549.9307,319.12183L549.8767,322.60687L549.93677,323.65344L550.2331,324.659L550.75024,325.57092L551.46106,326.3415L552.3283,326.9303L553.30676,327.30664L554.34503,327.45074L558.4298,327.49548L565.6481,325.98663L574.96106,322.61725L584.4619,318.87164L595.3,314.36035L606.33167,310.39014L616.0837,307.4068L624.0833,304.37628L632.6115,300.7213L640.36224,297.8061L646.35944,295.56976L653.9362,292.81573L660.2886,290.37476L664.908,288.82056L665.3602,286.2544L665.29254,282.1679L663.5891,283.2796L659.0672,285.3462L651.60266,288.8534L642.5963,292.96832L633.6812,297.33344L624.65796,301.53082L618.0298,304.50208L613.907,306.59857L613.55664,306.83844L613.28265,307.16296L613.1051,307.54858L613.03644,307.9676L612.58746,309.85522L612.6293,310.31787L612.7778,310.758L613.0249,311.1513L613.3569,311.4762L613.75543,311.71466L614.19867,311.85364L616.4461,312.6385L620.4225,312.60187L626.95544,311.67456L634.57623,309.98834L645.9617,307.4765L658.97363,303.85797L669.90796,300.4137L682.6854,297.333L694.22144,294.5987L704.98114,291.35083L715.9887,288.76276L727.10724,286.54083L737.52124,284.48438L746.3838,283.0116L752.19763,282.59283L753.6348,281.78436L753.70404,278.49872L758.8924,280.28125L757.89923,283.73187L760.44196,282.05243L762.8729,280.75867L764.7322,279.31848L767.8069,276.09857L770.5531,273.1548L775.14465,267.09705L775.336,266.89056L775.48346,266.6507L775.58124,266.38678L775.6256,266.10876L775.6149,265.82745L775.54956,265.5536L775.432,265.29773L775.26685,265.06982L775.06036,264.87842L774.8205,264.73102L774.5566,264.63324L774.27856,264.5888L773.9972,264.59955L773.72345,264.66492L773.46765,264.78235L773.2396,264.9475L767.208,268.24805L763.27716,269.4533L759.51825,272.1754L757.7147,273.22546L755.26904,275.27618L753.81885,277.40784L753.6533,277.6822L753.05444,278.0927L752.55096,278.61603L752.16376,279.23035L751.9088,279.91028L751.79675,280.6278L751.8322,281.3531L752.0136,282.0562L752.33356,282.70813L752.77875,283.2818L753.3309,283.7536L753.967,284.10382L754.66077,284.31818L755.37415,284.2751L756.09143,284.3407L756.8064,284.25323L757.4867,284.01666L758.10156,283.6416L758.62335,283.14502L759.02826,282.54944L759.2982,281.88165L759.4209,281.17194L759.3908,280.45233L759.1213,278.65552L758.9417,277.96375L758.621,277.325L758.1733,276.76782L757.61865,276.31702L756.98175,275.9926L756.291,275.80896L755.5771,275.77448L751.72235,276.15723L745.5966,277.2038L736.52594,278.8203L725.9544,280.65594L714.7822,283.50134L703.71027,286.10077L692.65985,288.60107L681.292,291.805L668.5585,295.09344L657.2793,297.55048L644.29047,301.14502L633.16003,304.4754L625.9327,306.5843L620.10474,307.88953L617.06134,308.00543L616.10425,308.66846L616.1716,308.9997L619.279,307.4693L626.0984,305.13116L635.4753,301.67572L644.8787,298.4892L654.20325,294.95984L661.7447,291.6765L666.6084,289.87646L670.0075,288.10413L671.3728,286.69556L672.0697,285.82318L672.39935,285.0559L672.56274,284.237L672.5528,283.40192L672.3698,282.58716L672.0219,281.828L671.52405,281.1576L670.8981,280.60498L670.1709,280.1942L669.3746,279.94318L668.54333,279.86267L667.71356,279.95642L662.8862,280.97546L657.5093,283.11835L651.1727,285.87708L643.7614,289.03442L638.06213,291.5545L630.23193,294.17267L621.36774,297.2697L613.4305,300.2962L604.1285,304.3786L593.13574,308.44855L582.05444,312.03033L572.36615,314.92694L563.7036,317.53235L558.14954,318.44873L557.8202,319.76215L558.7416,321.7647L562.4639,319.98523L568.45483,316.1944L576.0574,311.43L586.84424,305.32867L597.9472,299.9013L607.58765,295.2558L614.8718,291.1223L618.9624,288.49908L621.6288,285.17584L622.22943,283.89056L622.4184,282.48438L622.1782,281.08612L621.5502,278.9301L621.11084,277.97736L620.474,277.1435L619.6707,276.46875L618.7394,275.98566L617.725,275.71765L616.6766,275.67755L612.49194,276.63232L605.902,279.7307L597.0151,283.99646L585.59875,287.49493L573.3449,290.79175L560.25934,294.70618L547.92883,300.34686L536.1049,306.22607L524.6975,310.87677L511.50833,316.1588L498.759,321.97937L486.12418,327.5221L478.34238,330.76257L472.20227,333.15393L470.57162,333.7873L472.8853,336.69354L475.05667,337.20593L478.8396,334.7818L486.05743,330.73883L493.2223,327.17853L501.4579,322.22034L510.9731,315.82373L520.306,310.12085L529.6625,304.93964L535.91895,301.43878L540.77454,299.5913L542.77985,298.51135L543.5843,297.56L544.03815,296.39972L544.3368,295.3011L544.4203,294.48492L544.33,293.6695L544.06976,292.89154L543.65125,292.18585L543.0933,291.58435L542.4212,291.11395L541.66504,290.7959L540.85864,290.64447L540.0386,290.66638L539.2416,290.86078L535.49274,292.4298L529.79016,295.66656L522.71747,299.97278L515.1937,303.72864L506.14758,307.79657L498.30655,310.5678L488.92264,314.39923L479.30093,319.05072L469.41995,324.2926L458.5441,329.0829L447.3266,334.648L436.32272,340.89612L427.6045,346.253L422.39005,349.64453L420.73026,350.88098L421.5885,353.17932L422.8759,352.86615L425.99115,350.18738L430.2932,346.79895L435.52402,342.65778L439.9762,339.4953L445.8342,335.07764z" fill="#aaa" stroke="none" fill-opacity="1" />
				<path d="M622.21423,417.72015L622.48596,417.95825L622.7987,418.1388L623.14075,418.25476L623.49896,418.30176L623.8593,418.27814L624.2081,418.1845L624.5321,418.02472L624.81854,417.80475L625.05676,417.53314L625.23724,417.22028L625.3533,416.87817L625.40027,416.52008L625.3766,416.15967L625.28296,415.8108L625.1231,415.48688L624.90314,415.20038L616.8728,406.45538L613.241,402.94183L607.21326,398.03156L603.6888,395.07635L599.47345,391.77167L596.2429,389.30292L591.19653,386.1961L587.2616,383.89612L583.40857,382.13867L579.47064,380.7298L575.58746,379.81128L571.06165,380.04797L569.84045,380.48163L566.5972,381.90143L565.9164,382.42303L565.37213,383.08575L564.99286,383.85498L564.7985,384.69037L564.79944,385.5479L564.9962,387.69238L565.30554,388.81262L565.93933,389.78687L566.838,390.52374L569.32947,391.70068L571.16833,392.19232L578.18976,391.9544L587.90375,391.5163L598.6772,391.03577L612.0196,390.37378L625.49255,389.0078L637.43134,386.0437L650.0859,381.781L663.1435,377.80902L676.4848,374.19482L690.4638,370.5313L703.50714,366.71173L716.34,362.1369L729.29474,357.8407L741.0005,355.33173L752.3468,352.08948L763.1101,348.41608L772.5545,346.528L781.9419,344.8952L787.89355,343.57672L791.99634,342.53784L792.9108,342.70715L792.5993,343.12402L791.0162,345.36383L784.8611,349.7412L774.1382,356.78503L760.7379,365.84222L743.9509,377.93878L724.9334,390.04797L707.84467,401.33215L698.5862,409.81293L688.9143,416.67126L678.47015,422.30475L667.3686,428.48242L656.8223,436.13513L645.7702,444.53644L634.86786,454.08612L622.5369,462.95465L608.8036,470.8775L594.7523,479.6648L582.8886,489.10516L570.3675,498.56213L557.7043,508.00897L544.467,518.2511L531.21655,527.34753L517.6428,537.4959L505.4582,547.85645L491.97946,557.2242L478.79807,565.2101L466.5853,574.76495L456.2917,584.4723L445.1625,593.568L435.4782,601.9526L425.72446,611.10693L409.28006,624.0997L395.07513,634.7043L385.41962,642.59534L380.11438,649.29126L379.58856,649.96515L379.21057,650.7319L378.99625,651.5593L378.95438,652.41315L379.08685,653.2576L379.38812,654.0576L379.84555,654.7797L380.4402,655.3938L381.14713,655.8744L381.9369,656.2013L382.77667,656.36096L383.63138,656.3468L384.46536,656.15924L386.69467,656.1212L394.05115,651.4629L403.48462,642.5968L419.14633,629.8574L431.60867,621.2356L440.60184,613.84467L451.00864,605.74146L461.04092,597.8192L470.91415,588.65674L480.46957,580.4508L492.7389,572.4597L504.28986,564.90686L516.50867,555.4147L528.832,546.9074L541.84375,537.06805L555.6053,528.8004L569.89087,521.5149L582.6624,513.9311L595.29266,504.86285L608.274,498.38885L621.38544,491.1588L634.0976,485.12787L645.8266,480.24512L656.158,475.02057L667.83185,470.40277L679.025,465.83832L697.122,458.008L711.9423,453.10022L721.4818,453.3504L724.7935,454.45508L725.58105,454.4084L726.1171,454.98517L724.16174,459.11127L714.55945,470.0708L698.8133,486.03143L687.1237,495.58282L676.0736,502.7591L663.5215,513.26746L651.31213,524.1875L639.16034,533.99786L626.8846,543.3176L616.6509,552.28296L606.7179,560.01996L596.8346,566.64685L586.17944,574.6369L575.82275,582.6239L565.3306,589.3071L553.64825,598.08887L542.3846,607.0024L531.16174,614.54565L518.62897,624.198L506.0344,633.6078L494.80936,642.4667L485.82642,650.3655L475.27338,657.80774L466.14893,665.4186L457.5027,672.71027L447.432,679.42126L436.28397,686.17676L427.30878,694.2475L419.1568,702.31177L410.4078,711.0751L400.06543,720.04236L389.44754,727.1572L379.79388,734.293L370.57245,742.53033L360.24875,751.583L350.17807,759.31494L341.25275,767.0707L332.37866,775.67725L322.09265,784.83044L312.57492,793.21106L304.29813,801.51324L295.95886,810.28357L286.19333,819.5975L276.791,827.5864L267.89133,834.7271L259.56833,842.8922L250.60254,852.67206L242.69559,861.2796L234.56593,868.6324L224.44244,879.41614L213.82822,891.83484L204.50151,901.89984L194.17448,911.2705L182.89279,920.8523L175.10062,930.51917L167.08517,940.1511L158.17812,949.00195L151.06041,956.9256L141.42998,968.3404L131.28897,979.57245L121.48149,988.2615L111.62493,996.79553L100.0744,1008.47644L88.113785,1022.25684L80.70923,1029.8735L75.02495,1034.3418L70.84745,1038.5759L65.14086,1045.5391L64.88342,1045.8531L64.69214,1046.2114L64.57461,1046.6002L64.535065,1047.0043L64.57512,1047.4084L64.69322,1047.797L64.884964,1048.1549L65.1428,1048.4688L65.45695,1048.7262L65.8152,1048.9174L66.20384,1049.0349L66.60799,1049.0745L67.0122,1049.0344L67.400604,1048.9163L67.75864,1048.7246L68.07243,1048.4668L75.02174,1042.7566L79.25932,1038.5972L83.66094,1033.0399L91.92908,1026.3583L106.00983,1014.46515L117.6388,1002.8142L126.222374,992.96783L134.5883,982.7613L145.48903,972.2588L156.48566,962.1219L164.10135,954.6672L172.5068,945.32513L181.74951,936.89026L191.08835,928.69763L200.07289,916.98L209.14444,906.425L218.96112,896.8551L231.11046,886.0243L241.81155,875.8795L249.17409,867.77014L257.79504,859.8754L267.50983,851.0011L275.84653,842.9559L283.27036,834.34985L291.66394,825.32996L301.38287,816.0587L310.6693,808.3601L319.52036,800.74585L328.6385,791.995L338.66617,782.627L348.10382,774.70935L356.7538,766.7342L365.6475,757.71234L375.8725,748.6837L385.379,740.9051L394.0055,732.6638L403.0016,723.63116L413.83273,715.312L424.23358,708.647L433.86414,702.4864L443.75067,695.5763L452.8263,686.259L461.6993,678.062L470.83908,671.4236L480.44278,664.4207L490.13876,655.9497L500.06116,649.3341L511.54807,640.8466L523.9636,631.22375L536.617,621.7667L546.9525,613.04663L558.5259,604.6068L570.26953,595.94763L579.6984,587.8196L590.2602,580.0486L600.8591,571.9629L609.90784,564.21765L620.013,556.68195L631.31274,549.0545L643.4166,539.4607L655.8237,529.88885L669.23334,520.3755L682.0659,510.02637L691.21106,500.375L701.9484,489.4267L718.7951,474.38458L729.47144,463.45673L733.225,457.71594L733.6979,455.7002L734.15924,452.6632L733.88055,451.2932L733.189,450.07825L731.443,446.6183L730.4843,445.69348L729.3233,445.0406L728.03503,444.7019L721.9332,444.9626L711.01843,448.56897L695.4524,452.6861L676.25195,458.39526L664.7891,462.91614L653.21796,468.11884L642.2447,472.19293L630.81195,478.19946L618.10284,484.52936L604.50977,491.2434L591.86633,498.62195L577.52466,505.05096L564.6094,512.6358L551.46674,522.01935L537.80194,530.7013L523.6835,539.4924L511.5754,548.49896L498.5972,556.95123L487.73608,565.66315L476.7063,575.5596L466.33466,582.7793L455.11307,590.37494L445.17334,598.4679L435.01666,606.8848L425.88507,614.0331L414.66064,624.1754L398.68045,636.3875L387.85968,643.0907L382.9195,647.1978L386.6712,649.9496L392.20624,649.97705L400.92514,641.67194L413.94852,629.7867L429.8897,616.2489L440.90182,608.645L451.05594,600.74884L462.05338,591.68384L473.83136,583.9155L485.83206,574.2898L496.87466,563.6493L509.50204,553.18854L522.763,544.26056L536.1757,533.9931L548.68835,523.952L562.3441,514.30194L575.1201,505.01202L587.81146,495.8664L600.45776,487.53973L613.1321,476.9677L625.1765,466.68573L637.58997,457.95642L650.27673,450.97675L661.9333,443.49512L672.7737,436.33215L682.519,428.18433L691.4725,420.37628L701.3103,413.77985L712.5686,408.1914L729.0806,396.0371L747.1311,382.54034L764.36115,371.0923L777.5933,361.78766L788,354.16113L794.3139,349.07465L797.0984,345.48102L797.5577,344.22473L797.69586,341.925L797.67236,341.30566L797.4974,340.71118L797.1816,340.17792L796.7444,339.7387L794.58057,337.66907L793.7172,337.21075L792.74896,337.07733L787.3978,336.57367L780.58057,337.3772L771.0916,339.8778L761.6624,342.18353L750.27795,344.3285L738.79346,347.4295L727.46686,351.4533L714.18915,354.86353L700.879,358.1709L688.0164,362.80768L674.5382,367.75677L661.5721,371.99628L648.3005,374.8963L635.47186,377.22296L623.73206,379.22894L611.0581,382.30103L598.2476,384.30908L587.63684,384.9214L578.0737,385.1936L572.0463,385.224L571.95044,385.18317L571.8775,386.77112L572.6591,386.4831L574.9887,385.88806L577.858,386.22375L581.257,387.26898L584.67035,388.7898L588.5436,390.84192L593.4716,393.48743L596.83636,395.58734L601.26544,398.222L604.8428,400.94806L610.6311,405.70404L614.0333,409.1657z" fill="#aaa" stroke="none" fill-opacity="1" />
				<path d="M863.1049,349.9804L863.3742,350.226L863.6861,350.4143L864.0289,350.5381L864.3892,350.59265L864.75323,350.57587L865.10693,350.4884L865.4369,350.33356L865.7302,350.11743L865.9758,349.8482L866.1641,349.53625L866.2879,349.19348L866.34247,348.83313L866.3258,348.46912L866.2382,348.11536L866.0835,347.78552L865.8673,347.49213L860.81287,341.13818L856.23224,338.64056L855.4468,338.3838L851.72205,337.79993L845.41876,338.477L841.1983,339.92224L837.7431,341.27588L834.4632,343.05426L829.4941,346.22058L825.7175,349.01752L821.89136,352.1709L817.00024,356.8329L812.20667,361.48956L808.6065,365.80212L804.4725,371.1963L801.84326,375.68903L800.3617,380.3958L800.2997,381.6302L800.7681,384.62274L801.1365,385.67175L801.85706,386.5185L805.1154,389.10858L806.3357,389.70374L809.83966,390.2948L811.0324,390.30707L815.87115,389.20184L825.1208,385.47156L832.45,382.0061L839.70087,377.88202L846.54144,373.8122L852.94,370.05048L857.359,367.21582L861.3999,365.04944L865.98425,361.47925L870.0236,357.8897L870.1746,357.7561L870.2966,357.59558L870.38495,357.41443L870.43616,357.21942L870.4484,357.01825L870.4212,356.81848L870.3556,356.62787L870.25397,356.4538L870.1203,356.30286L869.95984,356.18085L869.7787,356.09253L869.5836,356.04126L869.3825,356.029L869.1828,356.0562L868.9922,356.1219L868.81805,356.22345L864.1731,358.9173L859.39624,361.90973L855.69214,364.52856L851.3226,367.20642L844.7987,370.5479L837.63727,373.88043L830.1959,377.268L823.03625,380.52264L814.53345,383.9735L810.4934,384.714L808.3565,384.01117L806.414,382.64026L806.35394,381.31592L807.08685,378.04712L808.87286,374.08978L812.3789,368.69653L815.42706,364.6029L820.09125,360.117L824.81287,355.82867L828.7229,353.12158L832.347,350.5666L837.0605,347.59192L839.8598,346.03223L842.9547,344.69653L846.45026,343.45612L851.46857,342.41333L854.475,342.6864L857.5762,344.5854z" fill="#aaa" stroke="none" fill-opacity="1" />
				<path d="M882.16595,364.6443L882.2845,364.47266L882.3673,364.28125L882.41125,364.07727L882.4145,363.86877L882.377,363.6635L882.30023,363.4696L882.187,363.29437L882.0419,363.14453L881.8703,363.02594L881.67883,362.9431L881.4749,362.89923L881.26624,362.89594L881.0611,362.9334L880.8671,363.01025L880.6919,363.1234L880.5421,363.26862L877.3506,366.6173L877.1937,366.84735L877.088,367.10492L877.0381,367.37885L877.046,367.6571L877.1115,367.92767L877.23175,368.17877L877.4015,368.39954L877.6133,368.5802L877.858,368.713L878.1249,368.79218L878.40234,368.81427L878.67847,368.7782L878.94104,368.6858L881.32654,367.88116L886.9986,364.64856L891.00757,362.71326L896.1591,360.22687L902.84503,356.64313L909.6282,352.39087L917.1821,347.18866L925.7478,341.22906L933.432,336.22485L940.3408,331.57507L947.792,326.24164L955.9728,319.28705L962.4485,313.53186L968.0024,308.9619L972.534,304.88434L975.7099,301.57556L978.0838,298.02582L980.57715,295.091L980.8545,294.66656L982.3554,290.63733L982.4345,290.35175L982.44244,290.05548L982.3785,289.7661L982.2465,289.50085L982.0543,289.27533L981.81305,289.10297L980.2123,288.48737L979.95087,288.38977L979.6728,288.36877L977.3661,288.45508L976.9525,288.56964L973.34485,290.42303L968.0887,292.97784L960.20654,297.8208L950.6793,303.95453L941.5062,309.80084L933.93365,315.32886L926.73987,321.4818L920.53253,326.74554L912.62164,333.5125L905.1382,339.54913L898.69507,344.4131L891.27325,351.805L885.6495,357.91144L880.78217,362.93365L877.0131,367.0888L874.2949,371.8239L873.8976,373.04553L873.94196,374.32928L874.6769,377.2614L874.975,378.11615L875.4774,378.86908L876.1523,379.47235L876.95667,379.88757L882.15826,381.31573L883.43146,381.50055L891.6488,380.4964L901.18494,378.0174L913.5594,374.20618L926.4932,369.242L940.33203,362.57977L955.4105,355.7682L968.6583,349.76898L980.9754,342.05023L992.7908,334.00745L1003.545,326.99097L1011.89825,322.13177L1018.7745,318.63885L1024.666,313.31885L1024.7112,313.27814L1024.7474,313.22937L1024.7736,313.1745L1024.7885,313.1156L1024.7915,313.05493L1024.7828,312.99475L1024.7625,312.93744L1024.7313,312.88525L1024.6907,312.84015L1024.642,312.80383L1024.587,312.7777L1024.5281,312.76276L1024.4674,312.75964L1024.4072,312.76843L1024.3501,312.78876L1024.2979,312.81982L1017.74225,316.65308L1010.6122,319.5351L1002.3875,325.0089L990.8996,330.68988L977.9872,336.73584L965.1694,343.08545L952.71857,350.18274L937.9941,357.4629L924.00336,363.36792L911.66144,368.87964L899.8881,373.20502L891.08185,375.219L883.69904,375.1795L880.8974,374.16406L881.2232,374.07758L882.82263,371.30377L885.6719,367.1812L889.9901,361.91937L895.58453,356.01245L902.70874,348.7237L908.12616,342.83948L914.7911,335.94733L922.4078,328.99664L928.7338,324.0241L936.3937,318.6861L943.93726,313.3401L952.7581,307.0185L961.9011,300.36084L969.2794,295.12164L974.3144,292.30255L977.724,290.5509L979.5163,290.3667L979.68854,290.7166L978.41656,293.37677L975.7231,295.85138L972.8698,298.66528L969.40125,301.36694L964.84265,305.3435L959.5579,310.1919L953.0257,315.67694L944.69543,321.93787L937.1467,327.00995L930.561,332.0445L923.0663,337.31116L914.5521,343.44263L907.18884,348.68243L900.7262,352.95477L894.29254,356.6136L889.2575,359.2708L885.28485,361.47662L879.85266,364.9709L879.4268,366.6665z" fill="#aaa" stroke="none" fill-opacity="1" />
				<path d="M1038.1925,305.1825L1038.476,305.0298L1038.7242,304.82477L1038.9276,304.5752L1039.0785,304.2907L1039.1709,303.9823L1039.2014,303.66187L1039.169,303.34155L1039.0745,303.0337L1038.9218,302.75018L1038.7168,302.50195L1038.467,302.29846L1038.1827,302.14758L1037.8743,302.0551L1037.5537,302.02454L1037.2334,302.0572L1036.9255,302.15167L1028.1965,305.716L1019.7641,310.36786L1014.92773,313.776L1007.6137,319.10754L1000.0387,324.72083L992.7415,330.09735L984.94434,336.16876L976.4603,342.6765L970.32043,346.61633L962.7968,351.37164L955.972,356.09442L949.4201,360.55737L944.33344,363.81793L939.2128,365.47235L938.3634,366.1825L937.7317,367.0918L937.3627,368.13562L936.3269,370.82465L936.2293,371.80414L936.3415,372.7821L936.6585,373.71393L937.16583,374.5575L937.84045,375.27435L938.65173,375.8318L939.56274,376.2047L941.5155,376.8344L947.6035,375.95605L956.63055,372.94202L967.3522,369.25507L978.93024,364.77118L991.7874,360.00903L1002.92004,356.3156L1012.6853,353.24805L1023.4992,349.49268L1032.5433,345.94733L1043.5059,342.1657L1053.4414,339.48334L1062.6125,337.57428L1068.3765,336.0307L1075.3717,334.5722L1079.4572,333.83435L1082.978,333.66144L1086.6322,333.30603L1088.5201,332.68762L1088.6957,332.7425L1088.4523,333.6469L1083.0121,337.44806L1078.0442,339.8551L1070.0951,342.9956L1061.7542,346.2837L1054.2538,349.04852L1046.112,352.13L1039.5914,354.9702L1031.8987,357.86798L1027.2875,359.49L1022.12305,361.10016L1020.8656,362.5775L1021.6866,366.33313L1022.62683,366.2948L1028.0105,364.92456L1036.5833,362.59082L1047.851,359.0584L1059.2634,355.4596L1071.8989,352.75037L1081.8629,350.60303L1092.804,348.17603L1102.493,345.1198L1113.3778,340.96008L1122.6237,337.4007L1132.0691,334.5271L1141.455,332.27637L1148.983,330.71777L1155.1326,329.24823L1160.5126,327.3816L1162.1089,325.66986L1162.0023,323.41602L1162.054,323.25702L1157.9205,324.83453L1152.9556,326.26727L1146.0414,328.09393L1136.4615,330.5558L1126.6377,333.08838L1118.9382,335.1454L1111.2496,337.15363L1101.2745,339.9372L1094.2382,342.19348L1085.0881,345.33698L1075.4644,349.11322L1066.0376,352.85223L1058.5745,355.69617L1050.8895,358.78156L1044.7167,361.83997L1040.6913,364.1125L1037.2935,366.79535L1036.9237,367.23157L1036.6876,367.75238L1036.603,368.31793L1036.2866,371.26324L1036.3395,371.78253L1036.5055,372.27753L1036.7764,372.72382L1037.139,373.0995L1037.5754,373.386L1040.7556,375.16394L1041.8075,375.43384L1045.3427,375.54803L1052.2289,374.16992L1061.4086,371.49072L1070.6094,368.73187L1082.0988,365.399L1094.1346,361.78174L1103.5503,359.42163L1113.3256,357.1861L1122.6029,354.80682L1132.1394,352.30145L1139.7384,349.6374L1148.5159,346.81403L1154.6951,344.93134L1161.8196,342.82965L1166.3043,341.34583L1170.0038,339.66736L1175.1053,337.71014L1179.8918,335.8109L1182.9358,336.41333L1186.2875,336.90167L1191.5631,337.31433L1196.294,337.07733L1200.4506,336.69116L1205.2266,335.6507L1211.4519,334.59772L1220.2795,332.5556L1227.9181,330.61743L1236.831,328.53345L1244.5894,327.54608L1250.3539,327.224L1256.0121,326.9983L1260.1827,326.55096L1264.7513,326.0335L1270.111,325.6267L1274.4231,325.96405L1278.8037,327.31134L1282.7832,327.90387L1285.6605,329.12744L1288.6674,329.49188L1295.001,332.79218L1295.1865,332.8667L1295.3828,332.90363L1295.5826,332.9015L1295.7783,332.86047L1295.962,332.7821L1296.1271,332.6693L1296.2668,332.52655L1296.3761,332.35925L1296.4506,332.17383L1296.4875,331.97748L1296.4855,331.77765L1296.4443,331.5821L1296.366,331.3982L1296.2532,331.23328L1296.1105,331.09344L1295.9432,330.98425L1289.42,327.58527L1289.0173,327.47217L1286.1722,327.40387L1283.2343,326.4192L1279.0393,326.22003L1274.5712,325.2812L1270.1871,324.7782L1264.8907,323.61725L1260.2332,322.9251L1255.9775,322.48364L1250.1262,322.58435L1244.1122,323.56323L1236.251,324.8559L1227.0687,326.2633L1219.2349,327.43738L1210.5192,329.12567L1204.2521,330.0268L1199.5977,331.08313L1195.8627,331.7044L1191.598,332.03412L1186.4509,332.13135L1182.9021,332.37408L1179.5563,333.84406L1174.2476,334.5869L1168.7767,335.9242L1164.8749,337.10437L1160.4264,338.51447L1153.5352,340.9314L1147.338,342.50494L1138.316,344.5119L1130.5073,346.4079L1121.0115,349.05212L1111.904,352.0846L1102.4169,355.11603L1093.0403,357.63953L1080.8231,360.7417L1069.2075,363.71222L1059.9117,366.47925L1051.0325,369.1858L1045.1906,370.53918L1042.5248,370.45312L1041.0121,369.84705L1040.7292,369.27136L1042.7717,367.13177L1046.287,364.66656L1052.0826,361.3612L1059.467,357.8141L1066.7097,354.55164L1076.1536,350.9489L1085.8396,347.56146L1095.0485,344.7027L1102.0256,342.45355L1111.8943,339.46637L1119.487,337.27612L1127.2106,335.4488L1137.1115,333.25555L1146.7737,331.02167L1153.7391,329.1231L1158.7684,327.6344L1162.9092,326.44873L1164.0573,326.4912L1164.4833,326.33215L1164.8616,326.07953L1165.1715,325.74677L1165.3969,325.35162L1165.5254,324.91534L1165.5502,324.46118L1165.9552,323.55737L1165.8641,323.03107L1165.66,322.53754L1165.353,322.1006L1164.9578,321.74133L1164.4935,321.4773L1163.9828,321.32123L1163.4503,321.28064L1162.9219,321.35754L1159.0527,321.98334L1153.4739,323.41052L1147.5273,325.31085L1140.1989,327.7057L1131.0752,331.0293L1121.506,333.4499L1111.7515,335.52283L1100.503,338.1571L1090.6407,340.55176L1080.0636,344.55133L1070.6156,348.16547L1058.3833,352.2782L1046.8195,355.1969L1035.3698,357.60724L1026.6869,359.3708L1021.0071,360.6546L1017.85297,361.79633L1017.22766,362.1596L1016.7035,362.65784L1016.3091,363.26385L1016.06555,363.94482L1015.98645,364.6637L1016.07056,365.04218L1016.1401,365.66467L1016.3364,366.25946L1016.6514,366.80103L1017.0711,367.2658L1017.5779,367.6341L1018.14966,367.88995L1018.76184,368.02222L1019.38837,368.02545L1020.00183,367.8993L1023.9403,366.44458L1029.0928,363.81207L1033.3678,361.57928L1041.0045,358.60065L1047.6373,356.08643L1055.7861,353.00415L1063.1447,349.60718L1071.302,345.81152L1079.073,342.21875L1084.2593,339.9947L1090.872,336.61633L1091.2915,336.27655L1091.5981,335.83228L1093.1669,333.7199L1093.359,333.17358L1093.4124,332.59692L1093.3236,332.02466L1093.0981,331.49127L1092.0007,329.2431L1091.6069,328.72675L1091.0947,328.32758L1090.4978,328.07184L1089.8556,327.97632L1086.5872,327.5876L1082.4236,327.9087L1078.7465,328.59528L1074.5795,329.36908L1067.4265,329.91516L1061.1686,330.73016L1051.8628,333.52222L1041.8854,336.71906L1030.6033,339.7011L1021.0867,342.28644L1010.1819,346.0923L1000.59686,349.89185L989.7744,354.58704L976.97064,359.25916L965.2955,362.94714L954.49,366.09784L946.66644,368.2079L943.3346,367.6897L944.8027,369.39014L944.83954,371.35565L947.3856,368.56537L952.30145,365.02112L959.1495,360.9879L966.083,356.13214L973.17487,350.82855L979.1786,346.5816L987.87024,339.96106L995.59937,333.72968L1002.5355,327.9345L1009.8345,322.0302L1016.8885,316.5152L1021.4861,313.30304L1029.6085,308.8546z" fill="#aaa" stroke="none" fill-opacity="1" />
				<path d="M972.9989,329.4995L972.5285,329.70782L972.1119,330.0094L971.7669,330.39093L971.5089,330.83594L971.34906,331.32483L971.2941,331.83624L971.347,332.34796L971.50494,332.83746L971.7613,333.2835L972.10474,333.66638L972.5204,333.96948L972.98987,334.17957L973.49286,334.28748L974.0071,334.2885L974.5105,334.18243L981.8621,332.1676L985.8784,330.34406L990.8671,328.9879L995.1872,328.14117L1000.75073,326.7702L1007.38306,325.4583L1013.3837,324.7627L1020.333,323.50354L1025.6174,322.43134L1028.988,322.03754L1032.0114,321.42468L1032.1727,321.4084L1032.328,321.36102L1032.471,321.28418L1032.5961,321.1809L1032.6989,321.0553L1032.7749,320.91193L1032.8217,320.75653L1032.8373,320.59503L1032.821,320.4336L1032.7736,320.27832L1032.6968,320.13544L1032.5934,320.0102L1032.4678,319.90753L1032.3245,319.83136L1032.1691,319.78455L1032.0076,319.76904L1028.9779,319.1698L1025.4386,318.82745L1019.6435,319.69537L1012.83203,321.07745L1006.8574,322.00647L1000.0466,323.4151L994.5447,324.60425L990.20795,325.18793L984.86035,325.88153L980.1521,326.8322z" fill="#aaa" stroke="none" fill-opacity="1" />
				<path d="M1087.9564,308.79382L1087.5101,308.9663L1087.106,309.22253L1086.7595,309.55273L1086.4843,309.9441L1086.2908,310.38165L1086.1863,310.84857L1086.1748,311.3269L1086.2568,311.79834L1086.4293,312.2447L1086.6855,312.64874L1087.0156,312.99506L1087.4071,313.27032L1087.8446,313.46393L1088.3115,313.56848L1088.7899,313.57996L1089.2614,313.49786L1102.2368,310.1872L1110.2454,307.61517L1119.1931,304.80096L1128.5115,302.59418L1136.9061,300.98224L1144.2704,299.30072L1150.691,297.9577L1157.669,296.6949L1165.8672,295.77966L1173.513,294.722L1180.19,293.2168L1185.8966,292.2608L1191.5569,291.4754L1196.033,289.5279L1196.2072,289.4516L1196.3633,289.34265L1196.4952,289.2055L1196.5977,289.04523L1196.6669,288.86798L1196.7003,288.6806L1196.6964,288.49042L1196.6556,288.3045L1196.5793,288.1303L1196.4703,287.97424L1196.3333,287.8424L1196.1729,287.73987L1195.9957,287.6706L1195.8083,287.63727L1195.6182,287.64105L1195.4323,287.68195L1191.2266,288.5014L1185.7147,288.18805L1179.7788,287.83496L1172.5465,288.41516L1165.0398,289.78528L1156.848,291.01068L1149.6089,292.39233L1143.0189,293.89795L1135.7007,296.17352L1127.53,298.60992L1118.2472,301.09204L1109.0352,303.07184L1100.7974,304.94238z" fill="#aaa" stroke="none" fill-opacity="1" />
			</g>
		</g>
	</g>
</svg>
