<svg viewBox="0 0 1892.48 707.39" xmlns="http://www.w3.org/2000/svg" data-sanitized-data-name="Layer 1" data-name="Layer 1" id="Layer_1">
  <defs>
    <style>
      .cls-1 {
        fill: #fff;
      }
    </style>
  </defs>
  <path d="M183.17,515.41c-.63-15.11-2.27-29.95-5.48-44.67-1.05-4.82-2.32-9.59-3.48-14.38-1.73-7.13-3.67-14.21-5.1-21.39-1.51-7.57-2.96-15.19-3.67-22.87-.72-7.8-.49-15.68-.67-23.53h-.17c-.09-.81.03-1.72-.31-2.4-.96-1.86-2-4.99-3.21-5.09-1.9-.16-4.25,1.45-5.88,2.91-1.43,1.28-2.42,3.26-3.12,5.11-4.42,11.62-5.89,23.73-4.85,36.05.9,10.69,2.32,21.34,3.58,32,.17,1.41.76,2.76,1.05,4.16,1.71,8.13,3.75,16.22,4.96,24.43,1.01,6.84,1.41,13.83,1.36,20.75-.04,5.49-1.06,10.99-1.88,16.45-.51,3.38-1.12,6.82-2.32,9.99-1.37,3.6-4.35,6.75-5.06,10.4-1.53,7.78-6.27,11.96-13.16,14.69-6.84,2.7-10.88,14.22-6.95,19.62,2.85,3.9,7.23,3.36,11.23,3.28,5.94-.12,11.88-.63,17.82-1.04,9.05-.64,18.12-1.18,27.14-2.17,1.59-.18,4.02-2.21,4.21-3.64.41-2.99-.37-6.15-.72-9.23-1.85-16.47-4.61-32.9-5.3-49.41l-.02-.02Z" class="cls-1"/>
  <path d="M243.14,512.81s.08-.01.12-.02c-.45-2.82-.45-5.81-1.45-8.43-1.7-4.45-8.88-6.13-14.82-4.07-1.4.49-3.14.67-4.56.34-6.81-1.58-13.63-2.3-19.49,2.24-2.83,2.19-7.49,3.08-7.72,7.69-.21,4.17-.11,8.4.37,12.55.72,6.22,2.2,12.36,2.76,18.59.57,6.3.24,12.68.64,19.01.32,5.16,3.52,6.42,7.9,3.62,2.09-1.33,4.44-2.29,6.75-3.25,3.45-1.43,7.23-2.25,10.38-4.15,5.27-3.18,10.17-6.98,15.15-10.62.67-.49.97-1.57,1.32-2.42.72-1.73,1.02-3.75,2.09-5.21,2.43-3.31,2.8-6.86,2.29-10.74-.65-5.03-1.16-10.09-1.73-15.13h0Z" class="cls-1"/>
  <path d="M460.53,167.76c3.97-3.27,7.76-6.76,11.79-9.96,6.34-5.03,11.75-11.19,18.17-16.48,7.26-5.98,9-14.09,1.37-20.03-2.16-1.68-4.59-3.28-6.09-5.47-4.96-7.27-9.52-14.82-14.3-22.21-.76-1.17-1.8-2.24-2.92-3.08-4.03-3.03-3.4-4.46-6.54-8.86-1.98-2.77-4.95-3.37-9.9-1.39-4.69,1.88-7.71,3.62-12.27,5.55-8.14,3.44-13.43,8.99-15.72,17.29-.93,3.35-1.08,6.99-1.08,10.49,0,9.83.19,19.66.44,29.48.1,3.82.89,7.65.79,11.45-.24,8.68-1.35,17.36-1.18,26.02.34,17.26-2.28,33.97-12.43,48.04-7.16,9.93-10.47,21.47-23.32,24.76-3.78.97-7.16,3.41-7.82,6.3-.26,1.16-.9,4.1,0,4.78,2.38,1.81,5.2-.19,7.82-1.52,2.45-1.24,3.63-3.4,6.35-3.67,12.79-1.26,25.59-2.36,38.36.62,1.61.38,4.12-.92,5.51-2.2,4.74-4.37,6.48-9.75,5.98-16.41-.57-7.57,1.57-15.57-.11-22.76-2.45-10.48,1.69-20.5.06-30.82-.61-3.86,1.62-7.91,1.17-12.5-1.19-12.19-.99-24.51-1.2-36.79-.02-1.38.88-2.77,1.35-4.15,1.13-1.12,5.27-.94,7.84.07,1.28.12-.02,6.08.16,8.87.45,7.02-.41,12.81.66,19.76,1.09,7.06,1.71,9.21,7.07,4.8v.02Z" class="cls-1"/>
  <path d="M489.16,183.51c-5.68-2.57-12.58-2.02-17.35-7.05-.74-.78-3.76-.53-4.83.34-3.43,2.79-6.71,5.89-9.52,9.3-1.46,1.76-2.03,4.38-2.61,6.71-.57,2.28.49,3.51,3.04,3.6,8.34.31,16.68.76,25.76,1.2,2.67-1.48,5.96-2.54,8.16-4.71,3.63-3.59,1.93-7.31-2.65-9.38h0Z" class="cls-1"/>
  <path d="M490.03,241.58c.14-4.41-1.15-5.49-5.6-5.36-5.18.15-10.38.2-15.55-.09-7.92-.43-11.92,1.95-13.26,9.64-1.22,6.97-2.55,14.5,5.94,18.51,2.5,1.18,5.13,2.39,7.81,2.73,1.06.14,2.31-2.22,3.67-3.16,3.76-2.58,7.71-4.89,11.43-7.53,1.53-1.09,3.21-2.52,3.86-4.18,1.11-2.83,1.46-5.96,2.13-8.96-.17-.04-.33-.07-.5-.11.02-.5.05-1.01.06-1.51v.02Z" class="cls-1"/>
  <path d="M1219.53,153.49c0,3.01.53,4.57.75,7.56.06.88.98,2.17,1.75,2.39.86.24,2.34-.23,2.97-.92,3.98-4.33,7.89-8.73,11.66-13.24,3.47-4.14,7.12-8.2,12.76-8.77,4.08-.41,4.21-2.67,3.01-5.17-1.24-2.57-3.24-4.84-5.17-7.01-6.48-7.29-13.04-10.36-14.59-20.97-.11-.77-4.91-1.85-5.09-1.7-2.67,2.33-5.43,1.12-6.2,4.06-1.59,6.05-1.75,12.54-1.99,18.87-.29,7.81-.07,15.64-.07,23.45.29,0-.09,1.45.2,1.45h0Z" class="cls-1"/>
  <path d="M485.38,207.59c-5.56,2.99-11.42,2.58-17.24,1.62-2.22-.37-4.15-2.22-6.37-2.89-1.61-.49-3.69-.64-5.16,0-1.19.51-2.47,2.4-2.51,3.72-.14,5.04.11,10.11.42,15.15.08,1.32.89,2.6,1.37,3.9,1.29-.52,2.98-.69,3.81-1.63,2.25-2.56,4.75-2.54,7.77-1.94,5.55,1.1,11.16,1.85,14.32,2.36,9.07-.12,11.57-2.69,11.48-9.21-.03-2.05-.03-4.1.05-6.15.21-5.7-2.82-7.67-7.94-4.91v-.02Z" class="cls-1"/>
  <path d="M905.84,128.52c2.29,1.89,4.05,5.29,4.57,8.26.81,4.56,3.21,7.76,6.75,9.86,4.03,2.39,9.02,3.28,12.82,5.92,4.43,3.08,5.22,4.92,10.3,5.87,2.59.49,4.01-2.01,4.32-4.94.33-3.15.48-5.78.62-8.96.18,0-.18-5.24,0-5.25-1.43-6.77-.21-8.1-1.85-14.82-.25-1.01-3.66-3.14-4.63-3.09-6.7.37-8.48-.92-14.62-2.99-2.85-.96-5.8-1.63-8.68-2.48-1.62-.48-3.33-.83-4.8-1.62-1.83-1-3.33-2.63-5.18-3.55-2.2-1.09-5.95,1.14-5.58,3.52.79,5.15,1.28,10.39,5.97,14.26h-.01Z" class="cls-1"/>
  <path d="M941.36,185.33c0-7.23-3.16-10.13-10.45-10.93-5.84-.64-11.95-.75-16.75-5.44-1.09-1.07-5.5-.92-6.06.03-2.34,3.98-4.51,8.34-5.42,12.82-1.88,9.25-2,18.55,2.33,27.42,2.71,5.54,4.69,11.43,9.52,15.75,2.72,2.43,5.2,3.29,8.22.74,5.22-4.42,10.53-8.74,15.66-13.26,1.03-.91,1.89-2.47,2.05-3.82.6-4.99.88-10.01,1.29-15.02-.13,0-.26-.02-.39-.03v-8.25h0Z" class="cls-1"/>
  <path d="M757.32,163.56c.39,7.64,1.33,15.26,2.08,22.88.59,6.05,1.27,12.08,1.91,18.13-.17.02-.34.03-.51.05,0,1.46.03,2.92,0,4.38-.2,8.88,3.07,13.37,11.79,16.32,1.2.4,2.2,1.34,3.37,1.87,7.85,3.56,13.88,4.4,21.89,7.54,1.33.52,4.93.54,5.84-.88,1.29-2.03,2.41-4.52,2.12-6.9-.8-6.58-.76-12.09-.92-18.82-.22-9.58-2.78-19.08-1.32-28.91.58-3.88-.42-7.98-.6-11.99-.44-9.35-.36-18.76-1.4-28.04-.54-4.85-3.36-8.76-7.99-11.93-5.61-3.84-9.81-9.69-15.04-14.18-1.46-1.26-4.42-1.17-6.63-.96-.85.08-1.26,2.5-2.28,3.37-7.83,6.63-12.51,14.79-12.54,25.23-.02,7.61-.14,15.24.25,22.84h-.02Z" class="cls-1"/>
  <path d="M119.99,514.54c-.9-7.18-1.66-14.37-2.46-21.56-1.75-15.8-4.77-31.61.73-47.32,1.05-3.01.93-6.54,2.39-9.27,2.08-3.93,5.38-7.19,7.69-11.02,3.56-5.91,7.03-11.92,9.95-18.15,1.97-4.2.3-6.23-4.12-7.04-4.45-.81-6.43,1.92-8.22,5.13-1.36,2.45-2.09,5.87-4.16,7.16-3.06,1.89-4.15,4.47-5.74,7.28-2.59,4.56-5.72,8.93-9.27,12.78-3.78,4.09-9.14,6.9-12.32,11.33-3.79,5.28-6.47,11.51-8.78,17.66-5.87,15.66-8.41,31.85-5.6,51.21,1.26,4.45,1.33,11.92,2.29,19.13.32,2.39-.35,12.22-.39,14.19-.11,5.14-8.96,13.02-6.22,16.33,1.23,1.48,11.27-3.69,15.35-5.05,4.63-1.54,15.32.88,19.12,3.94,1.35,1.08,5.25,1.33,6,.38,2.32-2.92,4.33-6.42,5.31-10.01,2.51-9.19,1.83-18.54.08-27.82-.58-3.08-1.24-6.15-1.63-9.26v-.02Z" class="cls-1"/>
  <path d="M207.88,488.54c8.42-4.49,17.03-4.55,25.88-1.29,1.72.63,3.77.37,5.66.52.07-1.94.4-3.9.16-5.8-.64-5.01-1.48-9.99-2.32-14.96-.33-1.95-.86-3.87-1.3-5.8-2.31.61-4.67,1.08-6.9,1.88-1.26.45-2.23,1.86-3.49,2.13-6.49,1.4-12.98,3.16-19.55,3.6-3.44.23-7.72.79-10.74-2.77-.9-1.07-3.18-1.77-4.5-1.43-1.09.28-2.43,2.39-2.4,3.66.1,4.09.79,8.17,1.25,12.25-.17.05-.34.09-.51.14,1.04,3.88,2.06,7.76,3.11,11.63.95,3.5,3.03,3.29,5.64,1.78,3.3-1.91,6.65-3.74,10.02-5.54h-.01Z" class="cls-1"/>
  <path d="M1352.67,174.34c.61-.07,1.31-.22,1.83,0,5.44,2.23,7.28-1.44,9.66-5.26,7.47-11.94,15.38-23.61,22.88-35.54.96-1.53.86-4.03.45-5.91-.13-.59-2.97-1.02-4.45-.79-5,.8-9.69,2.33-15.03.43-3.42-1.21-8.04-1.27-11.38.05-4.7,1.86-7.55.88-10.59-2.56-.95-1.07-3.28-2.19-4.18-1.73-1.31.67-2.46,2.67-2.67,4.24-.55,4.21-.86,8.5-.73,12.74.17,5.32.88,10.63,1.36,15.94-.08,0-.15,0-.23.02.03,1.54-.07,3.09.11,4.61,1.16,9.51,3.65,14.88,12.95,13.76h.02Z" class="cls-1"/>
  <path d="M1337.27,233.31c1.82,2.19,3.81.78,5.27-1.13,2.49-3.24,4.8-3.96,6.73,1.09,1.16-.72,2.32-1.01,2.58-1.67,1.38-3.51,3.74-3.04,6.67-2.26,8.11,2.14,16.25,4.22,24.46,5.92,6.83,1.41,9.69-1.31,9.82-8.56.01-.62,0-1.24-.03-1.85-.5-9.66-.9-19.33-1.54-28.98-.29-4.44-1.71-8.78-6.73-9.55-4.02-.61-4.38-2.91-4.75-6-.18-1.45-1.08-3.91-1.84-3.98-1.59-.15-3.93.48-4.86,1.66-3.46,4.39-6.48,9.12-9.64,13.74-4.29,6.27-8.42,12.66-12.87,18.81-4.32,5.96-9.12,11.58-13.35,17.6-.84,1.19-.79,4.09.1,5.16h-.02Z" class="cls-1"/>
  <path d="M968.63,474.02c3.96,1.69,5.96-.06,7.66-3.18,1.73-3.18,3.46-6.36,5.26-9.5,4.07-7.1,5.97-14.62,5.25-22.88-1.08-12.47-2.32-24.95-2.58-37.45-.19-8.96,1.26-17.94,1.67-26.92.09-1.88-.63-4.89-1.92-5.55-6.81-3.49-7.97-.72-14.98-3.82-2.22-.98-9.62-1.65-11.98-1.45-4.36.36-8.9,2.39-10.17,5.45-2.16,5.23-5.27,5.02-5.81,10.53-1.06,10.89-.65,15.03-.8,26-.16,11.86-.04,23.73-.04,36.09.28,2.2.87,4.89.93,7.58.19,8.86,10.86,21.85,19.61,23.6,2.64.53,5.49.49,7.9,1.51h0Z" class="cls-1"/>
  <path d="M1076.28,195.13c.05,3.53.7,7.12,1.64,10.53.63,2.26,1.72,5.06,3.51,6.22,7.79,5.02,16.18,8.54,25.77,8.41,7.11-.1,9.37-1.52,11.7-8.68,4.52-13.82,1.93-27.95,1.34-41.92-.4-9.54-2.18-19.02-3.34-28.53-.37-7.79-.14-16.1-7.75-21.22-1.85-1.25-3.7-2.63-5.16-4.29-2.4-2.73-3.88-1.98-6.15.38-4.12,4.26-8.78,8-13.1,12.07-2.72,2.56-7.02,5.07-7.47,8.07-1.08,7.27-.32,14.81-.3,22.24.02,6.86.16,13.73.03,20.59-.1,5.38-.8,10.77-.73,16.14h.01Z" class="cls-1"/>
  <path d="M1268.05,445.17c-.15-8.48-.04-16.96-.04-27.01-.27-5.18-.58-11.93-.99-18.67-.25-4.16-.47-8.33-1.04-12.45-.66-4.77-4.26-8.89-8.22-7.97-8.34,1.93-9.56,3.47-15.06-2.28-.44-.46-4.85-1.9-5.41-2.17-3.24-1.5-9.63,4.77-10.28,7.58-1.25,5.38-2.7,2.48-2.64,7.94.13,12.06,1.19,24.12,1.71,36.18.14,3.29-.73,6.64-.39,9.89.9,8.52,2.74,16.96,3.23,25.49.62,10.76,5.01,18.36,15.52,21.56,4.67,1.42,9.63,1.88,14.4,3,6.08,1.44,10.08-1.43,10.15-7.63.07-6.36.14-12.72-.02-19.07-.12-4.81-.8-9.6-.89-14.41l-.03.02Z" class="cls-1"/>
  <path d="M1004.72,504.36c-6.74-3.58-11.06-9.17-12.65-16.79-.63-3.04-1.3-6.16-2.56-8.96-1.53-3.39-4.31-3.31-6.43-.3-4.57,6.49-8.83,13.25-13.92,19.31-4.68,5.58-10.19,10.49-15.52,15.49-2,1.88-3.29,4.03-2.1,6.36,1.2,2.33,3.67,2.46,6.35,1.85,2.6-.6,5.39-.36,8.09-.52,1.06-.06,2.13-.17,3.19-.32,4.86-.68,9.71-1.65,14.59-1.93,2.1-.12,4.27,1.18,6.41,1.83.03-.28.07-.56.1-.84,5.86-.38,11.75-.56,17.55-1.33,1.12-.15,2.85-2.73,2.71-4.03-.42-3.98-1.71-7.63-5.82-9.81h.01Z" class="cls-1"/>
  <path d="M1726.17,440.31c-.86-.75-.97-2.56-1.08-3.91-.33-4.21-2.75-7.77-6.21-8.67-4.23-1.11-7.2-2.89-9.75-6.26-2-2.64-4.38-5.11-7.03-7.08-1.36-1.02-4.84.89-5.9,1.67-6.54,4.83-12.75,7.17-12.91,16.52-.04,2.06.36,4.18.02,6.19-1.45,8.76-3.06,17.5-4.71,26.23-.47,2.49-1.72,4.89-1.88,7.37-.53,8.46-.72,16.93-1.05,25.4-.25,0-.5-.02-.75-.03-.64,4.49-1.37,8.97-1.91,13.48-.7,5.79,1.49,9.47,5.89,11.75,8.67,4.51,14.83,8.64,23.65,12.79,4.92,2.31,12.18,2.03,15.32-3.76,1.08-1.98.77-3.4.89-5.78.22-4.45-.19-8.95.33-13.36,1.24-10.46,2.88-20.87,4.36-31.3,1.4-9.82,2.68-19.65,4.27-29.44.68-4.18,2.56-8.23-1.56-11.82h.01Z" class="cls-1"/>
  <path d="M1847.57,353.68c-1.33-4.91-1.33-10.18-2.17-15.24-.3-1.81-.89-3.87-2.09-5.08-.51-.51-3,.8-4.5,1.49-5.84,2.68-11.59,5.53-17.47,8.11-1.41.62-3.26.85-4.77.54-4.34-.89-7.61.89-10.58,3.63-5.83,5.4-11.54,10.94-17.42,16.28-4.78,4.34-9.32,9.17-14.76,12.48-5.69,3.46-12.15,5.98-18.59,7.82-.92.26-1.85.48-2.77.72-4.97,2.82-3.02.83-5.01,1.66-2.49,1.04.29,4.25-2.32,4.81-4.35.94-6.1-5.84-9.14-8.98-3.94-4.07-7.54-8.46-11.38-12.63-4.49-4.88-8.79-9.97-13.67-14.43-5.67-5.19-12-9.65-17.79-14.73-2.89-2.54-5.06-5.89-7.82-8.61-6.67-6.58-13.53-12.96-20.23-19.51-3.75-3.67-10.13-4.84-15.34-2.48-2.07.94-4.11,1.95-6.08,3.08-11.14,6.41-17.7,16.2-16.01,30,1.15,9.37,4.49,19.67-5.14,23.77-3.91,1.67-5.06,2.19-5.34,2.35-3.18-.92-1.84-1.78-4.16-5.07-.01-.02-.03-.03-.04-.05-3.58-4.37-7.38-8.64-11.57-12.41-1.42-1.27-4.48-1.59-6.51-1.13-5.31,1.23-10.54,2.93-15.66,4.83-4.31,1.6-8.38,3.82-12.61,5.62-3.32,1.41-7.45,4.5-9.97,3.55-10.25-3.9-21.71-6.34-27.58-17.56-.84-1.6-4.43-2.88-6.42-2.52-3.57.64-7.03,2.38-10.28,4.13-7.97,4.3-15.68,9.08-23.75,13.17-2.04,1.04-5.26.91-7.53.14-5.93-2.02-11.66-4.64-17.42-7.13-.96-.41-2.71,2.5-3.69,2.1-2.02-.8-4.01-1.65-5.63-2.96-5.77-4.64-11.1-9.81-16.69-14.67-.88-.77-2.39-1.64-3.31-1.38-2.92.81-6.08,1.62-8.44,3.37-4.23,3.13-8.02,6.87-11.85,10.51-4.65,4.41-6.22,4.39-10.83.35-2.91-2.55-6.04-4.94-9.39-6.86-7.91-4.52-14.62-9.97-18.26-18.69-2.23-5.33-4.96-10.45-7.51-15.64-1.44-2.94-3.47-3.51-5.53-.74-8.01,10.75-15.44,21.98-24,32.28-8.06,9.69-17.25,18.66-31.84,14.19-1.61-.49-3.09-1.38-4.56-2.32l.05-7.77c-.91-.34-1.98-.32-2.95-.54-2.14-.48-4.37-.75-6.39-1.56-3.59-1.44-6.96-3.47-10.58-4.78-7.24-2.62-14.52-4.55-20.36-10.49-2.89-2.94-8.24-4.4-12.59-4.67-3.52-.22-7.41,1.97-10.8,3.74-12.57,6.57-24.96,13.51-37.51,20.12-6.2,3.26-12.82,3.57-19.2,1.65l-.37-5.06c-4.2-3.62-7.66-8.11-11.1-12.6-3.22-4.2-6.96-8.03-10.68-11.81-.74-.75-2.78-1.14-3.68-.67-4.13,2.17-8.29,4.41-12.02,7.19-4.02,2.99-7.57,6.6-11.31,9.96-2.48,2.23-5.08,2.54-8.01.82-7.12-4.18-14.42-8.06-21.39-12.48-4.28-2.71-8.21-4.37-12.95-1.29-2.54,1.65-5.34,2.88-7.92,4.46-4.71,2.87-9.15,6.28-14.1,8.6-1.72.8-5.69.12-6.99-.34-.26-.08-5.54-2.45-5.59-2.48-3.92-2.58-4.13-4.51-7.17-4.01-4.2.69-8.35,1.88-12.42,3.15-4.01,1.25-7.8,3.49-11.88,4.13-4.53.72-9.9,1.56-13.82-.15-12.58-5.49-24.27-12.63-32.95-23.78-.76-.98-2.98-1.89-3.93-1.48-8.29,3.55-16.71,6.98-22.62,14.36-.89,1.11-2.13,2.04-3.38,2.74-12.69,7.11-25.5,13.78-40.07,16.58-3.99.77-7.59.79-10.76-.62l.02.58c-.49-.36-.97-.72-1.43-1.18-8.25-8.15-17.55-15.34-23.06-26.04-3.4-6.58-6.94-7.02-12.88-2.54-6.08,4.58-11.97,9.42-18.19,13.81-1.77,1.25-4.66,2.28-6.54,1.74-3.46-1-6.77-2.95-9.76-5.05-5.17-3.63-9.93-7.84-15.07-11.5-7.91-5.64-8.19-5.75-15.3,1.12-10.38,10.02-20.45,20.37-30.61,30.61-3.99,4.02-5.15,10.55-11.11,10.69-.92-.58-9.4-13.5-12.18-15.62-7.57-5.77,2.91-2.65-9.13-9.27-2.3-1.26-3.97-.53-5.96-2.65-2.84-3.03-1.72-.13-6.22-3.18-5.09-3.44-.05-9.05-14.43-.66-2.78,1.62-7.34,4.63-10.06,6.35-5,3.17-9.52,2.3-14.69,5.16-3.53,1.95-4.29,1.23-12.05,5.3-1.45.76-10.03,1.62-11.6,2.33-5.18,2.34-6.72,6.15-13.39,3.77-2.61-1.67-5.21-3.33-7.9-4.85-2.13-1.21-5.29-.95-7.95-.79-4.26.26-8.55,1.7-12.72,1.34-4.4-.39-15.47,6.03-22.74,5.37-11.51-1.05-12.79-7.87-23.45-12.55-8.6-3.77-16.53-11.15-25.43-14.2-5.89-2.02-9.73-10.6-15.44-13.25-4.76-2.21-10.4-2.98-14.57-5.92-3.97-2.8-7.9-5.65-11.81-8.53,1.64-.54,3.29-1.09,4.92-1.68,6-2.16,11.84-4.85,17.56-7.68,2.61-1.29,2.57-.97,5.46-3.39,7.27-6.08,4.45-3.42,7.72-6.37.72-.65,4.01-4.58,7.91-3.57v-.06c5.54,2.74,11.23,4.99,17.34,6.66,10.16,2.78,16.24,3,23.84,9.66,6.14,5.38,10.89,4.17,17.86-.32,6.27-4.03,11.01-7.28,17.06-11.64,2.87-2.07,6.73-3.06,9.73-1.43,13.66,7.42,15.64,6.1,25.96,18.27,1.48,1.74,4.06,2.54,6.14,3.78.36-.44,3.08,2.94,3.44,2.5-.2-.91-2.75-5.64-2.96-6.55-1.35-5.86,10.82-15.07,16.36-17.4,6.67-2.8,8.73-12.87,16.58-14.12l16.53-1.21c10.32-.79,20.3,2.55,30.07,6.32,10.78,4.15,23.41,6.35,31.58,15.04,4.32,4.59,6.67,19.78,10.74,24.6,2.91,3.44,3.71-12.72,7-15.88,4.07-3.91,7.22-10.64,12.03-13.23,12.49-6.75,18.04-8.34,31.93-11.35,4.81-1.35,10.28-8.71,15.79-8.37.31.02.64-.22.94-.2,7.44.37,5.24-.1,9.56,3.06,3.29,2.41,9.43,3.54,13.57,4.24,4.84.82,9.74,2.74,13.29,5.94,3.65,3.29,15.51,3.62,20.64,2.83,5.37-.82,9.26-5.39,13.15-8.06,3.55-2.43,8.12-4.31,12.72-6.22,3.89-1.62,9.9,13.17,13.71,14.99,7.06,3.37,14.45,4.81,20.22,2.4,4.1-1.71,6.39-6.76,11.59-8.2,4.98-1.14,27.53-18.29,32.5-17.19,6.78,1.5,3.78,9.92,1.69,14.89-3.73,8.83-10.43,13.14-14.89,21.63-3.17,6.04-3.4,7.48-8.99,12.08-1.23,1.01-3.9,5.72-4.49,7.3-.55,1.48-1.4,4.6-1.69,6.18,1.66-.4,6.23-2.63,7.87-3.09.42-.12,4.56-.47,5.03-.51,4.33-.32,5.31-.53,5.45-.62.3.07,1.32.22,4.36.44,1.66.12,5.07.22,6.72-.18,12.9-3.17,21.99-8.08,34.88-11.26.43-.11,8.3-3.47,8.72-3.45,8.18.18,9.15.57,12.72,3.09,5.05,3.56,8.13,4.11,14.17,5.45,6.05,1.35,5.13-.46,10.9,1.82,5.39,2.12,4.79,1.26,6.36,2.73,4.35,4.05,4,4.36,10.36,7.45,1.37.67,15.96-.84,17.62-.36,5.09-1.64-6.65-6.36-7.27-7.99-.89-2.39-1.68-4.2-2.18-6.72-1.96-9.97-.88-5.01-3.45-15.08-1.28-5.01-14.91-17.35-11.63-19.26,5.55-3.23,12.74-5.38,15.44-8.18,3.62-3.75,13.03-2.79,17.8-5.27,1.57-.88,10.58-7.07,12.17-7.81,4.05-1.9,6.16,4.92,10.77,5.82,9.27,1.82,10.2,3.92,19.83,5.49,4.71.77,7.92-.92,12.03,2.95.94.89,6.44,2.35,7.39,2.74,6.49,2.66,6.59,2.71,10.13,4.22,4.57,1.95,5.39,1.31,8.65,5.06,4.29,4.95,7.68,8.17,12.59,14.83,2.53,3.43,2.6,9.06,3.03,7.58,1.1-3.83,2.53-12.79,2.74-16.29.24-3.98,12.96-13.66,16.26-15.35,3.46-1.77,7.08-2.66,9.15-5.65.7-1,8.03-4.97,8.77-5.95,2.47-3.26,10.77-7.99,15.53-9.24,3.86-1.02,9.39-7.02,9.12,3.83-.08,3.12-3.75,11.12-4.88,14.02-2.46,6.32-6.36,11.7-9.05,17.93-.2.45-.82,7.62-1.83,10.08-.91,2.21-5.35,10.7-5.35,11.45.83-.27,4.58-6.87,9.47-8.55,2.33-.8,14.87-9.63,15.42-9.93,11.82-6.28,13.94-2.91,26.54-7.39,11.92-4.25,14.56-.04,19.25.98,13.35,2.9,9,.43,17.75,4.49,5.84,2.71,5.97,2.38,11.22,6.12.48.34,9.54,8.13,15.93,10.06,1.34.4,4.38,4.49,5.75,5.03-.66-1.35-2.91-5.97-3.05-7.18-.4-3.52-1.88-6.16-.05-11.17.72-1.98.23-2.12,5.44-4.09,10.6-4.02,9.19-6.79,18.57-8.59,4.43-.85,9.92-.11,11.07-.51,7.86-2.71,10.64-.63,18.94-1.39,19.24-1.77,35.35,14.19,46.83,30.15,3.04,4.23,5.9,6.78,9.66,3.22,2.98-2.82,9.54-12.21,13.46-12.58,5.18-.49,7.22-5.39,12.29-6.73,1.21-.32,5.48-.67,9.29-1.16,2.82-.36,5.03,2.36,4.07,5.04-2.33,6.51-2.64,9.71-2.73,10.72-.71,8.07-2.39,6.88-3.46,14.91-1.6,11.98.53,7.58,7.72,7.45,1.1-.02,14.78-.38,15.71-.8,5.69-2.62,6.65.53,12.72-2.79,4.16-2.28,5.96-7.88,10.54-9.07,5.25-1.37,8.72-6.46,13.46-9.07,4.97-2.74,5.99-8.28,9.95-12.29,4.57-4.64-.7-9.96,3.41-15.08,1-1.25,7.76-4.38,16.52-3.41l18.77,9.99c-.69-4.63-11.16-17.15-14.17-20.72-6.8-8.08-14.42-10.51-25.53-14.14-2.86-.94-10.25-5.85-12.41-7.95-8.36-8.16-1.5-1.93-9.57-8.77-2.39-2.02-3.55-1.88-6.55-2.12-5.21-.41-1.65.54-6-.63-5.48-1.48.87.13-6.33-1.07-.6-.1-1.87-.14-2.07-.58-2.7-5.95-7.22-4.17-11.96-3.38-5.79.97-9.6-2.53-8.65-7.4,2.14-10.96,2.8-21.64-2.21-32.16-2.34-4.93-.26-10.31,4.82-12.31,5.06-1.99,9.94-4.66,15.17-5.94,5.19-1.26,10.71-1.55,16.08-1.53,4.91,0,9.96,2.07,14.68,1.37,15.6-2.3,29.67,1.5,43.14,8.91,2.96,1.63,6.12,2.38,10.64.64-2.67-1.78-4.42-2.76-5.94-4-8.84-7.19-20.76-9.28-28.76-18.09-6.53-7.2-14.72-12.86-21.38-19.98-1.51-1.61-2.75-3.45-4-5.28-5.54-8.12-12.46-13.85-22.31-14.32-15.75-.75-32.51-4.1-34.85-19.76-1.08-7.24.43-18.12-.27-25.39-.71-7.38.41-14.18.27-21.61-.04-1.86.42-4.92.27-6.75-.3-3.58-3.97-4.33-6.75-2.16-1.97,1.54-4.72,4.71-6.48,6.48-11.66,11.73-17.32,21.25-28.85,33.1-1.95,2.01-3.36,4.43-4.55,6.96-3.38,7.21-11.61,12.3-19.34,11.47-1.22-.13-2.95-.93-3.85-1.76-8.11-7.43-17.16-30.89-28.1-32.41-4.03-.56-8.93-2.25-12.79-1.63-3.79.61-8.19,2.11-11.63,4.65-7.13,5.28-4.75,4.54-8.85,11.74-.91,1.59.96,16.97-3.08,17.84-6.51,1.41-12.98-4.64-15.07-5.23-1.05-.3-7.92-3.78-8.92-4.31-9.95-5.23-11.28-6.12-19.99.92-10.15,8.21-11.56,10.42-22.6,17.42-5.81,3.68-12.66,5.56-17.49,11.03-1.62,1.83-4.62,2.43-6.22,3.21-4.49,1.63-8.73,6.21-10.7,4.3-3.58-3.47-7.81-6.35-10.77-10.25-.88-1.16-4.36-7.69-5.32-8.8-4.03-4.69-7.57-10.23-13.1-15.96-3.86-4-6.75-7.54-8.5-12.93-.74-2.25-.26-10.52-2.5-9.07-1.83,1.18-5.77,3.63-7.36,4.47-2.72,1.43-10.8,5.08-13.41,6.71-9.49,5.9-12.92,5.98-22.88,10.91-13.43,6.65-13.16,4.04-27.39,8.64-6.96,2.25-13.92-1.24-20.54-5.56-6.36-4.15-7.28-2.45-13.85-6.9-2.5-1.69-5.05-3.86-7.55-5.55-8.18-5.92-11.84-4.91-20.11-10.69-1.3-.91-12.44-8.99-13.5-8.27-.8.55,1.17,3.43.17,4.73-3.19,4.16-7,11.04-8.82,13.49-2.48,3.34-10.6,9.31-13.16,8.99-3.06-.38-6.79-2.38-9.13-6.16-2.77-4.48-4.78-3.12-7.9-7.9-.93-1.43-1.58-3.67-2.48-5.19-.62-1.05.98-3.16.82-5.02-1.21,1.21-4.96,3.82-5.95,4.2-3.64,1.39-6.71,8.14-9.41,9.65-7.82,4.38-9.2,5.24-17.01,9.63l-12.76,8.28-10.07,5.15c-4.32,3.48.21-11.72,0-13.66-.03-.32.4-3.01.81-5.74.46-3.09,5.22-7.5,4.88-7.39-2.11.67-9.16.18-12.42,4.23-3.68,4.58-11.59,4.72-15.2,6.21-4.45,1.82-12.4,4.79-16.79,6.72-2.45,1.17-11.35,1.25-13.88.67-10.75-2.46-10.97-10.75-23.06-10.52-15.51.29-13.29-7.38-28.17-3.7-3.12.77-7.1.23-9.32,2-6.14,4.89-13.6,3.06-20.28,5.43-11.45,4.06.27-.63-14.73,4.29-.9.3-3.88,1.6-4.69,1.88-3.5,1.19-7.71,2.35-11.25,3.28-.87.23-3.1.45-5.07.68-.45-.04-.91-.06-1.36-.12-11.39-1.6-26.12-1.62-34.88-9.19-7.83-6.77-19.74-13.92-27.83-20.36-9.71-7.71-18.33-14.16-28.25-21.6-9.38-7.04-13.59-4.63-19.36-14.8-3.42-6.01-7.7-10.62-13.34-14.59-3.47-2.44-16.62-4.08-21.33-3.28l7.42,7.66c1.94,3.39,3.95,10.65,4.55,14.61,2.08,13.71-2.08,21.51-4.79,34.25-2.21,10.41,3.89,21.15,11.37,29.46,1.38,1.53,2.22,3.55,3.3,5.34-.37.44-.75.88-1.12,1.32-1.85-.61-3.86-.95-5.53-1.89-3.66-2.06-15.67,5.15-19.22,2.9-1.38-.78-2.82-1.84-3.64-3.14-7.56-11.99-20.75-19.21-27.22-32.16-.52-1.05-2.65-1.64-4.07-1.7-.49-.02-1.32,2.16-1.57,3.42-.49,2.53.18,5.75-1.16,7.57-7.25,9.87-14.68,19.64-22.65,28.94-3.29,3.84-8.82,2.93-11.77-1.19-4.17-5.81-9.61-8.8-16.56-10.71-5.47-1.5-10.65-5.07-15.19-8.69-4.68-3.73-4.81-11.09-10.38-14.67-1.3-.83-1.53-3.45-2.05-5.3-.39-1.39-.14-3.04-.77-4.28-.63-1.24-2.04-2.96-3.03-2.91-1.17.06-2.5,1.63-3.29,2.86-.54.84-.23,2.21-.37,3.33-1.25,9.82-5.02,18.87-10.33,26.96-4.12,6.29-6.63,9.26-11.91,14.73-1.55,1.61-5.74,1.02-7.82,2.11l-5.92-3.17c-.06-.06-.11-.11-.16-.17v-.13c-2.01-2.17-4.06-4.27-6.33-6.11-10.79-8.78-19.93-18.47-26.64-30.96-5.84-10.88-22.23-18.27-35.2-16.9-10.38,1.1-12-8.14-21.94-7.91-8.52.19-17.03,1.75-25.48,3.09-4.46.71-8.72,2.85-13.17,3.34-10.45,1.15-20.99,2.44-31.46,2.24-7.91-.15-16-1.77-23.59-4.09-7.25-2.22-13.97-6.36-21.94-4.89-8.27,1.52-16.65,2.78-24.66,5.19-5.96,1.79-12.39,4.15-16.91,8.16-8.42,7.47-15.62,16.32-23.29,24.63-2.29,2.48-4.91,4.74-6.72,7.57-5.68,8.9-9.76,5.43-12.23,13.47-2.26,7.35-1.59,18.53-3.55,25.79-3.31,12.29,5.48,22.41-1.18,32.89-.71,1.12-5.94,10.48-6.15,12.07,1.62.03,16.26-13.36,17.42-14.14,6.24-4.16,5.54-3.55,9.22-9.6,5.63-9.27-1.65-6.58,12.91-13.24,2.44-1.12,8.82-12.19,11.24-11.23,2.21.88,14.84-2.5,21.46-6.08,6-3.24,18.74-.19,15.02,3.04-3.36,2.92.66,16-3.1,21.21-2.62,3.62-9.06,5.24-13.89,6.04-8.82,1.47-15.45,10.28-18.49,12.83-7.24,6.09-12.81,14.28-13.1,23.51l3.75,23.06c-.56,1.82,14.5,5.65,18.5,3.43,3.93-2.18,10.23-.67,10.44,2,.24,2.95-25.33,14.22-28.26,19.07-4.71,7.77-3.14,17.94,1.76,26.47,2.19,3.82,3.74,8.26,6.73,11.29,2.66,2.69,4.06,5.18,2.97,8.46-1.47,4.42-3.48,8.67-5.43,12.91-2.97,6.43-5.36,13.28-9.33,19.04-5.55,8.06-12.33,15.27-18.58,22.86-.51.62-.9,1.34-1.44,1.93-2.33,2.54-4.63,5.13-7.08,7.55-.69.68-1.43,1.32-2.15,1.98-.97-.36-1.93-.86-2.82-1.49-1.99-1.39-3.83-3.08-5.99-4.12-1.38-.66-3.55-1.03-4.78-.39-3.42,1.78-6.62,4.04-9.75,6.31-6.94,5.02-13.77,10.21-20.7,15.25-3.16,2.29-5.24,1.55-8.1-1.54-9.74-10.53-14.98-13.63-28.78-6.44-3.39,1.77-6.38,4.49-9.17,7.16-6.3,6.04-11.39,9.15-19.71,8.58-2.53-.18-8.18,1.38-10.74,1.27-6.4-.28-15.47-.81-21.7-2.08-6.82-1.39-10.37-6.25-17.15-5.41-10.72,1.33-18.76.44-29.32,2.88-2.94.68-10.95,2.31-13.63,3.78-4.11,2.24-7.55,3.57-11.95,7.76-9.18,8.74-15.4,17.72-18.55,28.8-4.01,14.09-6.75,28.71-8.26,43.28-1.08,10.43.84,21.16,1.28,31.76.12,2.88,13.88,18.27,14.02,21.13l10.12,27.29c.42,1.79,8.6,41.36,8.93,43.17.11.6-.14,1.28-.28,1.92-2.33,11.03-4.56,22.07-7.02,33.07-2.89,12.91-5.68,25.85-9.1,38.62-1.79,6.68-5.48,12.85-7.19,19.54-4.13,16.14-7.62,32.43-11.26,48.69-.2.9.27,2.5.95,2.89.72.42,2.19.05,3.08-.44.94-.52,1.79-1.48,2.31-2.44,4.94-9.01,10.71-17.71,14.48-27.19,5.83-14.64,17.18-24.33,27.81-34.9,6.81-6.78,11.82-8.03,20.29-11.92,7.42-3.4,16.36-4.76,24.34-6.18,6.64-1.18,13.86-.27,20.71.36,3.8.35,3.63,1.09,12.35,2.54,2.2.37,6.92.24,9.08.73,4.66,1.04,7.75-.09,12.3-.52,7.18-.69,14.17-3.15,21.28-4.68,10.42-2.23,20.8-4.71,31.32-6.33,13.03-2.02,25.75-4.6,36.86-12.23,2.33-1.6,4.69-1.95,6.39.58,4.69,6.97,12.66,8.07,19.52,11.04,11.67,5.04,3.76-.66,15.36,4.52,6.16,2.75,15.52-2.45,18.99-8.35,2.96-5.01,18.54-11.57,20.14-16.98.02-.08,4.01-5.96,4.03-6.04,4.16-12.04,5.98-13.31,11.97-16.76,3.01-1.73,9.08,0,12.92,2.91,2.42,1.84,9.8,3.9,11.51,6.43,2.57,3.82,5.06,7.7,7.42,11.66.78,1.32,1.04,2.94,1.81,5.22,1.76-1.71,3.34-2.69,4.12-4.12,1.94-3.55,3.67-7.23,5.21-10.97,5.67-13.8,17.48-22.21,28.18-31.37,4.95-4.24,10.41-3.1,14.79,1.79,6.32,7.07,11.17,8.26,17.03,15.74,1.57,2.01,5.75,7.07,7.2,9.2,1.67,2.45,5.78,4.45,7.6,6.8,3.03,3.92,4.49,8.67,7.2,12.8,3.26,4.99,3.02,13.61,6.47,18.46.95,1.34,10.05,9.97,11.13,9.14,1.75-1.35-2.5-11.96-1.97-14.35.29-1.32-1.3-2.98-1.3-4.46.02-7.16,1.22-14.26,1.16-21.42-.05-5.62.72-11.51.06-17.19-.89-7.65,2.24-17.11,7.71-22.5,1.37-1.1,5.21-3.72,6.75-4.29,10.28-3.83,13.34-.75,23.59,3.21,9.18,3.54,19.59,3.31,28.49,7.55,10.29,4.9,10.5,12.33,20.76,8.68,7.27-2.59,15.83-10.47,23.4-11.89,7.86-1.47,10.19-4.15,18.68-6.6,10-3.58,12.81-3.76,18.49-9.43,6.6-6.6,7.77-16.1,15.31-17.16,10.32-.15,18.22-1.55,27.02,2.02,12.45,5.04,17.58,3.77,23.66,10.82,2.01,2.33,8.94,3.87,12.24,7.29.66.68,1.55,2.5,2.52,4.69,1.87,4.21,1.82,11.23,3.39,9.51,1.51-1.66,3.44-6.68,3.33-11.2-.08-3.1,1.08-5.73,1.8-6.49,7.6-8.17,11.22-7.25,19.92-14,4.59-3.56,9.2-8.78,14.81-11.04,3.33-1.1,28.16-4.58,38.04-.52.93.38,16.42,6.86,17.44,7.27,11.69,4.64,5.57,3.24,17.15,8.14,2.62,1.11,16.74-3.42,19.47-4.36,16.86-5.81,10.19-5.92,24.71-13.08,6.88-3.39,1.82-.74,8.31-4.96,3.66-2.38,5.66-5.5,10.68-5.39,1.93.04,6.86-2.4,8.78-2.83,1.33-.3,9.38,2.41,12.34,2.13h0c3.89-.3,1.91-1.35,11.54-1.72,2.25-.09,3.15-.93,7.4.37,2.14.65,8.72-2.67,5.92,1.67-2.23,3.46-3.98,6.19-5.46,8.72-7.79,13.33-11.92,15.96-12.73,16.47-9.62,6.04-14.8,14.95-17.83,23.3-.68,1.88-1.47,6.34-3,8.48-1.89,2.64-.19,5.09,1.6,6.4,3.91,2.84,9.46,1.2,13.5,1.78,7.46,1.07,5.18,1.41,12.35,1.46,16.82.12,25.92-1.87,42.73-2.15,6.88-.11,16.45-1.8,23.3-1.65,15.43.34,23.59-.3,38.15-5.16,13.99-4.67,15.66-6.73,27.43-15.47,7.36-5.47,4.74-5.36,14.44-8.25.07-.02,9.83-3.09,9.9-3.09,4.66-.2,20.72,7.94,23.63,12.75,7.11,11.74,7.9,15.29,12.7,18.79,8.37,6.11-.11,10,5.95,18,1.04,1.37,4.49,9.67,5.98,10.7.91-1.74,2.11-12.36,2.83-14.17.33-.84,1.22-10.36,1.26-11.33.51-12.44.81-8.82,7.56-20.15,3.72-6.25,3.07-10.54,10.07-12.59,12.12-3.56,22.54-12.35,35.26-11.33,2.69.21,5.99.23,8.43,1.33,1.58.71,5.57,1.44,8.38,2.14,5.56,2.54,16.25,8.63,21.81,11.16,2.95,1.34,7.51-.84,14.64,4.12.55.38,5.9,3.84,6.83,4.34,4.31,2.34,1.53-.7,9.43,10.22,2.66,3.67,5.8.52,8.09-3.59,7.26-13.04,15.96-8.91,28.71-16.55,4.05-2.43,13.11-6.85,17.38-5.59,1.21.43,15.12,7.14,16.36,7.9,9.33,5.73,7.97,8.15,17.9,12.73,5.09,2.35,2.37-.22,7.98,5.61,4.96,5.15,2.04,3.09,5.61,9.28,1.21,2.11,1.02,8.95,2.16,11.1,2.89,5.48,13.8-18.22,19.63-24.48,7.7-8.27,14.69-10.41,23.51-17.47,4.92-3.94,12.59,7.06,16.38,12.04,1.57,2.06,6.81,6.84,8.65,8.65,4.91,4.82,3.24,3.16,7.21,11.53.95,2.01,1.15,2.18,2.63,4.4,4.8,7.21,4.06-3.09,6.26-5.84,2.48-3.1,4.92-5.55,7.69-6.97,6.33-3.25,6.98-8.42,11.77-13.69,2.75-3.03,10.59-6,12.49-6.48,2.73-.66,13.17,6.25,17.16,10.65,7.85,8.66,3.03,10.8,13.49,16.28,3.29,1.72,10.69-.62,13.95-2.79,5.77-3.84,10.1-6.33,15.81-10.23,6.03-4.11,15.61-9.16,23.25-5.12,12.8,6.78,22.25,13.76,35.35,20,6.94,3.31,12.12,16.88,18.78,12.2,4.03-2.83,8.11-5.78,12.52-8.06,4.32-1.83,6.35,3.95,11.35,4.1,7,.22.89.57,7.54-.33,1.6-.22,1.32,3.36,2.75,4.05,3.03,1.44,2.6.29,5.92,4.48,1.1,1.39,2.73,3.27,4.33,4.33l7.8,5.63c6.46,2.89,10.1,6.15,14.04,12.28,6.02,9.34,11.52,19.02,17.31,28.52.69,1.13,1.75,2.03,3.5,4.01,1.03-6.81,1.98-12.31,2.66-17.84,1.24-10,10.05-18.56,20.11-18.84,7.21-.2,14.45.18,21.94.31,2.63-8.18,9.16-13.04,16.99-16.37,2.21-.94,4.12-1.37,5.87-1.28,2.9-.32,5.62,4.12,8.7,6.64,6.01,4.91,12.03,9.79,18.11,14.62,2.87,2.28,6.04,4.21,8.77,6.64,3.13,2.78,5.94,5.93,8.89,8.92,4.73,4.81,9.89,9.28,14.11,14.51,8.23,10.18,15.96,20.77,23.82,31.25,1.44,1.92,2.3,4.28,3.76,6.18,4.55,5.93,9.27,11.75,13.92,17.61.73-.36,1.46-.71,2.19-1.07-1.19-3.56-2.23-7.17-3.59-10.66-2.98-7.63-7.4-14.81-6.86-23.48.07-1.07-.47-2.21-.87-3.26-4.08-10.56-5.39-21.61-4.92-32.78.25-6.06.93-12.4,3.06-17.99,2.01-5.29,5.52-10.4,9.53-14.44,6.3-6.36,10.27-14.03,14.28-21.72.99-1.89.9-4.62.58-6.86-.89-6.25-5.4-10.16-9.89-13.95-4.64-3.91-6.72-8.74-6.86-14.88-.17-7.84.61-15.37,2.72-22.99,1.44-5.17.82-10.9,1.32-16.36,1.05-11.38,2.11-22.75,3.39-34.11.74-6.55.82-13.47,3.16-19.46,2.41-6.16,6.99-11.56,11.03-16.98,4.31-5.78,9.1-11.2,14.36-17.61-6.27-3.02-11.84-5.83-17.51-8.42-14.47-6.63-23.22-18.05-27.31-33.1l-.09-.12ZM1552.43,298.03c4.47-1.86,5.28-6.37,7.59-9.74,5.64-8.25,4.59-18.02-2.51-25.14-.57-.57-1.14-1.15-1.72-1.72-4.87-4.8-4.92-4.84-.04-9.78,6.34-6.42,12.76-12.77,18.58-18.59,3.76,2.68,6.88,4.71,9.78,7.03,4.17,3.34,9.16,6.24,12.01,10.52,3.49,5.23,1.94,11.77-1.02,16.99-5.88,10.36-14.53,18.33-23.94,25.55-3.69,2.83-6.75,6.46-10.16,9.67-3.67,3.46-6.77.23-10.62-.52.84-1.85,1.1-3.88,2.05-4.27h0ZM1466.36,122.3c10.46-12.04,21.29-22.98,31.94-34.86,3.69-4.12,7.58-8.06,11.48-11.99.59-.59,1.71-.66,2.89-1.08-.39,7.02-1.71,13.89-.87,20.48.78,6.12-2.95,13.61,4.03,18.27,1.87,1.25,4.9,2.87,6.4,2.17,9.45-.13,9.47.82,21.74,5.37.27-.05,12.94,4.59,12.98,4.76.88,3.48,13.46,6.81,13.06,10.16-.25,2.05-12.13-2.73-14.8-2.9-5.74-.37-15.45-.37-21.92-1.99-6.79-2.59-12.62.86-18.89,1.87-4.91.79-6.78,2.49-6.39,7.61.84,10.97,1.4,21.96,2.05,32.94.19,3.19.77,6.45.35,9.57-.99,7.41-2.68,14.73-3.7,22.14-.8,5.78-.96,11.65-1.51,17.46-.44,4.63-1.35,9.24-1.47,13.87-.15,5.86,4.64,8.01,8.82,10.56,1.51.92,2.99,2.16,3.98,3.61,3.29,4.81,6.23,1.1,10.64-2.72,2.58-2.23,4.14-3.42,6.49-5.53.57.6,5.12,4.37,5.69,4.97-2.37,2.28-3.06,3.45-5.5,5.67-.8.73-4.01,3.15-4.64,3.78-5.5,5.5-11.47,5.83-17,8.85-3.59,1.97-6.77,4.69-10.95,7.66.02.02.03.02,0,0,.03.02.02.02,0,0-.12-.09-.94-.67-1.78-1.25-6.75-4.71-13.25-9.84-20.34-13.94-3.83-2.22-8.71-2.61-13.09-3.93-1.76-.53-3.44-1.31-5.16-1.97,1.04-1.2,2.18-2.33,3.08-3.63,1.33-1.93,2.75-3.88,3.67-6.01,2.72-6.31,5.64-12.42,4.77-19.86-.56-4.8,1.22-9.83,1.57-14.78.75-10.74,1.13-21.5,1.9-32.24.47-6.57,1.73-13.09,2.05-19.66.36-7.41.41-14.87-.08-22.26-.24-3.64-5.75-5.22-9.97-3.41-1.52.65-4.19,3.43-5.7,4.11-.46-.38-3.5-3.18-3.96-3.56,1.5-2.59,6.19-6.09,8.11-8.31h.03ZM1342.13,195.18c-5.17-1.89-10.72-4.17-16.44-5.86-1.68-.5-3.89.56-5.8,1.1-3.83,1.07-6.33-.44-6.78-4.38-1.22-10.63-2.27-21.29-3.63-31.9-.42-3.26-1.7-6.4-2.43-9.63-2.52-11.1.42-16.08,11.17-19.96,14.53-5.23,28.07-12.08,37.02-25.57.64-.96,2.95-1.23,4.44-1.12,2.45.18,4.86.94,7.29,1.43,7.73,1.58,15.45,3.19,23.19,4.73,5.59,1.11,11.17,2.28,16.81,3.12,3.64.55,9.32-6.29,9.5-11.67.07-2.04-.86-4.23-1.74-6.17-1.7-3.74-3.74-7.32-5.55-11.01-1.69-3.45-1.17-6.85,1.76-9.13,2.25-1.75,4.73-3.17,7.84-2.52.57.12,1.14.28,1.75.55,9.14,3.98,9.25,3.8,9.41,13.87.1,6.13,1.53,12.46-2.56,17.99-1.75,2.37-3.4,4.84-5.35,7.05-.35.4-.7.8-1.06,1.2-11.46,13-22.69,26.13-28.14,43.07-1.09,3.4-.69,6.09,3.53,6.8.77.13,1.71.23,2.22.71,5.39,5.08,12.98,4.44,19.2,7.43,4.21,2.03,6.09,4.48,6.35,9.27.24,4.39.68,8.76,1.19,13.13.49,4.2,1.05,8.4,1.56,12.6,1.28,10.5,2.55,20.97.83,31.54-.11.66-.19,1.33-.32,1.99-.85,4.27-2.84,5.31-7.1,5.83-9.82,1.21-20.26,1.22-28.68,7.29-4.21,3.03-7.2,7.72-10.9,11.51-.79.81-2.53,1.65-3.38,1.32-6.49-2.51-12.68-5.95-19.32-7.84-6.34-1.81-13.11-2.13-19.7-3.06-.62-.09-1.52-.14-1.89.21-5.44,5.16-12.71,4.34-19.18,6.17-2.73.77-5.02,3.1-7.51,4.7-1.33.85-2.67,1.68-4.01,2.52l-1.21-1.16c5.38-8.34,10.94-16.57,16.1-25.04,4.79-7.86,9.12-16,13.74-23.96,1.03-1.78,2.1-3.99,3.75-4.89,5.03-2.7,5.14-6.84,4.05-12.29l-.02.03ZM1175.6,226.97c8.54-4.69,11.69-12.79,12.21-21.45.79-13.3.89-26.72-.05-40-.58-8.1.32-15.84.96-23.79.49-6.1-1.01-12.38-1.94-18.53-.18-1.18-1.85-2.14-2.84-3.2-3.64-3.91-2.9-8.87,2.14-10.93,6.42-2.63,13.12-4.57,19.67-6.9,5.87-2.09,11.81-4.06,17.5-6.57,3.57-1.57,6.73-4.05,10.09-6.09,6.86-4.17,9.22-3.61,15.52,1.77,8.51,7.28,14.31,16.31,19.59,26.05,1.91,3.52,4.85,6.49,7.86,9.51,1.41,1.41,2.82,2.84,4.16,4.34-.85,2.62-2.29,4.62-4.48,6.39-.71.57-1.48,1.12-2.35,1.65-4.72,2.9-8.31,7.56-12.63,11.18-5.44,4.55-11.1,8.83-16.72,13.16-4.19,3.23-8.58,6.2-12.66,9.55-6.67,5.48-11.76,12.32-11.43,21.18.26,7.09,1.74,14.32,3.88,21.1,1.89,6.01,8.67,6.98,13.51,9.89,8.7,5.23,16.31,3.89,23.77-2.83,3.61-3.25,8.15-5.47,12.33-8.09.18-.11.36-.22.54-.33.52.33,1.05.66,1.57.99-.63,1.77-.78,4.05-1.99,5.23-.1.1-.21.19-.31.29-6.08,5.88-12.91,10.79-20.42,14.76-.76.4-1.55,1.1-1.91,1.85-3.22,6.67-10.95,7.74-15.68,12.57-.75.76-3.25.53-4.54-.09-6.15-2.94-12.13-6.23-18.24-9.27-1.81-.9-3.84-1.35-5.73-2.09-5.53-2.17-10.89-4.99-16.61-6.39-3.96-.97-8.38.03-12.6,0-1.38,0-2.75-.42-4.13-.65.63-1.46.86-3.65,1.97-4.26h0ZM1025.49,100.26c7.61-5.13,15.36-10.05,23.01-15.12,6.58-4.36,11.88-3.52,16.77,3.14,4.31,5.87,7.2,12.4,8.68,19.61.37,1.83,2.4,4.74,3.6,4.71,2.69-.08,6.38-.91,7.82-2.82,7.41-9.83,16.68-17.61,26.25-25.06,1.2-.93,3.98-.63,5.68,0,10.18,3.86,17.9,9.98,22.66,18.59,2.08,3.75,3.65,7.93,4.53,12.69,1.76,9.53,3.28,19.13,4.25,28.77.65,6.46.05,13.03.17,19.55.03,1.71.29,3.58,1.04,5.09,4.96,10.06,2.15,20.45,1.6,30.76-.07,1.33-.15,2.71.11,4.01,1.49,7.46-2.02,13.71-8.2,18.3-1.39,1.04-2.87,1.9-4.38,2.7-5.99,3.2-12.62,5.15-17.9,10.1-3.11,2.91-7.53,4.75-10.51,8.58-2.36,3.04-9.45,1.66-15.09-1.43-4.24-2.32-8.74-4.87-13.39-5.56-7.25-1.07-9.83,3.87-9.11,11.34,1.28,13.27,10.22,22.28,16.43,32.84,1.56,2.65,3.05,5.33,3.91,8.77-7.2-2.6-15.74.04-21.01-7.91-2.26-3.4-6.29-5.97-10.05-7.89-1.74-.89-4.99.15-7.1,1.21-6.83,3.44-13.37,7.43-20.19,10.9-1.97,1-4.47.95-6.73,1.38-.32-.42-.65-.85-.97-1.27,2.5-3.93,4.76-8.05,7.57-11.76,5.59-7.36,6.39-16.14,7.61-24.74.79-5.55.74-11.22,1.07-16.84.48-8.42-3.28-9.71-11.01-9.18-3.34.23-6.92-2.6-7.5-6.44-.6-3.99,1.7-4.47,5-5.15,7.68-1.58,11.69-4.05,11.57-13.45-.34-26.71-.65-53.43-.99-80.14-.03-2.23-.14-4.07,2.4-5.61,2.82-1.71,2.18-4.61-.09-6.69-4.66-4.25-9.52-3-14.46-.35-2.07,1.11-4.39,1.78-6.54,2.63-2.25-5.02,1.01-6.61,3.5-8.29v.03ZM875.12,99.04c2.83-.14,5.69.76,8.53.71,6.76-.12,13.51-.64,20.27-.84,8.53-.25,13.65-6.66,20.26-10.48,2.7-1.56,7.49-.81,10.84.33,4.97,1.7,9.42,4.85,14.23,7.08,7.67,3.55,15.63,6.07,23.88,4.86.1-.02.2-.02.31-.04,1.45-.23,2.9-.54,4.36-1.02,3.27-1.07,5.72-4.49,8.79-6.45,1.24-.8,3.14-.58,5.86-.99-7.52,13.61-13.57,25.54-13.46,39.6.12,15.9-.27,31.8.15,47.69.22,8.09,1.95,16.13,2.6,24.22.43,5.34.17,10.74.19,16.12.04,8.92,5.56,12.61,13.61,9.1.7-.31,1.5-.38,2.61-.65.48,5.14-3.61,6.85-6.39,9.17-3.03,2.52-6.17,4.9-9.31,7.28-.8.61-1.59,1.24-2.38,1.85-1.7,1.3-3.42,2.58-5.08,3.93-6.88,5.59-14.29,3.73-17.36-4.56-1.98-5.33-3.54-10.87-6.04-15.94-1.42-2.87-4.09-6.49-6.72-6.97-2.06-.38-5.75,3.06-7.21,5.66-2.28,4.06-6.15,4.74-9.6,6.5-1.54.78-3.27,1.37-4.54,2.47-4.18,3.63-8.22,7.42-12.25,11.22-6.48,6.11-8.4,6.34-15.42.99-2.93-2.23-5.43-5.02-8.37-7.24-7.07-5.33-9.54-12.89-10.76-21.13-.09-.64.14-1.39-.11-1.93-6.32-13.77.48-25.36,6.51-36.83,3.38-6.43,7.64-12.49,12.19-18.17,1.99-2.49,5.55-3.89,8.62-5.3,3.98-1.83,4.34-3.57,1.46-7.01-1.92-2.3-3.27-5.08-4.82-7.67-1.85-3.1-3.81-6.15-5.44-9.37-2.04-4.05-3.18-8.69-5.81-12.27-4.25-5.8-9.44-10.91-14.13-16.39-1.09-1.28-2.25-2.86-2.44-4.42-.12-.98,1.47-3.06,2.36-3.1h0ZM723.87,38.78c1.22.5,2.3.75,3.16,1.33,6.65,4.52,13.33,9,19.84,13.71,3.82,2.76,7.28,6.02,11.06,8.84,3.34,2.5,6.83,4.82,10.37,7.02,15.79,9.8,31.27,19.88,44.07,33.73,3.19,3.45,8.81,4.88,13.55,6.6,2.72.99,5.54.37,7.38-2.85.95-1.68,3.03-3.08,4.91-3.77.04-.01.08-.02.11-.04,2.28-.83,5.17-1.63,7.19-.86,1.82.69-.1,9.95-2.26,10.93-2.62,1.19-4.2,3.02-5.13,5.13-.91,2.06-1.21,4.39-1.25,6.65-.3,16.61.39,33.23-.07,49.83-.33,11.88-2.02,23.72-2.81,35.6-.33,4.96.14,9.97.19,14.96.04,4.89,0,9.78,0,14.81-6,1.54-11.23,2.5-16.18,4.25-5.39,1.91-10.5,4.58-15.76,6.88-5.07,2.21-10.16,4.38-15.26,6.54-.87.37-2.11.35-2.64.97-3.96,4.67-6.78,2.34-10.98-.4-6.18-4.03-13.49-6.28-20.18-9.55-3.74-1.83-7.03-4.65-10.86-6.21-6.04-2.46-12.37-4.21-18.55-6.32-1.32-.45-2.55-1.16-4.27-1.95,6.45-9,4.4-19.41,6.16-29.07,1.61-8.83,2.57-17.86,2.82-26.83.22-7.95-1.08-15.93-1.42-23.91-.38-9.23-1.02-18.51-.47-27.7.52-8.55,6.12-13.03,14.87-13.98,4.73-.52,7.64-1.65,11.7-4.11,5.37-3.26,8.64-8.42,4.22-13.43-5.26-5.96-7.13-10.96-15.6-13.05-1.96-.48-3.34-2.95-5.24-4.06-4.56-2.66-9.42-4.83-13.86-7.67-1.69-1.08-3.76-3.65-3.55-5.25,1.19-8.83,3.04-17.57,4.74-26.73v-.04ZM548.31,115.51c5.53-4.81,11.03-9.66,16.5-14.54,3.34-2.98,6.21-7.78,10-8.64,4.43-1,10.92-.14,14.24,2.64,7.14,5.97,12.81,13.69,19.61,21.28-1.97.45-4.27,1.31-6.61,1.43-5.83.3-8.87,2.82-8.61,8.64.46,10.13,1.91,20.23,2.01,30.35.09,9.17-1.26,18.34-1.6,27.53-.16,4.35.55,8.74.85,13.11.48,6.88,1.14,13.76,1.36,20.64.21,6.52,4.52,9.85,9.43,12.43,5.47,2.88,10.62,1.95,15.55-2.19,4.54-3.8,9.76-6.77,14.56-10.27,5.08-3.72,6.95-9.53,5.61-14.96-2.56-10.38-.46-20.49-.24-30.72.15-7.08-.36-14.17-.4-21.25-.02-4.76.14-9.53.43-14.28.54-8.66-2.05-15.85-9.37-20.95-2.47-1.72-1.79-3.76-.08-5.23,1.8-1.55,4.04-3.43,6.2-3.58,7.99-.55,10.34-8.13,17.39-12.02,8.64,6.55,18.02,13.65,28.38,21.51-3.72,1.55-5.95,2.6-8.26,3.42-5.99,2.13-7.75,5.91-6.53,12,1.37,6.88,2.54,13.88,2.84,20.87.37,8.79-.35,17.61-.37,26.42-.01,8.08,1.08,16.23.24,24.21-1,9.58-.07,18.82,1.48,28.17,1.55,9.33,8.53,10.65,15.21,6.77,1.51-.87,3.33-1.21,5.76-2.05-.77,5.06-3.95,6.6-6.78,8.61-6.01,4.28-12.14,8.47-17.68,13.31-7.4,6.47-11.28,5.82-16.78.24-4.18-4.24-6.01-9.28-6.36-15.05-.22-3.68-.35-7.38-.78-11.04-.18-1.56-.86-3.13-1.63-4.52-2.66-4.83-6.27-4.76-9.52-.18-1.34,1.89-3.41,3.25-5.13,4.88-4.16,3.95-8.3,7.91-12.45,11.87-5.83,5.56-11.55,11.24-17.53,16.64-4.8,4.33-8.79,2.99-14.65-3.34-3.63-3.92-8.17-6.98-12.21-10.54-5.48-4.81-11.26-9.02-18.35-11.28-1.4-.45-2.3-2.45-4.11-4.5,8.71-1.91,11.36-8.22,12.33-15,.83-5.8.63-11.85.05-17.71-1.01-10.17-2.71-20.07-1.41-30.55,1.6-12.89,1.29-26.07,1.05-39.11-.06-3.32-.13-4.52-2.13-7.54-1.72-2.59-3.92-1.04-6.76.97-1.63,1.15-3.62,3.86-5.55,4.59-.26-.52-3.61-7.48-3.87-8,1.56-1.16,3.2-2.23,4.66-3.5h.01ZM309.9,561.93c-1.04,1.73-2.81,3.01-4.24,4.51-2.14,2.25-4.16,4.64-6.42,6.76-5.28,4.94-10.41,10.1-16.12,14.51-3.83,2.96-12.12.9-16.93-4.22-6.33-6.74-11.52-14.28-13.75-23.61-.7-2.92-.38-5.91-2.63-9.76-1.41,2.85-3.98,5.2-3.92,6.4.29,6.32-6.18,7.72-9.88,10.95-.46.4-1.24.97-1.64.82-6.97-2.61-11.16,4.22-17.1,4.97-.16.02-.4,0-.47.1-5.03,7.06-13.04,8.4-20.52,10.9-1.82.61-3.21,2.53-4.8,3.83-10.2,8.32-22.69,9.74-35.03,11.65-4.61.71-9.18,1.66-13.79,2.39-1.05.17-2.23.05-3.26-.25-6.56-1.89-13.17-3.63-19.6-5.88-3.83-1.34-7.34-3.55-11.03-5.3-5.81-2.75-11.66-5.44-17.49-8.16-1.15-.54-2.34-1.26-3.42-1.61-6.74-2.2-19.5,11.33-28.13,16.09-.7.38-8.4,10.39-8.52,9.74-1.09-6.13,5.85-13.56,7.06-19.23.87-4.11,1.42-18.97,2.85-23.57,2.6-8.38,2.71-13.35,1.4-17.62-1.71-5.56-3.14-11.92-5.78-17.12-5.05-9.96-5.97-20.36-4.43-31.33,1.62-11.47,4.46-22.52,7.83-33.62,3.63-11.95,12.82-19.46,19.63-28.86,3.15-4.34,6.72-8.46,10.59-12.17,5.18-4.97,10.87-9.4,16.27-14.15,4.54-3.99,9.13-7.95,13.32-12.28.98-1.01.43-3.5.58-5.3-1.54.02-3.14-.22-4.61.1-3.57.78-7.03,2.3-10.62,2.64-8.19.78-15.81,4.23-24.58,2.9-8.84-1.34-18.09-1.34-27.06,1.44-12.16,3.77-15.34,13.65-13.92,26.48.24,2.11-.16,5.4-.47,7.17-.49,2.83,1.57,3.36.61,6.11-1.99-1.38-3.33-3.42-5.3-4.81-.53-.37-1.71-2.84-1.88-3.29-2.11-5.52-2-3.29-3.05-7.4-2.18-8.5-2.61-15.11-1.97-23.83.85-11.66,8.1-19.55,17.87-24.77,11.06-5.91,23.03-7.31,35.33-4.11,1.22.32,2.5.66,3.56,1.3,14.3,8.64,29.37,9.69,45.17,5,3.98-1.18,8.16-2.22,12.27-2.31,6.57-.15,11.38-3.49,16.24-7.17,4.28-3.25,11.16-3.66,12.57.96,1.76,5.78,2.22,12.52,2.9,18.48,1.8,15.74,4.66,29.64,6.07,45.42.11,1.24,1.44,7.28,1.77,8.49,1.96,7.12.49,9.3,6.05,12.1.41.21,2.58.11,3.03.18,4.82.77-.06-.14,4.75.65,2.76.45,5.63.68,8.22,1.63,5.12,1.87,9.28.33,13.47-2.55,1.73-1.19,3.99-1.82,6.09-2.18,3.85-.67,7.8-.77,11.63-1.52.86-.17,2.03-2.13,1.93-3.14-.31-3-1.6-5.92-1.77-8.91-.51-9.11-.59-18.25-1.02-27.37-.15-3.1-.43-6.31-1.41-9.22-1.26-3.72-3.23-7.21-5.01-10.73-.48-.95-1.26-1.91-2.15-2.47-4.85-3.1-16.39,2.1-19.66,6.74-3.27,4.63-5.41,7.94-9.1,12.28-.38-.28-4.72-.5-5.1-.78,1-7.45,7.3-13.32,11.44-18.92,4.71-6.36,10.26-12.12,14.76-18.62,4.31-6.23,9.45-5.83,15.55-3.9,3.65,1.15,6.53,2.84,8.54,6.21.83,1.38,2.41,2.42,3.84,3.31,2.96,1.86,6.11,3.41,9.06,5.3,3.28,2.1,5.39,1.45,7.14-2.04,1.13-2.26,2.72-4.31,4.24-6.35,2.31-3.12,4.71-6.16,7.11-9.21.76-.96,1.64-1.84,2.6-2.91,9.81-3.92-.34,11.22-3.23,13.99-3.67,3.52-3.33,4.71-6.13,8.95-4.14,6.27-4.85,14.15-4.06,21.8,1.45,13.98,2.4,28.02,3.88,42,.79,7.42,2.55,14.74,3.35,22.15,1.22,11.39,1.72,22.87,3.03,34.25,1.57,13.66,3.45,27.29,5.63,40.86.85,5.26,3.31,9.93,8.9,12.15,3.84,1.53,7.4,3.99,11.35,4.94,2.07.49,4.66-1.65,7.11-2.11,1.7-.32,3.55.18,5.34.32-.28,1.61-.15,3.46-.93,4.76v-.02ZM466.98,510.88c-10.52,8.28-18.68,18.82-27.58,28.65-2.19,2.42-6.08,1.65-8.21-1.44-4.49-6.5-8.43-13.5-13.65-19.35-5.52-6.19-7.13-13.58-7.93-20.98-1.32-12.19-1.25-24.53-2-36.8-.31-4.95-1.34-9.85-1.89-14.79-1.12-10.13-2.77-20.27-2.99-30.43-.21-9.71.37-11.81-6.15-17.59-.9-.8-6.51-1.92-7.77-1-6.33,4.6-6.64,6.02-10.77,10.8-.98,1.13-8.99,5.48-10.16,5.37-5.92-.58-6.98,6.57-6.9,10.54.19,9.42.77,10.55,1.56,19.95.36,4.3,1.33,8.55,1.89,12.84.86,6.54,1.83,13.08,2.33,19.65.4,5.27-.01,10.6.27,15.89.54,10.09,1.68,19.97,13.68,23.73-3.97,9.06-7.14,18.1-16.36,22.89-.42.22-1.07.36-1.22.7-2.09,4.89-5.97,6.9-10.68,4.93-3.79-1.59-7.22-4.35-10.36-7.11-4.25-3.75-7.97-8.09-12.09-11.99-3.78-3.57-3.86-6.61.13-9.93,4.72-3.94,5.59-9.35,4.56-15.67-1.33-8.12-1.43-16.45-2.07-24.69-.24-3.1-.06-6.31-.83-9.27-3.18-12.23-.7-24.52-.57-36.77.11-10.48-1.95-20.11-9.25-27.92-1.32-1.41-4.23-1.44-6.45-1.88-3.04-.6-6.13-.99-9.2-1.47-.06-.77-.12-1.54-.18-2.32,1.45-1.16,2.77-2.55,4.36-3.44,4.95-2.77,10.04-5.29,14.99-8.06.99-.56,1.84-1.65,2.38-2.7,3.36-6.54,7.96-7.89,14.69-4.55,8.06,4,12.08,10.5,12.65,19.32.21,3.21.75,4.54,4.84,5.56,6.72,1.68,8.2-1.05,9.67-2.1,6.94-4.96,10.32-11.1,17.59-17.61.58-.52,2.89-4.3,3.26-4.76,5.46-6.96,7.6-4.45,12.76-4.64,5.08-.19,9.21,1.81,12.29,6.1,2.13,2.96,4.48,5.86,7.17,8.3,6.81,6.17,10.64,5.21,15.76-2.3,2.84-4.17,6.97-7.48,10.51-11.18.37.25,3.61-.58,3.98-.33,0,.87-1.2,3.33-1.59,3.97-3.33,5.42-9.11,10.11-11.31,15.93-2.51,6.67-4.03,14.05-4.24,21.17-.23,7.81,1.89,15.66,2.3,23.52.42,7.98-.42,16.04.07,24.02.53,8.65,1.49,17.34,3.15,25.85,1.01,5.17,3.33,10.19,5.69,14.96,2.48,5,10.85,5.9,15.26,2.34,1.13-.91,3.1-.79,4.68-1.14.2,2.16.41,4.32.56,6.48.02.23-.37.52-.62.72v.03ZM470.16,319.18c-.12.46-3.04,22.39-3.62,26.39l-19.03,11.25c-2.61,2.48-9.79,12.8-14.95,13.77s-8.01-7.14-10.83-9.34c-6.57-5.14-9.19-4.5-15.48-10.03-1.44-1.27-9.92-1.06-10.97-.41-6.71,4.18-10.89,10.37-18.08,13.61-6.3,2.84-12.6-.81-14.83-5.08-.52-.99-6.45-5.03-7.72-5.08-5.31-.2-6.51-1.92-11.78-2.44-7.39-.73-7.03-3.13-13.84.55-5.69,3.08-9.81,8.24-15.98,8.74-3.39.28-7.06,6.68-10.13,5.21-3.12-1.5-4.85-23.29-7.22-27.67l-.05-.51c-.12-.05-.25-.06-.38-.1-.16-.14-.32-.22-.48-.18v.05c-5-1.63-10.28-1.42-15.37-2.4-3-.58-5.8-2.17-8.79-2.73-2.23-.42-4.47-1.09-6.7-1.6,1.92-1.15,3.91-1.74,6.13-1.17,1.95.5,4.33-.87,10.39-3.18,8.11-3.09,3.18-3.46,12.99-5.77,4.14-.97,7.59-.08,11.26-1.73,12.88-5.79,11.34.23,21.18-7.48,6.6-5.18,9.21-7.89,14.08-8.49,3.44-.42,7.96-1.09,15.63-.58,6.94.46,12.91-4.52,16.59-4.63,6.36-.19,14.17,4.45,19.87,7.52,5.01,2.7,8.62,3.84,14.47,6.37,7.65,3.3,9.94,8.2,12.92,15.82,3.07,7.84,4.98,9.56,8.29,14.66,1.22,1.88,1.17,3.64,2.51,5.4,1.29,1.7,1.6,6.15,3.46,7.41,1.18-1.98,2.81-3.83,3.45-5.98.68-2.25,1.1-4.57,1.55-6.89.34-1.78,6.92-18.58,7.4-20.32,3.34-12.26,8.58-13.51,14.8-16.56,2.92-1.43,6.04-1.93,9.22-2.28.25,1.97.52,3.93.73,5.91.35,3.28.13,6.79-.68,9.99v-.02ZM483.35,270.16c-5.11,7.17-13.36,6.33-20.52,8.54-4.4,1.36-8.08,5.02-12.08,7.65-1.07.7-2.08,1.83-3.23,2.02-7.33,1.21-10.55,6.72-13.45,12.56-2.62,5.28-2.94,5.2-6.94.94-4.38-4.65-8.9-9.27-13.94-13.16-1.9-1.47-5.51-1.46-8.16-1.05-4.19.66-7.2.14-10.95-2.6-8.28-6.04-18.03-9.65-28.27-6.1-9.16,3.17-17.91,1.21-26.94.67-9.59-.57-17.71,2.74-21.83,12.42-.38.89-.74,1.93-1.43,2.5-2.18,1.79-8.27,4.32-16.21,11.73l-21.72,11.39c.16-6.45,17.69-15.57,20.02-21.76,2.25-5.99,7.1-10.07,12.1-14.12,4.29-3.49,7.45-8.37,11.15-12.6.71-.82,1.62-2.06,2.46-2.08,10.03-.19,10.05-8.91,12.63-15.1,1.5-3.61,1.72-7.8,2.25-11.76.48-3.58-.75-6.1-4.68-7.22-3.03-.87-5.75-2.73-8.73-3.83-6.03-2.23-10.76-.27-12.76,5.61-1.75,5.13-5.2,6.52-10.22,6.01-2.35-8.52,1.79-14.74,7.05-20.31,5.08-5.38,10.29-10.14,18.75-10.6,8.85-.48,11.81-7.93,10.12-17.85-1.81-10.67-9.83-13.23-17.97-16.24-1.2-.44-3.06-.45-3.53-1.28-2.77-4.9-5.49-2.96-9.37-1.12-5.55,2.62-10.08,5.84-13.68,10.84-1.31,1.82-4.2,2.51-7.13,4.14-1.24-6.6,2.44-10.05,4.49-13.89,2.33-4.37,5.19-8.53,8.35-12.34,1.71-2.06,4.36-3.95,6.91-4.58,7.83-1.93,15.5-4.31,24.01-2.25,6.99,1.69,11.08-3.64,8.57-10.54-4.86-13.37,1.1-22.74,10.42-30.84,5.04-4.38,5.49-7.14,10.56-11.48,1.95-1.67,3.13-5.19,5.63-5.81,3.35-.84,6.14-1.56,5.45-4.18-.35-1.33-5.68-2.6-7.08-2.54-6.21.25-5.71-.86-11.89-.11-10.94,1.34-21.52.81-31.04-5.54-6.11-4.07-15.46-1.51-19.36,1.91-1.57,1.38-3.82,3.35-4.55,5.59-6.23,4.27-19.98,1.33-25.86,5.74-4.14-.27-8.32,12.65-13.09,15.36.67-10.28,8.14-19.89,16.3-24.72,10.87-7.25,21.35-13.09,26.96-18.66,4.25-4.23,11.61-6.85,17.79-7.29,10.81-.76,21.79.46,32.66,1.38,4.23.36,8.32,2.23,12.51,3.29,6.31,1.6,12.59,3.37,18.99,4.48,2.34.4,4.96-1.18,7.48-1.36,8.36-.6,16.49-1.62,23.43-7.05,1.27-.99,3.39-1.45,5.01-1.27,1.3.15,2.45,1.64,3.67,2.54-.83,1-1.45,2.42-2.51,2.92-3.61,1.68-7.77,2.45-10.99,4.64-5.86,3.98-11.46,8.45-16.68,13.24-6.83,6.26-13.45,12.73-16.51,22.02-1.46,4.42-5.17,8.21-6.17,12.66-2.41,10.66-5.7,21.44-1.86,32.53.25.73.1,1.61.13,2.42.21,5.93.56,11.86.59,17.79.03,8.72.2,17.46-.39,26.14-.58,8.45-1.37,16.99-3.31,25.2-2.13,9.02-3.67,18.58-12.77,24.41-3.02,1.94-5.24,5.81-6.65,9.28-.67,1.66.91,4.88,2.42,6.53.95,1.05,4.16,1.34,5.48.53,7.76-4.71,15.13-10.07,22.91-14.76,7.7-4.64,11.94-11.71,13.7-19.94,2.17-10.14,3.01-20.56,4.62-30.83,1.75-11.22,2.18-22.26-2-33.15-.82-2.13-.84-4.95-.23-7.17,2.98-10.79,2.81-21.41-.28-32.17-.65-2.28-.03-5.18.72-7.56,2.19-6.93,3.89-14.24,7.48-20.42,2.37-4.08,7.52-6.68,11.71-9.52,3.81-2.59,8.04-4.57,12.01-6.92,6.14-3.63,11.95-7.98,18.44-10.82,4.37-1.91,9.69-1.54,14.49-2.59,3.67-.8,8.1-1.26,10.62-3.58,7.68-7.04,17.13-2.75,21.47,4.03,3.18,4.96,5.36,10.55,8.55,15.5,3.44,5.34,7.34,10.41,11.4,15.3,4.6,5.54,9.72,10.64,14.37,16.14,2.33,2.76.67,9.17-2.48,10.83-3.15,1.66-2.94,3.33-6.84,7.42-.34.35-1.36,1.19-2.17,1.68-5.5,3.33-7.58,8.1-13.03,11.51-.98.61-4.22,4.38-4,4.91,1.1,2.65.66,1.7,2.55,3.79.92,1.02,3.37,1.01,5.09.9,4.5-.31,7.92,1.44,11.44,4.16,3.36,2.6,7.64,3.97,11.33,6.2,2.31,1.39,4.38,3.23,6.88,5.21.23.18.45.36.68.54-.19.28-.35.53-.53.8-1.99,2.99-3.42,5.46-5.22,7.57-4.8,5.62-5.3,11.91-1.8,17.91,4.47,7.66,1.31,15.42,1.47,23.1.21,9.94-.37,19.89-.44,29.83-.05,7.77-2.63,10.79-10.47,12.08-10.15,1.67-20.27,3.47-30.41,5.22-.63.11-1.58,0-1.85.37l-.07.04ZM615.81,367.24c-1.6,3.02-2.99,6.22-3.94,9.5-2.92,10.06-3.85,20.4-2.66,30.79,1.57,13.7,3.94,27.32,5.21,41.05.63,6.77-.4,13.7-.75,20.56-.39,7.48-1.38,14.97-1.18,22.44.34,12.56.75,12.8-10.43,17.5-4.13,1.74-5.42,2.63-11.21,6.1-1.32.79-4.67,2.6-5.78,3.47-7.64,5.99-8.91,4.44-13.85,6.2-.88.32-2.33.28-2.62.86-4.53,9.04-10.54,2.37-15.83,1.36-1.74-.33-2.96-2.97-4.75-3.55-5.79-1.89-11.76-3.18-17.58-4.97-2.51-.77-4.72-2.58-7.25-3.26-7.38-1.99-14.82-3.1-22.05,1.51-1.05-4.3-1.49-7.78,1.95-11.01,1.42-1.33,2.09-3.89,2.34-5.98.85-7.1,1.42-14.24,1.94-21.38.13-1.79-.45-3.62-.52-5.45-.32-8.88-.51-17.77-.91-26.65-.11-2.35-1.14-4.68-1.17-7.02-.11-11.5-1.82-22.68-4.9-33.81-2.46-8.88.97-12.61,10.32-14.57,3.94-.82,7.6-2.98,11.37-4.55.57-.24,1.24-.6,1.6-.91,6.03-5.21,4.44-4.44,6.03-8.5.33-.84-.43-3.44-.88-3.95-3.15-3.51-2.42-6.93-6.39-8.96-11.26-5.74-23.05-10.44-34.58-15.64-.85-.39-1.91-1.54-1.93-2.36-.16-6.11-.27-12.24-.02-18.35.14-3.45.75-6.93,1.56-10.3,1.41-5.9,5.64-6.87,10.09-2.64,11.11,10.55,23.53,19.18,37.56,25.5,3.88,1.75,7.55,4.13,11.01,6.64,7.81,5.67,17.69,7.99,24.51,15.28.86.93,2.6,1.03,3.93,1.53,5.84,2.18,11.78,4.12,17.48,6.61,5.4,2.36,12.66-.19,14.95-5.68.54-1.29,1.03-2.73,1.97-3.68,2.23-2.23,4.94-4.14,8-1.7,3.42,2.73.77,5.26-.64,7.94v.03ZM750.91,478.91c-5.85,3.15-11.81,6.27-17.67,9.55-5.09,2.85-10.5,5.36-14.97,9-4.12,3.35-7.23,7.95-10.68,12.09-3.01,3.6-6.15,3.71-10.04,1.28-9.11-5.68-18.12-11.62-27.69-16.42-4.46-2.24-10.13-2.06-15.24-3.01-1.81-.34-3.6-.78-5.92-1.28,1.97-4.76,4.44-8.81,5.24-13.16,1.05-5.69.83-11.62,1.05-17.44.35-9.05.64-18.09.88-27.14.13-4.88.02-9.77.18-14.66.25-7.72,1.26-15.48.77-23.15-.48-7.43,1.13-16.29-8.53-20.09-.49-.19-1.08-1.47-.89-1.82.61-1.07,1.44-2.15,2.45-2.81,1.66-1.08,3.52-1.85,5.31-2.72,2.4-1.17,4.85-2.26,7.23-3.49,3.62-1.86,7.14-3.91,10.79-5.7,2.92-1.43,6-2.54,8.98-3.86,2.12-.94,4.33-1.77,6.26-3.03,4.4-2.87,10.13-1.35,14.45-5.52,5.27-5.09,8.12-4.44,13.36,1.12,3.55,3.77,6.67,7.94,10.13,11.79,3.01,3.35,7.16,6.03,9.16,9.86,3.04,5.83,6.12,10.8,11.89,14.73,6.27,4.27,5.43,9.77-1.21,13.61-7.34,4.24-13.27,9.57-18.44,16.4-4.4,5.82-9.82,12.27-16.22,14.78-6.48,2.53-10.1,7.17-14.88,11.05-6.02,4.89-8.19,15.16-5.13,25.19,1.19,3.92,2.34,7.85,3.57,11.76.18.58.57,1.36,1.05,1.54,4.88,1.87,8.2,6.94,14.37,6.38,3.77-.34,6.2-.94,10.02-1.01,2.21-.04,5.01-1.03,7.03-2.03,4.81-2.39,10.03-5.6,14.98-7.58,2.55-1.02,16.46-4.44,8.4,5.8h-.04ZM881.65,366.85c-.48,2.36-1.44,5.08-3.11,6.63-3.95,3.67-8.38,6.86-12.78,10.03-4.5,3.24-12.86-.18-14.23-5.71-1.68-6.8-2.99-9.08-9.98-11.76-2.64-1.01-4.48-.69-7.01,1.49-3.21,2.77-4.8,4.59-6.76,8.34-1.27,2.43-2.14,5.24-2.47,7.96-.62,5.08-1,10.23-.94,15.35.03,2.77,1.6,5.5,1.78,8.29,1.1,17.16,2.04,34.32,2.91,51.49.09,1.85-.75,3.72-.95,5.6-.15,1.46-.37,3.09.11,4.4,4.3,11.6,12.44,13.84,23.52,8.39,1.85-.91,5.47-2.84,6.87-4.58,1.99-2.47,4.76-2.67,9.2-.56-3.1,4.37-5.27,9.71-9.23,12.54-7.21,5.17-15.5,8.83-23.32,13.16-3.2,1.77-6.27,3.81-9.56,5.39-1.1.53-3.41.54-3.98-.16-5.43-6.72-13.13-10.17-20.36-14.16-4.77-2.63-10.01-4.42-15.32-6.71,1.89-4.15,4.19-7.53,4.95-11.22,1.48-7.15,2.68-14.47,2.93-21.75.46-13.21.92-26.52-.09-39.67-1.01-13.12-2.97-21.88-4.97-34.92-.18-1.17-.38-4.23-.64-5.37-.56-2.48-.73-4.32-1.41-6.78-2.23.83-3.44,1.86-5.12,3.33-1.48,1.29-2.51,2.67-4.73,4.6-1.41,1.23-1.9.99-2.86,3.29-3.63-3.71-4.85-6.51-1.02-9.6,7.58-6.13,15.12-12.3,22.69-18.44.36-.29.9-.36,1.27-.65,6.73-5.17,9.47-4.99,15.5,1.03,4.19,4.19,8.29,8.47,12.59,12.54,5.47,5.18,7.21,4.14,11.83-1.55,4.57-5.63,10.67-10.13,16.48-14.62,2.82-2.18,5.62-.09,8.16,1.93,2.69,2.15,5.8,3.76,8.61,5.76,7.17,5.1,13.27,7.74,11.46,16.64l-.02.03ZM1039.58,366.08c-.19,6.6-3.16,8.3-9.43,5.72-2.32-.96-5.46.58-7.72-.46-3.95-1.82-5.64.09-5.84,4.38-.18,3.85-.12,5.11-.38,8.96-.63,9.11-1.52,18.22-1.81,27.34-.15,4.93,1,9.88,1.07,14.83.07,4.68-.49,9.38-.8,14.06-.05.79-.51,1.62-.37,2.35,1.16,5.82,2.09,11.73,3.77,17.4,1.29,4.35,4.02,8.16,2.17,13.19-.93,2.52-.27,5.19,3.72,5.1.94-.02,2.28,1.47,2.81,2.57,2.82,5.77,5.54,11.59,8.1,17.48,1.44,3.31,3.07,6.71,3.61,10.22,1.05,6.76-4.26,11.03-8.22,14.86-4.78,4.63-11.07,7.83-17,11.09-2.97,1.63-6.61,2.06-9.95,3-2.71.77-5.44,1.5-8.72,2.41-1.76-4.48-3.89-6.07-9.13-2.92-2.94,1.77-7.86.23-11.89.22-2.82,0-5.65.04-8.47.1-1.12.02-2.53.64-3.32.16-6.28-3.81-12.45-.15-18.62.16-6.54.34-13.07,1.08-19.56,1.94-3.13.41-6.16,1.48-9.24,2.26-.17-.41-.35-.82-.52-1.23,3.2-3.71,6.57-7.28,9.56-11.15,6.7-8.69,13.2-17.52,19.78-26.29.39-.52.88-.95,1.23-1.49,1.51-2.31,4.79-5.79,4.17-6.76-2.58-4.04-5.85-8.06-9.79-10.71-5.67-3.82-12.16-6.42-18.28-9.59-1.27-.66-2.33-1.89-3.65-2.22-6.57-1.63-6.76-7.17-6.76-12,.01-17.78.03-35.6,1.12-53.33.39-6.28-.92-11.84-2.33-17.6-1.01-4.12-3.19-8.1-3.41-12.22-.36-6.69-.04-13.54,1.11-20.12.28-1.6,4.82-3.13,7.56-3.5,7.76-1.03,16.03-.13,23.32-2.42,9.86-3.1,20.17-6.5,27.19-15.05,1.78-2.17,3.08-2.63,5.49-1.27,2.2,1.24,4.78,1.78,6.98,3.02,4.47,2.52,8.99,4.01,14.27,3.09,1.24-.21,3.48,1.23,4.14,2.49,4.08,7.84,11.26,11.49,19.12,13.32,2.67.62,6.24-2.31,9.28-3.84,1.1-.56,1.72-2.23,2.82-2.6,3.26-1.09,6.73-2.56,9.94-2.22,1.21.13,2.34,4.78,2.74,7.49.47,3.2.2,6.52.1,9.78h.04ZM1169.43,384.42c-2.76,4.24-6.97,5.95-11.46,6.01-2.11.03-4.48-2.33-6.32-4.05-3.15-2.95-3.91-4.36-7-7.38-5.68-5.56-11.32.62-16.22,3.74-6.18,3.94-9.97,8.62-8.73,16.84,2.05,13.67,1.96,23.35.43,37.45-1.52,13.92-2.26,28.51,2.5,42.35.64,1.86,2.61,3.38,4.22,4.76,1.29,1.11,3.2,1.52,4.44,2.66,6.19,5.7,8.49,3.69,13.59-2.07,3.11-3.51,7.1-4.35,11.18-4.13,1.12.06,3.38,4.18,2.84,5.15-1.49,2.65-3.87,5.18-6.5,6.75-10.69,6.4-20.35,13.93-28.33,23.56-3.78,4.55-6.9,3.73-11.89-1.58-5.73-6.09-11.92-11.8-18.32-17.19-2.73-2.3-6.34-3.58-10.31-1.55-1.43.73-3.5.2-5.28.24.09-2.44-.8-5.68.43-7.17,6.13-7.44,7.58-16.27,8.64-25.29.76-6.5,1.7-13.02,1.82-19.54.14-7.71-.5-15.43-.84-23.14-.3-6.77-.51-13.55-.99-20.31-.51-7.17-.98-14.38-2.14-21.47-.45-2.77-.71-1.9-2.61-4.11-2.16-2.5-10.47,6.04-12.48,9.67-2.1,3.8-1.03-10.36-5.02-11.67,7.82-7.25,14.56-14.42,22.24-20.38,7.96-6.18,17.85-6.1,23.44,5.2,1.69,3.41,3.3,6.87,4.77,10.38,1.99,4.72,5.3,5.43,9.18,2.33,8.28-6.6,16.62-13.13,25.26-19.22,1.67-1.17,5.12-.93,7.27-.1,6.35,2.44,10.16,7.45,12.97,13.64,1.52,3.36,4.57,6.03,7.07,9.2-2.73,3.59-5.53,6.86-7.86,10.43h0ZM1299.2,456.99c-.2,8.04.59,16.26-.93,24.04-.84,4.31-4.74,9.38-8.66,11.46-8.56,4.54-18.84,5.47-26.48,12.37-3.09,2.79-6.85,4.81-10.14,7.4-2.55,2.01-5.08,2.77-7.86.79-6.1-4.32-11.99-8.95-18.24-13.04-7.3-4.79-14.65-9.63-24.06-9.21-3.7.17-7.43-.36-11.86-.62,1.94-5.6,3.93-11.23,5.85-16.88,1.56-4.58,1.71-9.19.44-13.9-.45-1.67-.62-3.58-.31-5.27,2.05-11.13-1.43-21.78-2.47-32.65-1.25-13.16-4.52-26.38-1.36-39.66.51-2.13,2.41-4.54,4.34-5.62,10.27-5.78,20.89-10.94,31.1-16.81,4.51-2.59,8.48-6.2,12.46-9.61,4.13-3.53,6.54-3.48,9.9.76.4.51.87.97,1.36,1.39,3.68,3.07,7.38,6.11,11.07,9.17-.14.49-.28.99-.43,1.48,1.32-.92,2.64-1.85,3.41-2.39,1.97.44,3.85.45,5.29,1.25,4.41,2.44,8.59,5.3,13,7.74,1.8,1,4.21.97,5.91,2.07,1.83,1.19,4.11,2.93,4.56,4.82,3.32,13.85,5.26,27.93,5.04,42.21-.2,12.91-.63,25.83-.95,38.74l.02-.03ZM1459.42,507.58c-2.57,2.08-6.08,3.66-9.35,4.06-5.13.62-7.39,4.21-10.38,7.42-1.88,2.02-4.31,4.11-6.86,4.82-6.14,1.71-11.46-2.45-14.55-10.42-1.14-2.95-2.99-5.7-3.67-8.72-.77-3.4-.64-7.01-.78-10.54-.05-1.27.47-2.59.31-3.84-.15-1.16-.64-2.97-1.38-3.19-1.16-.35-3.27,1.68-3.76,2.48-5.75,9.44-16.36,11.66-24.82,16.81-5.06,3.08-9.65,5.35-13.33,10.07-4.65,5.96-13.6,6.05-18.38.09-3.57-4.45-8.15-8.17-12.62-11.8-3.04-2.47-6.77-4.05-9.96-6.35-2.31-1.67-2.86-4.09-.31-6.08,5.18-4.04,7.81-8.66,6.55-15.7-.7-3.91,1.39-8.23,1.27-12.35-.15-5.11-.9-10.1,2.71-14.48.44-.54.32-2.18-.18-2.74-3.56-3.96-2.08-8.76-.41-12.12,2.96-5.93.78-11.69,1.34-17.46.45-4.71.83-9.46.71-14.18-.12-4.59-.91-9.15-1.43-13.73-.03-.3-.36-.57-.41-.87-1.42-7.96-4.67-5.28-12.19-1.47-1.04.53-6.29.69-7.52.83.44-1.26,2.74-9.05,3.62-9.61,6.53-4.08,12.62-9.9,21.3-10.58,1.67-.13,3.29-1.84,4.79-3.01,3.55-2.77,6.91-5.79,10.58-8.39,1.05-.74,3.5-1.04,4.27-.37,3.78,3.34,7.24,7.04,10.77,10.67,1.58,1.63,3.05,3.37,4.56,5.06,2.98,3.36,2.88,5.87-.79,8.23-7.9,5.07-9.6,12.94-9.9,21.4-.21,6.1-.02,12.22-.05,18.33-.08,14.17.01,28.34-.42,42.5-.14,4.54-1.34,9.16-2.72,13.53-2.01,6.38-1.72,7.04,3.62,10.42,3.14,1.98,5.75,1.21,8.09,4.13,2.61,3.26,4.88,3.29,8.21.98,5.98-4.14,10.32-6.12,16.22-10.36,1.69-1.22,5.06-6.48,6.06-8.41,3.59-6.91,5.1-8.74,4.94-16.64-.17-8.37.03-16.76.36-25.13.15-3.72.4-7.65,1.71-11.06,5.83-15.17,1.5-27.53-11.31-39.27,2.46-1.63,4.12-3.36,6.11-3.95,6.96-2.03,8.74-9.55,14.3-12.98,1.62-1,3.04-2.8,4.75-3.08,1.7-.29,5.2.73,5.25,1.4.55,6.82,6.29,7.33,10.69,8.46,6.12,1.59,9.65,5.46,11.99,10.7,1.55,3.47-1.02,6.08-3.76,7.15-7.23,2.82-9.03,8.56-9.01,15.3.02,7.05.68,14.09.72,21.14.08,13.52.12,27.04-.24,40.55-.17,6.63-1.59,13.23-1.83,19.86-.16,4.39.59,8.85,1.27,13.22.48,3.09,3.68,3.97,6.36,2.02,1.54-1.12,2.94-2.86,4.64-3.23,3.12-.68,6.92,0,7.56,3.37.41,2.16-1.41,5.59-3.3,7.13v-.02ZM1603.21,508.93c2.96.66,6.25.74,9.22.19,2.6-.48,4.89-2.59,7.5-3.16.92-.2,3.45,2.06,3.39,3.09-.23,3.89-1.52,7-6.18,8.39-5.7,1.71-11.07,4.59-16.53,7.07-4.35,1.98-8.61,4.16-12.93,6.2-4.2,1.98-7.37.86-9.61-3.32-2.7-5.04-5.68-9.97-7.99-15.19-1.54-3.48-1.83-7.03-.37-11.2,1.88-5.35,2.38-11.33,2.58-17.06.18-5.15-1.69-10.44-1.17-15.51,1.07-10.44,3.34-20.75,4.69-31.17.56-4.36.16-8.87-.03-13.3-.3-6.78-.14-13.69-1.44-20.3-1.18-5.98-.45-5.37-3.02-10.95-.43-.94-6.33-1.85-7.2-.96-2.95,3.02-6,1.68-10.32,2.88-.3.08-6.74,3.67-6.96,3.84-4.52,3.52-6.03.49-9.6,4.8-2.39,2.88-2.66,4.96-2.8,8.93-.4,11.45.86,23.02-.27,34.37-1.17,11.75-3.72,23.48-6.92,34.87-2.55,9.07-1.03,15.98,7.25,20.74,2.19,1.26,2.91,2.48,1.02,4.4-2.68,2.73-5.14,5.84-8.28,7.91-2.63,1.74-6.08,2.27-9.2,3.21-1.03.31-2.31-.01-3.25.44-5.6,2.68-11.38.44-17.06.75-.81.04-1.86-.54-2.47-1.16-4.02-4.1-7.82-8.43-11.95-12.41-2.21-2.13-1.73-3.48.4-5,8.8-6.29,12.15-15.69,13.49-25.67,1.39-10.32,1.42-20.82,2.41-31.2.44-4.6,1.81-9.12,2.72-13.68,1.98-9.94,4.5-19.83,5.66-29.87.61-5.26-.96-10.85-2.11-16.17-.27-1.25-2.74-2.66-4.35-2.87-4.57-.59-9.22-.6-13.83-.83-.28-.6-.55-1.19-.83-1.79,2.58-1.38,5.2-2.69,7.73-4.15,2.68-1.53,5.16-3.45,7.93-4.75,4.45-2.1,9.05-3.88,13.63-5.7,3.07-1.22,13.39,2.82,15.46,5.88.86,1.26,1.8,2.49,2.84,3.61,2.89,3.08,4.36,6.22,1.66,10.31-.73,1.11-.42,2.9-.58,4.39,1.64.18,3.35.75,4.92.48,8.48-1.43,15.7-5.59,22.76-10.34,5.93-3.98,12.31-7.33,18.64-10.67,2.95-1.56,5.77-1.22,7.93,2.03,1.5,2.27,3.92,3.94,5.39,6.22,1.56,2.42,2.45,5.27,3.7,7.9.6,1.26,1.23,2.54,2.1,3.61.44.54,1.47.56,2.15.96,2.42,1.42,3.48,2.98,5.68,2.73,1.88-.21,4.73-2.76,6.54-4.77,1.28-1.42,2.91-2.53,4.31-3.72,1.16,1.37,5.9,3.64,7.33,5.32-1.91,2.01-5.4,4.2-7.61,5.92-5.8,4.52-9.1,10.21-10.24,16.75-1.4,8-2.58,16.08-3.18,24.18-.66,8.89-.27,17.85-.86,26.75-.69,10.38-1.91,20.73-2.97,31.09-.37,3.61-.8,7.23-1.47,10.79-.5,2.68-.28,5.24,2.53,5.86h.02ZM1769.55,411.78c-8.37,10.86-14.16,22.84-15.56,36.52-.83,8.07-.5,16.26-.75,24.4-.04,1.45-.23,2.93-.55,4.34-3.83,16.66-3.93,33.36-1.55,50.28,1.17,8.36-4.73,14.13-10.18,19.59-3.69,3.7-7.62,5.14-13.46,5.14-12.33,0-24.11,3.75-34.53,10.86-4.86,3.32-11.08,1.52-14.54-3.4-3.75-5.31-8.09-10.21-12.24-15.23-.59-.71-1.63-1.69-2.31-1.58-7.64,1.22-13.68-3.83-20.63-5.27-2.53-.53-4.68-2.89-6.98-4.46-1.89-1.29-3.73-2.63-6.14-4.33,7.73-9.98,12.03-21.78,14.57-34.1,1.34-6.49.74-13.37,1.07-20.06.35-7.2.94-14.38,1.1-21.58.13-5.86.31-11.8-.51-17.56-.94-6.58,1.17-11.96,4.73-16.98,2.24-3.16,5.8-3.34,9.5-3.32,3.21.02,6.57-.5,9.59-1.55,4.46-1.54,8.78-3.57,12.96-5.76,3.52-1.85,4.11-4.26,2.1-8.33-3.98-8.07-9.6-13.39-17.86-17.35-6.06-2.9-11.5-8.27-15.53-13.77-2.31-3.15-1.53-8.75-1.68-13.26-.24-6.81-.3-13.64.05-20.44.11-2.19,1.72-4.31,2.65-6.47,1.73.76,3.85,1.12,5.12,2.35,2.18,2.13,4.06,4.66,5.68,7.26,3.62,5.82,7.3,11.46,14.19,13.94,1,.36,1.95,1.01,2.77,1.7,5.75,4.9,11.62,9.67,17.13,14.82,4.3,4.02,8.21,8.47,12.2,12.81,9.37,10.18,18.62,20.46,28.05,30.59,2.57,2.76,5.51,5.19,8.43,7.59,2.37,1.95,4.81.72,6.11-2.33,2.5-5.84,7.71-9.12,12.91-12.08,1.18-.67,4.74.27,5.07,1.22.58,1.66.14,4.39-.97,5.82v-.02ZM1811.34,567.54c-4.91,2.39-10.03,4.37-15.07,6.49-.73.31-1.57.34-2.3.65-6.99,2.99-6.93,2.96-11.24-3.51-2.81-4.22-6.09-8.16-8.56-12.56-.7-1.25.06-4.64,1.23-5.42,7.14-4.76,14.6-9.05,21.99-13.52,5.38,6.79,10.45,13.16,15.48,19.56,2.31,2.93,1.79,6.7-1.53,8.31h0ZM1848.08,394.4c-5.84,3.85-10.05,8.98-12.71,15.36-2.27,5.43-4.19,11.04-5.93,16.67-3.81,12.34-7.56,24.7-11.04,37.13-2.49,8.9-4.54,17.92-6.68,26.91-1.79,7.5-3.2,15.1-5.26,22.52-.57,2.03-2.89,3.56-4.41,5.32-.29-14.26-1.49-27.4-4.87-40.63-2.05-8.03-1.15-17.23-.02-25.69,1.73-12.91,2.07-25.74.35-38.49-1.18-8.73-4-17.22-5.84-25.87-.47-2.22-.02-4.65,0-6.27,6.99-3.81,13.81-7.22,20.3-11.2,3.4-2.09,6.32-5.06,9.28-7.83,2.7-2.53,4.29-2.11,6.1,1.09,5.45,9.6,11.49,18.65,22.06,23.32,3.06,1.35,2.6,5.06-1.33,7.65h0Z" class="cls-1"/>
  <path d="M579.04,440.66c-.68-11.21-.59-22.46-.85-33.69.77-7.97-3.57-12.63-10.46-15.74-1.86-.84-3.41-2.67-4.72-4.35-3.48-4.44-8.31-6.86-13.49-7.82-5.02-.94-11.03,5.53-12.75,11.47-2.28,7.9-.35,15.52.58,23.25,1.28,10.68,2.93,21.34,3.74,32.06.83,11.09.29,22.31,1.44,33.35.54,5.17-.04,11.7,6.08,14.86,3.19,1.65,6.46,3.25,9.87,4.31,4.97,1.55,10.2,2.3,15.14,3.95,4.4,1.47,6.8-.05,9.04-3.72,2.62-4.3.57-8.29.16-12.5-1.46-15.12-2.85-30.26-3.77-45.42h-.01Z" class="cls-1"/>
  <path d="M691.98,424.56c1.23.37,3.17-.16,4.24-1.02,4.61-3.74,8.95-7.82,13.52-11.62,3.14-2.62,6.27-5.36,9.78-7.38,5.96-3.42,7.87-8.34,3.61-13.54-6.21-7.58-13.16-14.55-19.8-21.77-2.92-3.18-5.88-6.32-8.82-9.47-.57-.07-1.13-.15-1.7-.22-.7,2.48-1.87,4.94-1.97,7.44-.15,3.65.77,7.33.73,10.98-.17,14.27-.58,28.53-.79,42.79-.02,1.34.46,3.6,1.2,3.82h0Z" class="cls-1"/>
</svg>